G04 Layer_Physical_Order=1*
G04 Layer_Color=255*
%FSLAX25Y25*%
%MOIN*%
G70*
G01*
G75*
%ADD10R,0.05709X0.02362*%
%ADD11R,0.03347X0.02362*%
%ADD12R,0.04724X0.02756*%
G04:AMPARAMS|DCode=13|XSize=25.59mil|YSize=64.96mil|CornerRadius=1.92mil|HoleSize=0mil|Usage=FLASHONLY|Rotation=270.000|XOffset=0mil|YOffset=0mil|HoleType=Round|Shape=RoundedRectangle|*
%AMROUNDEDRECTD13*
21,1,0.02559,0.06112,0,0,270.0*
21,1,0.02175,0.06496,0,0,270.0*
1,1,0.00384,-0.03056,-0.01088*
1,1,0.00384,-0.03056,0.01088*
1,1,0.00384,0.03056,0.01088*
1,1,0.00384,0.03056,-0.01088*
%
%ADD13ROUNDEDRECTD13*%
G04:AMPARAMS|DCode=14|XSize=21.65mil|YSize=49.21mil|CornerRadius=1.95mil|HoleSize=0mil|Usage=FLASHONLY|Rotation=90.000|XOffset=0mil|YOffset=0mil|HoleType=Round|Shape=RoundedRectangle|*
%AMROUNDEDRECTD14*
21,1,0.02165,0.04532,0,0,90.0*
21,1,0.01776,0.04921,0,0,90.0*
1,1,0.00390,0.02266,0.00888*
1,1,0.00390,0.02266,-0.00888*
1,1,0.00390,-0.02266,-0.00888*
1,1,0.00390,-0.02266,0.00888*
%
%ADD14ROUNDEDRECTD14*%
%ADD15R,0.03740X0.05315*%
%ADD16R,0.04331X0.04331*%
%ADD17R,0.03543X0.02756*%
%ADD18R,0.03543X0.03150*%
%ADD19R,0.04331X0.04331*%
%ADD20C,0.02000*%
%ADD21C,0.01378*%
%ADD22C,0.01083*%
%ADD23C,0.01181*%
%ADD24C,0.01870*%
%ADD25C,0.01279*%
%ADD26C,0.06000*%
%ADD27C,0.09842*%
%ADD28C,0.11811*%
%ADD29R,0.05905X0.05905*%
%ADD30R,0.05905X0.05905*%
%ADD31C,0.05905*%
%ADD32C,0.04921*%
%ADD33R,0.04921X0.04921*%
%ADD34C,0.03000*%
G36*
X-29686Y225878D02*
X-29856Y225818D01*
X-30006Y225718D01*
X-30136Y225578D01*
X-30246Y225398D01*
X-30336Y225178D01*
X-30406Y224918D01*
X-30456Y224618D01*
X-30486Y224278D01*
X-30496Y223898D01*
X-32496D01*
X-32506Y224278D01*
X-32536Y224618D01*
X-32586Y224918D01*
X-32656Y225178D01*
X-32746Y225398D01*
X-32856Y225578D01*
X-32986Y225718D01*
X-33136Y225818D01*
X-33306Y225878D01*
X-33496Y225898D01*
X-29496D01*
X-29686Y225878D01*
D02*
G37*
G36*
X-27633Y230795D02*
X-28030Y230384D01*
X-28655Y229647D01*
X-28883Y229322D01*
X-29054Y229024D01*
X-29168Y228756D01*
X-29226Y228516D01*
X-29227Y228304D01*
X-29171Y228121D01*
X-29059Y227967D01*
X-31876Y230783D01*
X-31721Y230671D01*
X-31539Y230616D01*
X-31327Y230617D01*
X-31087Y230675D01*
X-30818Y230789D01*
X-30521Y230960D01*
X-30196Y231188D01*
X-29841Y231472D01*
X-29048Y232209D01*
X-27633Y230795D01*
D02*
G37*
G36*
X-32061Y220307D02*
X-32031Y219965D01*
X-31981Y219663D01*
X-31911Y219401D01*
X-31821Y219180D01*
X-31711Y218999D01*
X-31581Y218858D01*
X-31431Y218757D01*
X-31261Y218697D01*
X-31071Y218677D01*
X-35071D01*
X-34881Y218697D01*
X-34711Y218757D01*
X-34561Y218858D01*
X-34431Y218999D01*
X-34321Y219180D01*
X-34231Y219401D01*
X-34161Y219663D01*
X-34111Y219965D01*
X-34081Y220307D01*
X-34071Y220689D01*
X-32071D01*
X-32061Y220307D01*
D02*
G37*
G36*
X17906Y223077D02*
X16312Y221484D01*
X16293Y221537D01*
X16241Y221620D01*
X16155Y221733D01*
X15882Y222049D01*
X14615Y223361D01*
X16029Y224775D01*
X17906Y223077D01*
D02*
G37*
G36*
X23686Y248523D02*
X23633Y248343D01*
X23636Y248135D01*
X23694Y247898D01*
X23809Y247633D01*
X23980Y247339D01*
X24206Y247016D01*
X24488Y246666D01*
X25221Y245878D01*
X23807Y244464D01*
X23399Y244858D01*
X22669Y245479D01*
X22346Y245705D01*
X22052Y245876D01*
X21787Y245991D01*
X21550Y246049D01*
X21342Y246052D01*
X21162Y245999D01*
X21011Y245890D01*
X23795Y248674D01*
X23686Y248523D01*
D02*
G37*
G36*
X38301Y251909D02*
X38307Y251795D01*
X38891D01*
X38778Y251783D01*
X38678Y251748D01*
X38589Y251688D01*
X38513Y251605D01*
X38448Y251497D01*
X38394Y251366D01*
X38353Y251211D01*
X38343Y251152D01*
X38395Y250229D01*
X38417Y250187D01*
X37002D01*
X37024Y250229D01*
X37044Y250308D01*
X37062Y250425D01*
X37090Y250771D01*
X37096Y251025D01*
X37095Y251032D01*
X37066Y251211D01*
X37024Y251366D01*
X36971Y251497D01*
X36906Y251605D01*
X36830Y251688D01*
X36741Y251748D01*
X36641Y251783D01*
X36528Y251795D01*
X37115D01*
X37118Y251909D01*
X37119Y252287D01*
X38300D01*
X38301Y251909D01*
D02*
G37*
G36*
X12971Y240665D02*
X13068Y240643D01*
X13208Y240624D01*
X13624Y240594D01*
X15448Y240562D01*
Y238562D01*
X12920Y238436D01*
Y240689D01*
X12971Y240665D01*
D02*
G37*
G36*
X6521Y269820D02*
X6921Y269530D01*
X6851Y269178D01*
Y267003D01*
X6943Y266538D01*
X7207Y266144D01*
X7601Y265880D01*
X8066Y265788D01*
X14178D01*
X14643Y265880D01*
X14779Y265971D01*
X14854Y265999D01*
X14881Y266024D01*
X14891Y266025D01*
X15429Y265487D01*
X16091Y265045D01*
X16871Y264890D01*
X18505D01*
X18550Y264889D01*
X18790Y264866D01*
X18882Y264852D01*
Y264354D01*
X19551D01*
X19575Y264235D01*
X19614Y263824D01*
Y258828D01*
X19601Y258680D01*
X19566Y258468D01*
X19526Y258318D01*
X19511Y258283D01*
X18488D01*
Y251953D01*
X24819D01*
Y258283D01*
X23796D01*
X23781Y258318D01*
X23741Y258468D01*
X23706Y258680D01*
X23693Y258828D01*
Y263891D01*
X23699Y263988D01*
X23729Y264220D01*
X23756Y264354D01*
X24425D01*
Y265328D01*
X24433Y265366D01*
X24425Y265405D01*
Y268488D01*
X24887Y268679D01*
X25323Y268243D01*
X25985Y267801D01*
X26559Y267687D01*
Y267504D01*
X27143D01*
X27161Y267404D01*
X27193Y267011D01*
Y263187D01*
X27192Y263180D01*
Y257890D01*
X26559D01*
Y253528D01*
X31905D01*
Y257890D01*
X31270D01*
Y263175D01*
X31271Y263182D01*
Y267025D01*
X31336Y267504D01*
X31905D01*
X32028Y267055D01*
X32125Y266565D01*
X32568Y265903D01*
X33229Y265461D01*
X33571Y265393D01*
X33581Y265387D01*
X33610Y265375D01*
X33615Y265373D01*
X33653Y265349D01*
X33693Y265321D01*
X34043Y265018D01*
X34263Y264798D01*
X34789Y264447D01*
X35024Y264400D01*
Y263764D01*
X35607D01*
X35625Y263664D01*
X35658Y263271D01*
Y259388D01*
X35656Y259380D01*
Y254150D01*
X35024D01*
Y249787D01*
X35024Y249787D01*
X35024D01*
X34755Y249410D01*
X32368Y247022D01*
X31905Y247214D01*
Y250410D01*
X26559D01*
Y246519D01*
X26049D01*
X25584Y246984D01*
X25260Y247333D01*
X25021Y247630D01*
X24839Y247889D01*
X24819Y247924D01*
Y251197D01*
X18488D01*
Y250071D01*
X17831D01*
Y251689D01*
X12090D01*
Y244374D01*
X17831D01*
Y245992D01*
X18488D01*
Y244866D01*
X21761D01*
X21796Y244846D01*
X22044Y244672D01*
X22614Y244187D01*
X23763Y243038D01*
X23763Y243038D01*
X24424Y242596D01*
X25205Y242441D01*
X25205Y242441D01*
X31376D01*
X31567Y241979D01*
X31189Y241601D01*
X14327D01*
X13670Y241613D01*
X13323Y241638D01*
X12905Y241917D01*
X12430Y242012D01*
Y239562D01*
Y237113D01*
X12905Y237207D01*
X13240Y237431D01*
X15082Y237523D01*
X32034D01*
X32814Y237678D01*
X33476Y238120D01*
X41869Y246513D01*
X42331Y246322D01*
Y212486D01*
X30311Y200465D01*
X29849Y200657D01*
Y216104D01*
X29693Y216884D01*
X29251Y217546D01*
X27275Y219522D01*
X26613Y219964D01*
X25833Y220120D01*
X20434D01*
X20154Y220530D01*
X20167Y220620D01*
X20358Y221580D01*
X20164Y222556D01*
X19612Y223383D01*
X18785Y223935D01*
X18390Y224014D01*
X17022Y225251D01*
X6951Y235322D01*
X6290Y235764D01*
X5509Y235919D01*
X-7746D01*
X-11851Y240025D01*
Y240719D01*
X-11351Y240966D01*
X-10876Y240600D01*
X-9903Y240197D01*
X-8858Y240060D01*
X-7814Y240197D01*
X-6841Y240600D01*
X-6005Y241242D01*
X-5364Y242077D01*
X-4961Y243050D01*
X-4824Y244094D01*
X-4961Y245139D01*
X-5364Y246112D01*
X-6005Y246947D01*
X-6841Y247588D01*
X-7814Y247992D01*
X-8858Y248129D01*
X-9903Y247992D01*
X-10876Y247588D01*
X-11351Y247223D01*
X-11851Y247470D01*
Y253736D01*
X-5694Y259893D01*
X-5232Y259701D01*
Y254217D01*
X-4381D01*
X-4371Y254177D01*
X-4343Y253995D01*
X-4335Y253898D01*
Y253480D01*
X-4335Y253480D01*
X-4185Y252725D01*
X-3757Y252085D01*
X-1357Y249685D01*
X-1357Y249685D01*
X-717Y249257D01*
X38Y249107D01*
X5791D01*
Y244374D01*
X11531D01*
Y251689D01*
X10987D01*
X10720Y252189D01*
X10864Y252405D01*
X11058Y253380D01*
X10864Y254356D01*
X10312Y255183D01*
X9485Y255735D01*
X8509Y255929D01*
X7534Y255735D01*
X7248Y255544D01*
X6807Y255780D01*
Y260406D01*
X6809Y260412D01*
X6807Y260432D01*
Y260481D01*
X6815Y260520D01*
X6807Y260558D01*
Y261532D01*
X5985D01*
X5953Y261650D01*
X5921Y261844D01*
X5910Y261974D01*
Y269221D01*
X6160Y269477D01*
X6508Y269825D01*
X6521Y269820D01*
D02*
G37*
G36*
X-35207Y209863D02*
X-34470Y209239D01*
X-34144Y209011D01*
X-33847Y208840D01*
X-33579Y208726D01*
X-33338Y208668D01*
X-33127Y208667D01*
X-32944Y208722D01*
X-32789Y208834D01*
X-35606Y206018D01*
X-35494Y206172D01*
X-35439Y206355D01*
X-35440Y206567D01*
X-35498Y206807D01*
X-35612Y207076D01*
X-35783Y207373D01*
X-36010Y207698D01*
X-36294Y208052D01*
X-37032Y208846D01*
X-35618Y210261D01*
X-35207Y209863D01*
D02*
G37*
G36*
X-22023Y208846D02*
X-22419Y208436D01*
X-23041Y207701D01*
X-23268Y207376D01*
X-23437Y207079D01*
X-23550Y206810D01*
X-23607Y206569D01*
Y206357D01*
X-23550Y206173D01*
X-23437Y206018D01*
X-26266Y208846D01*
X-26110Y208733D01*
X-25926Y208677D01*
X-25714D01*
X-25474Y208733D01*
X-25205Y208846D01*
X-24908Y209016D01*
X-24583Y209242D01*
X-24229Y209525D01*
X-23437Y210261D01*
X-22023Y208846D01*
D02*
G37*
G36*
X-10659Y203820D02*
X-10701Y203842D01*
X-10781Y203862D01*
X-10898Y203880D01*
X-11243Y203908D01*
X-12382Y203936D01*
X-12760Y203937D01*
Y205118D01*
X-12382Y205119D01*
X-10701Y205213D01*
X-10659Y205235D01*
Y203820D01*
D02*
G37*
G36*
X21481Y205146D02*
X22676Y205213D01*
X22718Y205235D01*
Y203820D01*
X22676Y203842D01*
X22597Y203862D01*
X22480Y203880D01*
X22135Y203908D01*
X21481Y203924D01*
Y203346D01*
X21469Y203459D01*
X21433Y203559D01*
X21373Y203648D01*
X21290Y203724D01*
X21182Y203789D01*
X21051Y203842D01*
X20896Y203884D01*
X20717Y203913D01*
X20514Y203931D01*
X20288Y203937D01*
Y205118D01*
X20514Y205124D01*
X20717Y205142D01*
X20896Y205171D01*
X21051Y205213D01*
X21182Y205266D01*
X21290Y205331D01*
X21373Y205407D01*
X21433Y205496D01*
X21469Y205596D01*
X21481Y205709D01*
Y205146D01*
D02*
G37*
G36*
X7294Y220519D02*
X7663Y220306D01*
X8088Y220118D01*
X8569Y219955D01*
X9105Y219817D01*
X9698Y219704D01*
X10347Y219617D01*
X11812Y219516D01*
X12629Y219504D01*
Y217504D01*
X11812Y217491D01*
X10347Y217391D01*
X9698Y217303D01*
X9105Y217191D01*
X8569Y217053D01*
X8088Y216890D01*
X7663Y216702D01*
X7294Y216489D01*
X6981Y216251D01*
Y220757D01*
X7294Y220519D01*
D02*
G37*
G36*
X899Y224037D02*
X2006Y223072D01*
X2527Y222675D01*
X3026Y222335D01*
X3503Y222053D01*
X3958Y221829D01*
X4391Y221661D01*
X4803Y221551D01*
X5192Y221498D01*
X2006Y218312D01*
X1953Y218701D01*
X1843Y219113D01*
X1675Y219546D01*
X1451Y220001D01*
X1168Y220478D01*
X829Y220977D01*
X433Y221498D01*
X-533Y222605D01*
X-1101Y223191D01*
X313Y224605D01*
X899Y224037D01*
D02*
G37*
G36*
X21481Y209811D02*
X21461Y210001D01*
X21400Y210171D01*
X21300Y210321D01*
X21159Y210451D01*
X20978Y210561D01*
X20756Y210651D01*
X20495Y210721D01*
X20193Y210771D01*
X19851Y210801D01*
X19469Y210811D01*
Y212811D01*
X19851Y212821D01*
X20193Y212851D01*
X20495Y212901D01*
X20756Y212971D01*
X20978Y213061D01*
X21159Y213171D01*
X21300Y213301D01*
X21400Y213451D01*
X21461Y213621D01*
X21481Y213811D01*
Y209811D01*
D02*
G37*
G36*
X-1953Y218307D02*
X-1843Y217895D01*
X-1675Y217462D01*
X-1450Y217007D01*
X-1168Y216530D01*
X-829Y216031D01*
X-432Y215510D01*
X533Y214403D01*
X1101Y213817D01*
X-313Y212403D01*
X-899Y212971D01*
X-2006Y213936D01*
X-2527Y214333D01*
X-3026Y214672D01*
X-3503Y214954D01*
X-3537Y214971D01*
X-3549Y214935D01*
X-3687Y214399D01*
X-3799Y213806D01*
X-3887Y213157D01*
X-3987Y211692D01*
X-4000Y210876D01*
X-6000D01*
X-6013Y211692D01*
X-6113Y213157D01*
X-6200Y213806D01*
X-6313Y214399D01*
X-6451Y214935D01*
X-6614Y215416D01*
X-6802Y215841D01*
X-7015Y216210D01*
X-7253Y216523D01*
X-4179D01*
X-2006Y218696D01*
X-1953Y218307D01*
D02*
G37*
G36*
X14347Y269273D02*
X14401Y269235D01*
X14480Y269201D01*
X14584Y269172D01*
X14711Y269147D01*
X14862Y269127D01*
X15238Y269099D01*
X15710Y269091D01*
Y267091D01*
X15461Y267088D01*
X14711Y267034D01*
X14584Y267009D01*
X14480Y266980D01*
X14401Y266946D01*
X14347Y266908D01*
X14316Y266865D01*
Y269316D01*
X14347Y269273D01*
D02*
G37*
G36*
X-10383Y268785D02*
X-10311Y268774D01*
X-10201Y268763D01*
X-9640Y268741D01*
X-8353Y268730D01*
Y267451D01*
X-10415Y267383D01*
Y268798D01*
X-10383Y268785D01*
D02*
G37*
G36*
X30768Y268496D02*
X30655Y268436D01*
X30556Y268336D01*
X30470Y268196D01*
X30398Y268016D01*
X30338Y267796D01*
X30292Y267536D01*
X30259Y267236D01*
X30232Y266516D01*
X28232D01*
X28226Y266896D01*
X28173Y267536D01*
X28126Y267796D01*
X28067Y268016D01*
X27994Y268196D01*
X27908Y268336D01*
X27809Y268436D01*
X27697Y268496D01*
X27571Y268516D01*
X30893D01*
X30768Y268496D01*
D02*
G37*
G36*
X-14316Y266865D02*
X-14353Y266908D01*
X-14428Y266946D01*
X-14540Y266980D01*
X-14690Y267009D01*
X-14877Y267034D01*
X-15363Y267070D01*
X-16373Y267091D01*
Y269091D01*
X-15999Y269093D01*
X-14690Y269172D01*
X-14540Y269201D01*
X-14428Y269235D01*
X-14353Y269273D01*
X-14316Y269316D01*
Y266865D01*
D02*
G37*
G36*
X6194Y270970D02*
X4872Y269618D01*
X3937Y270553D01*
X3956Y270566D01*
X4000Y270606D01*
X5038Y271624D01*
X5289Y271875D01*
X6194Y270970D01*
D02*
G37*
G36*
X19894Y270878D02*
X19874Y270985D01*
X19814Y271081D01*
X19714Y271165D01*
X19574Y271238D01*
X19394Y271300D01*
X19174Y271351D01*
X18914Y271390D01*
X18614Y271418D01*
X17894Y271441D01*
Y273441D01*
X18274Y273446D01*
X18914Y273492D01*
X19174Y273531D01*
X19394Y273582D01*
X19574Y273643D01*
X19714Y273717D01*
X19814Y273801D01*
X19874Y273897D01*
X19894Y274004D01*
Y270878D01*
D02*
G37*
G36*
X-7876Y268772D02*
X-7855Y268763D01*
X-7820Y268755D01*
X-7771Y268749D01*
X-7630Y268738D01*
X-7180Y268730D01*
Y267451D01*
X-7314Y267450D01*
X-7855Y267418D01*
X-7876Y267409D01*
X-7883Y267400D01*
Y268781D01*
X-7876Y268772D01*
D02*
G37*
G36*
X-39688Y271039D02*
X-39710Y270943D01*
X-39729Y270802D01*
X-39759Y270386D01*
X-39791Y268562D01*
X-41791D01*
X-41917Y271090D01*
X-39664D01*
X-39688Y271039D01*
D02*
G37*
G36*
X4881Y262034D02*
X4909Y261716D01*
X4955Y261436D01*
X5020Y261193D01*
X5103Y260987D01*
X5204Y260819D01*
X5324Y260688D01*
X5463Y260594D01*
X5620Y260538D01*
X5795Y260520D01*
X2079D01*
X2254Y260538D01*
X2411Y260594D01*
X2550Y260688D01*
X2670Y260819D01*
X2771Y260987D01*
X2854Y261193D01*
X2919Y261436D01*
X2965Y261716D01*
X2993Y262034D01*
X3002Y262390D01*
X4872D01*
X4881Y262034D01*
D02*
G37*
G36*
X39233Y264756D02*
X39120Y264696D01*
X39021Y264596D01*
X38935Y264456D01*
X38862Y264276D01*
X38803Y264056D01*
X38756Y263796D01*
X38723Y263496D01*
X38697Y262776D01*
X36697D01*
X36690Y263156D01*
X36637Y263796D01*
X36591Y264056D01*
X36531Y264276D01*
X36459Y264456D01*
X36373Y264596D01*
X36274Y264696D01*
X36161Y264756D01*
X36036Y264776D01*
X39358D01*
X39233Y264756D01*
D02*
G37*
G36*
X-768Y255223D02*
X-907Y255170D01*
X-1029Y255082D01*
X-1134Y254959D01*
X-1224Y254801D01*
X-1297Y254607D01*
X-1354Y254378D01*
X-1395Y254114D01*
X-1419Y253815D01*
X-1427Y253480D01*
X-3297D01*
X-3305Y253815D01*
X-3330Y254114D01*
X-3370Y254378D01*
X-3427Y254607D01*
X-3500Y254801D01*
X-3590Y254959D01*
X-3696Y255082D01*
X-3818Y255170D01*
X-3956Y255223D01*
X-4110Y255241D01*
X-614D01*
X-768Y255223D01*
D02*
G37*
G36*
X22663Y258892D02*
X22693Y258552D01*
X22743Y258252D01*
X22814Y257992D01*
X22904Y257771D01*
X23013Y257592D01*
X23144Y257452D01*
X23293Y257351D01*
X23463Y257292D01*
X23653Y257272D01*
X19654D01*
X19843Y257292D01*
X20013Y257351D01*
X20164Y257452D01*
X20293Y257592D01*
X20403Y257771D01*
X20493Y257992D01*
X20563Y258252D01*
X20614Y258552D01*
X20643Y258892D01*
X20653Y259272D01*
X22654D01*
X22663Y258892D01*
D02*
G37*
G36*
X35017Y267405D02*
X35048Y267325D01*
X35094Y267236D01*
X35154Y267139D01*
X35229Y267032D01*
X35424Y266791D01*
X35652Y266543D01*
X36029Y266564D01*
X36036Y266571D01*
Y266560D01*
X36692Y266602D01*
X36821Y266627D01*
X36927Y266654D01*
X37009Y266686D01*
X37067Y266721D01*
Y265169D01*
X37009Y265204D01*
X36927Y265235D01*
X36821Y265263D01*
X36692Y265287D01*
X36360Y265325D01*
X36036Y265342D01*
Y265319D01*
X36029Y265325D01*
X36011Y265332D01*
X35979Y265337D01*
X35935Y265341D01*
X35770Y265349D01*
X35409Y265354D01*
Y265945D01*
X34992Y265527D01*
X34840Y265676D01*
X34322Y266125D01*
X34216Y266200D01*
X34118Y266261D01*
X34029Y266306D01*
X33950Y266337D01*
X33879Y266353D01*
X35001Y267475D01*
X35017Y267405D01*
D02*
G37*
G36*
X-25398Y269920D02*
X-25337Y269750D01*
X-25237Y269600D01*
X-25096Y269470D01*
X-24915Y269360D01*
X-24693Y269270D01*
X-24432Y269200D01*
X-24130Y269150D01*
X-23788Y269120D01*
X-23406Y269110D01*
Y267110D01*
X-23788Y267100D01*
X-24130Y267070D01*
X-24432Y267020D01*
X-24693Y266950D01*
X-24915Y266860D01*
X-25096Y266750D01*
X-25237Y266620D01*
X-25337Y266470D01*
X-25398Y266300D01*
X-25418Y266110D01*
Y270110D01*
X-25398Y269920D01*
D02*
G37*
G36*
X19894Y265366D02*
X23413D01*
X23269Y265346D01*
X23140Y265286D01*
X23026Y265186D01*
X22927Y265046D01*
X22843Y264866D01*
X22775Y264646D01*
X22722Y264386D01*
X22684Y264086D01*
X22661Y263746D01*
X22654Y263366D01*
X20653D01*
X20646Y263746D01*
X20585Y264386D01*
X20532Y264646D01*
X20463Y264866D01*
X20380Y265046D01*
X20281Y265186D01*
X20167Y265286D01*
X20038Y265346D01*
X19894Y265366D01*
X19874Y265473D01*
X19814Y265569D01*
X19714Y265653D01*
X19574Y265726D01*
X19394Y265788D01*
X19174Y265839D01*
X18914Y265879D01*
X18614Y265907D01*
X17894Y265929D01*
Y267929D01*
X18274Y267935D01*
X18914Y267980D01*
X19174Y268019D01*
X19394Y268070D01*
X19574Y268132D01*
X19714Y268205D01*
X19814Y268289D01*
X19874Y268385D01*
X19894Y268492D01*
Y265366D01*
D02*
G37*
G36*
X-25749Y265949D02*
X-25919Y265889D01*
X-26069Y265788D01*
X-26199Y265647D01*
X-26309Y265466D01*
X-26399Y265245D01*
X-26469Y264983D01*
X-26519Y264681D01*
X-26549Y264339D01*
X-26559Y263957D01*
X-28559D01*
X-28569Y264339D01*
X-28599Y264681D01*
X-28649Y264983D01*
X-28719Y265245D01*
X-28809Y265466D01*
X-28919Y265647D01*
X-29049Y265788D01*
X-29199Y265889D01*
X-29369Y265949D01*
X-29559Y265969D01*
X-25559D01*
X-25749Y265949D01*
D02*
G37*
G36*
X17323Y205587D02*
X17358Y205488D01*
X17417Y205401D01*
X17500Y205326D01*
X17606Y205263D01*
X17736Y205211D01*
X17889Y205170D01*
X18067Y205141D01*
X18268Y205124D01*
X18492Y205118D01*
Y203937D01*
X18268Y203931D01*
X18067Y203914D01*
X17889Y203885D01*
X17736Y203844D01*
X17606Y203792D01*
X17500Y203729D01*
X17417Y203654D01*
X17358Y203567D01*
X17323Y203468D01*
X17311Y203358D01*
Y205697D01*
X17323Y205587D01*
D02*
G37*
G36*
X6376Y180404D02*
X6997Y179864D01*
X7124Y179774D01*
X7239Y179702D01*
X7343Y179649D01*
X7435Y179614D01*
X7515Y179597D01*
X6415Y178496D01*
X6398Y178577D01*
X6363Y178669D01*
X6309Y178773D01*
X6238Y178888D01*
X6148Y179015D01*
X5914Y179302D01*
X5607Y179636D01*
X5427Y179820D01*
X6192Y180585D01*
X6376Y180404D01*
D02*
G37*
G36*
X-19492Y184093D02*
X-19432Y183923D01*
X-19331Y183774D01*
X-19190Y183643D01*
X-19009Y183534D01*
X-18788Y183443D01*
X-18526Y183373D01*
X-18225Y183324D01*
X-17883Y183293D01*
X-17500Y183283D01*
Y181283D01*
X-17883Y181273D01*
X-18225Y181244D01*
X-18526Y181193D01*
X-18788Y181123D01*
X-19009Y181034D01*
X-19190Y180923D01*
X-19331Y180793D01*
X-19432Y180643D01*
X-19492Y180473D01*
X-19512Y180283D01*
Y184283D01*
X-19492Y184093D01*
D02*
G37*
G36*
X-7907Y179625D02*
X-7845Y179620D01*
X-7199Y179607D01*
X-5917Y179602D01*
Y177602D01*
X-7929Y177575D01*
Y179630D01*
X-7907Y179625D01*
D02*
G37*
G36*
X8161Y179286D02*
X8250Y179256D01*
X8375Y179229D01*
X8536Y179207D01*
X8965Y179172D01*
X9875Y179145D01*
X10250Y179144D01*
Y178061D01*
X9875Y178059D01*
X8250Y177949D01*
X8161Y177919D01*
X8107Y177886D01*
Y179319D01*
X8161Y179286D01*
D02*
G37*
G36*
X38914Y185750D02*
X38910Y185687D01*
X38898Y183756D01*
X37521D01*
X37502Y185774D01*
X38917D01*
X38914Y185750D01*
D02*
G37*
G36*
X19910Y188210D02*
X20645Y187587D01*
X20970Y187360D01*
X21266Y187189D01*
X21534Y187074D01*
X21773Y187016D01*
X21984Y187015D01*
X22166Y187069D01*
X22319Y187181D01*
X19512Y184373D01*
X19623Y184527D01*
X19678Y184709D01*
X19676Y184920D01*
X19618Y185159D01*
X19504Y185426D01*
X19333Y185723D01*
X19106Y186047D01*
X18822Y186401D01*
X18086Y187193D01*
X19500Y188607D01*
X19910Y188210D01*
D02*
G37*
G36*
X-23795Y180283D02*
X-23815Y180473D01*
X-23875Y180643D01*
X-23976Y180793D01*
X-24117Y180923D01*
X-24298Y181034D01*
X-24519Y181123D01*
X-24781Y181193D01*
X-25083Y181244D01*
X-25425Y181273D01*
X-25807Y181283D01*
Y181435D01*
X-26177Y181051D01*
X-27042Y180040D01*
X-27400Y179553D01*
X-27709Y179078D01*
X-27968Y178617D01*
X-28177Y178168D01*
X-28337Y177733D01*
X-28447Y177309D01*
X-28508Y176899D01*
X-31762Y180154D01*
X-31352Y180214D01*
X-30929Y180325D01*
X-30493Y180484D01*
X-30044Y180694D01*
X-29583Y180953D01*
X-29109Y181261D01*
X-28622Y181619D01*
X-27610Y182484D01*
X-27085Y182991D01*
X-25807Y181712D01*
Y183283D01*
X-25425Y183293D01*
X-25083Y183324D01*
X-24781Y183373D01*
X-24519Y183443D01*
X-24298Y183534D01*
X-24117Y183643D01*
X-23976Y183774D01*
X-23875Y183923D01*
X-23815Y184093D01*
X-23795Y184283D01*
Y180283D01*
D02*
G37*
G36*
X23814Y186193D02*
X23872Y185994D01*
X23967Y185802D01*
X24100Y185617D01*
X24271Y185441D01*
X24480Y185272D01*
X24726Y185112D01*
X25011Y184959D01*
X25333Y184813D01*
X25693Y184676D01*
X25577Y182596D01*
X25411Y182651D01*
X25072Y182744D01*
X24899Y182782D01*
X24364Y182860D01*
X24181Y182874D01*
X23807Y182886D01*
X23795Y186401D01*
X23814Y186193D01*
D02*
G37*
G36*
X26247Y18317D02*
X26130Y18275D01*
X26026Y18206D01*
X25937Y18109D01*
X25861Y17984D01*
X25799Y17831D01*
X25751Y17650D01*
X25716Y17441D01*
X25695Y17205D01*
X25689Y16941D01*
X24311D01*
X24304Y17205D01*
X24283Y17441D01*
X24249Y17650D01*
X24200Y17831D01*
X24138Y17984D01*
X24063Y18109D01*
X23973Y18206D01*
X23870Y18275D01*
X23753Y18317D01*
X23622Y18331D01*
X26378D01*
X26247Y18317D01*
D02*
G37*
G36*
X22649Y18319D02*
X22636Y18448D01*
X22594Y18563D01*
X22525Y18664D01*
X22429Y18752D01*
X22305Y18827D01*
X22153Y18888D01*
X21974Y18935D01*
X21768Y18969D01*
X21533Y18989D01*
X21498Y18990D01*
X20116Y18977D01*
Y20392D01*
X20140Y20389D01*
X20203Y20386D01*
X21437Y20378D01*
X21533Y20381D01*
X21768Y20401D01*
X21974Y20435D01*
X22153Y20482D01*
X22305Y20543D01*
X22429Y20618D01*
X22525Y20706D01*
X22594Y20807D01*
X22636Y20922D01*
X22649Y21051D01*
Y18319D01*
D02*
G37*
G36*
X26560Y11084D02*
X27490Y10298D01*
X27743Y10132D01*
X27968Y10013D01*
X28163Y9942D01*
X28331Y9919D01*
X28470Y9943D01*
X28580Y10016D01*
X26205Y7641D01*
X26277Y7751D01*
X26302Y7890D01*
X26278Y8057D01*
X26208Y8253D01*
X26205Y8258D01*
Y5874D01*
X26185Y6064D01*
X26125Y6234D01*
X26024Y6384D01*
X25883Y6514D01*
X25702Y6624D01*
X25481Y6714D01*
X25219Y6784D01*
X24917Y6834D01*
X24575Y6864D01*
X24193Y6874D01*
Y8874D01*
X24575Y8884D01*
X24917Y8914D01*
X25219Y8964D01*
X25481Y9034D01*
X25634Y9096D01*
X25136Y9660D01*
X24779Y10028D01*
X26193Y11442D01*
X26560Y11084D01*
D02*
G37*
G36*
X25707Y11928D02*
X24292D01*
X24296Y11951D01*
X24299Y12014D01*
X24311Y13946D01*
X25689D01*
X25707Y11928D01*
D02*
G37*
G36*
X32812Y169685D02*
X31953Y168788D01*
X30489Y167019D01*
X29884Y166147D01*
X29365Y165285D01*
X28930Y164431D01*
X28580Y163585D01*
X28316Y162749D01*
X28136Y161921D01*
X28041Y161102D01*
X22814Y166328D01*
X23633Y166423D01*
X24461Y166603D01*
X25298Y166868D01*
X26143Y167218D01*
X26997Y167652D01*
X27860Y168172D01*
X28731Y168776D01*
X29612Y169466D01*
X31398Y171099D01*
X32812Y169685D01*
D02*
G37*
G36*
X34356Y174998D02*
X34239Y174957D01*
X34136Y174888D01*
X34047Y174792D01*
X33971Y174668D01*
X33909Y174516D01*
X33860Y174337D01*
X33826Y174130D01*
X33805Y173896D01*
X33802Y173760D01*
X33817Y172104D01*
X32402D01*
X32405Y172127D01*
X32409Y172190D01*
X32418Y173726D01*
X32414Y173896D01*
X32393Y174130D01*
X32359Y174337D01*
X32310Y174516D01*
X32248Y174668D01*
X32172Y174792D01*
X32083Y174888D01*
X31980Y174957D01*
X31862Y174998D01*
X31732Y175012D01*
X34487D01*
X34356Y174998D01*
D02*
G37*
G36*
X-7370Y36382D02*
X-5601Y34918D01*
X-4730Y34313D01*
X-3867Y33794D01*
X-3013Y33359D01*
X-2168Y33010D01*
X-1331Y32745D01*
X-504Y32565D01*
X316Y32470D01*
X-4911Y27244D01*
X-5006Y28063D01*
X-5186Y28891D01*
X-5450Y29727D01*
X-5800Y30573D01*
X-6235Y31427D01*
X-6754Y32289D01*
X-7359Y33161D01*
X-8048Y34041D01*
X-9682Y35827D01*
X-8268Y37241D01*
X-7370Y36382D01*
D02*
G37*
G36*
X38912Y88419D02*
X38954Y88185D01*
X39022Y87978D01*
X39119Y87799D01*
X39243Y87648D01*
X39395Y87524D01*
X39574Y87427D01*
X39780Y87358D01*
X40015Y87317D01*
X40276Y87303D01*
X38209Y85925D01*
X37442Y86437D01*
Y85925D01*
X37010Y85921D01*
X35634Y85816D01*
X35377Y85768D01*
X35156Y85711D01*
X34969Y85645D01*
X34817Y85571D01*
X34700Y85488D01*
Y87741D01*
X34817Y87657D01*
X34969Y87583D01*
X35156Y87517D01*
X35377Y87461D01*
X35634Y87413D01*
X36252Y87343D01*
X36488Y87332D01*
X36639Y87358D01*
X36845Y87427D01*
X37024Y87524D01*
X37176Y87648D01*
X37300Y87799D01*
X37396Y87978D01*
X37465Y88185D01*
X37507Y88419D01*
X37521Y88681D01*
X38898D01*
X38912Y88419D01*
D02*
G37*
G36*
X-39664Y198171D02*
X-41917D01*
X-41893Y198222D01*
X-41872Y198318D01*
X-41853Y198459D01*
X-41822Y198875D01*
X-41791Y200698D01*
X-39791D01*
X-39664Y198171D01*
D02*
G37*
G36*
X-5012Y201924D02*
X-4952Y201896D01*
X-4852Y201870D01*
X-4712Y201848D01*
X-4532Y201830D01*
X-3752Y201794D01*
X-3032Y201787D01*
Y199787D01*
X-3412Y199786D01*
X-4952Y199679D01*
X-5012Y199651D01*
X-5032Y199618D01*
Y201957D01*
X-5012Y201924D01*
D02*
G37*
G36*
X24703Y196340D02*
X24661Y196362D01*
X24581Y196382D01*
X24464Y196399D01*
X24119Y196428D01*
X22980Y196456D01*
X22602Y196457D01*
Y197638D01*
X22980Y197639D01*
X24661Y197733D01*
X24703Y197755D01*
Y196340D01*
D02*
G37*
G36*
X-19968Y195878D02*
X-19980Y195988D01*
X-20016Y196087D01*
X-20075Y196173D01*
X-20157Y196248D01*
X-20264Y196312D01*
X-20393Y196364D01*
X-20547Y196405D01*
X-20724Y196434D01*
X-20831Y196443D01*
X-22283Y196362D01*
X-22325Y196340D01*
Y197755D01*
X-22283Y197733D01*
X-22203Y197713D01*
X-22087Y197695D01*
X-21741Y197667D01*
X-20895Y197646D01*
X-20724Y197661D01*
X-20547Y197690D01*
X-20393Y197730D01*
X-20264Y197783D01*
X-20157Y197846D01*
X-20075Y197921D01*
X-20016Y198008D01*
X-19980Y198107D01*
X-19968Y198216D01*
Y195878D01*
D02*
G37*
G36*
X-16122Y203359D02*
X-16222Y203323D01*
X-16311Y203263D01*
X-16387Y203180D01*
X-16452Y203072D01*
X-16506Y202941D01*
X-16547Y202786D01*
X-16576Y202607D01*
X-16594Y202404D01*
X-16600Y202177D01*
X-17781D01*
X-17787Y202404D01*
X-17805Y202607D01*
X-17834Y202786D01*
X-17876Y202941D01*
X-17929Y203072D01*
X-17994Y203180D01*
X-18070Y203263D01*
X-18159Y203323D01*
X-18259Y203359D01*
X-18372Y203370D01*
X-16010D01*
X-16122Y203359D01*
D02*
G37*
G36*
X-14272Y205587D02*
X-14236Y205488D01*
X-14177Y205401D01*
X-14095Y205326D01*
X-13988Y205263D01*
X-13858Y205211D01*
X-13705Y205170D01*
X-13528Y205141D01*
X-13327Y205124D01*
X-13103Y205118D01*
Y203937D01*
X-13327Y203931D01*
X-13528Y203914D01*
X-13705Y203885D01*
X-13858Y203844D01*
X-13988Y203792D01*
X-14095Y203729D01*
X-14177Y203654D01*
X-14236Y203567D01*
X-14272Y203468D01*
X-14284Y203358D01*
Y205697D01*
X-14272Y205587D01*
D02*
G37*
G36*
X2374Y199618D02*
X2354Y199651D01*
X2294Y199679D01*
X2194Y199705D01*
X2054Y199727D01*
X1874Y199745D01*
X1094Y199781D01*
X374Y199787D01*
Y201787D01*
X754Y201789D01*
X2294Y201896D01*
X2354Y201924D01*
X2374Y201957D01*
Y199618D01*
D02*
G37*
G36*
X4534Y204252D02*
X4443Y204083D01*
X4363Y203883D01*
X4293Y203651D01*
X4234Y203388D01*
X4186Y203093D01*
X4140Y202609D01*
X4153Y202531D01*
X4194Y202376D01*
X4248Y202244D01*
X4313Y202137D01*
X4389Y202053D01*
X4478Y201993D01*
X4578Y201957D01*
X4691Y201945D01*
X4172Y201947D01*
X4195Y201536D01*
X4195Y201536D01*
X4243Y201512D01*
X4326Y201481D01*
X4421Y201453D01*
X4526Y201430D01*
X4642Y201412D01*
X4907Y201386D01*
X5216Y201378D01*
Y200197D01*
X5056Y200195D01*
X4642Y200164D01*
X4526Y200145D01*
X4421Y200122D01*
X4326Y200094D01*
X4243Y200063D01*
X4171Y200027D01*
X4110Y199988D01*
Y201494D01*
X2802D01*
X2824Y201536D01*
X2844Y201616D01*
X2862Y201732D01*
X2880Y201954D01*
X2374Y201957D01*
X2478Y201968D01*
X2570Y202004D01*
X2652Y202063D01*
X2723Y202146D01*
X2783Y202252D01*
X2832Y202382D01*
X2870Y202535D01*
X2873Y202558D01*
X2833Y203093D01*
X2785Y203388D01*
X2726Y203651D01*
X2656Y203883D01*
X2576Y204083D01*
X2485Y204252D01*
X2383Y204390D01*
X4636D01*
X4534Y204252D01*
D02*
G37*
G36*
X12761Y189625D02*
X12819Y189620D01*
X13213Y189609D01*
X14609Y189602D01*
Y187602D01*
X12740Y187575D01*
Y189630D01*
X12761Y189625D01*
D02*
G37*
G36*
X6485Y190722D02*
X6457Y190635D01*
X6432Y190512D01*
X6411Y190352D01*
X6377Y189926D01*
X6351Y188639D01*
X5268D01*
X5266Y189015D01*
X5162Y190635D01*
X5133Y190722D01*
X5102Y190774D01*
X6517D01*
X6485Y190722D01*
D02*
G37*
G36*
X29970Y189705D02*
X29934Y189586D01*
X29902Y189426D01*
X29875Y189225D01*
X29832Y188699D01*
X29798Y187153D01*
X28420Y186832D01*
X28414Y187243D01*
X28361Y187977D01*
X28315Y188299D01*
X28256Y188591D01*
X28183Y188854D01*
X28097Y189087D01*
X27998Y189290D01*
X27886Y189464D01*
X27761Y189608D01*
X30011Y189782D01*
X29970Y189705D01*
D02*
G37*
G36*
X35726Y190523D02*
X35778Y190440D01*
X35864Y190327D01*
X36137Y190012D01*
X37404Y188700D01*
X35990Y187286D01*
X34113Y188983D01*
X35706Y190577D01*
X35726Y190523D01*
D02*
G37*
G36*
X11626Y195878D02*
X11614Y195988D01*
X11579Y196087D01*
X11520Y196173D01*
X11437Y196248D01*
X11331Y196312D01*
X11201Y196364D01*
X11047Y196405D01*
X10870Y196434D01*
X10669Y196451D01*
X10445Y196457D01*
Y197638D01*
X10669Y197644D01*
X10870Y197661D01*
X11047Y197690D01*
X11201Y197730D01*
X11331Y197783D01*
X11437Y197846D01*
X11520Y197921D01*
X11579Y198008D01*
X11614Y198107D01*
X11626Y198216D01*
Y195878D01*
D02*
G37*
G36*
X17323Y198107D02*
X17358Y198008D01*
X17417Y197921D01*
X17500Y197846D01*
X17606Y197783D01*
X17736Y197730D01*
X17889Y197690D01*
X18067Y197661D01*
X18268Y197644D01*
X18492Y197638D01*
Y196457D01*
X18268Y196451D01*
X18067Y196434D01*
X17889Y196405D01*
X17736Y196364D01*
X17606Y196312D01*
X17500Y196248D01*
X17417Y196173D01*
X17358Y196087D01*
X17323Y195988D01*
X17311Y195878D01*
Y198216D01*
X17323Y198107D01*
D02*
G37*
G36*
X-11744Y190551D02*
X-11728Y190356D01*
X-11700Y190186D01*
X-11663Y190040D01*
X-11614Y189918D01*
X-11554Y189821D01*
X-11484Y189748D01*
X-11403Y189700D01*
X-11311Y189676D01*
X-11208Y189676D01*
X-12798Y189490D01*
X-12805Y189488D01*
X-12810Y189515D01*
X-12815Y189571D01*
X-12826Y189912D01*
X-12832Y190771D01*
X-11749D01*
X-11744Y190551D01*
D02*
G37*
G36*
X5058Y195168D02*
X4765Y194867D01*
X4064Y194052D01*
X3890Y193810D01*
X3745Y193582D01*
X3631Y193369D01*
X3546Y193170D01*
X3491Y192987D01*
X3465Y192817D01*
X1872Y194410D01*
X2042Y194436D01*
X2225Y194491D01*
X2424Y194576D01*
X2637Y194690D01*
X2865Y194834D01*
X3107Y195009D01*
X3636Y195446D01*
X3922Y195710D01*
X4223Y196003D01*
X5058Y195168D01*
D02*
G37*
G36*
X7236Y330760D02*
X4983D01*
X5007Y330811D01*
X5029Y330907D01*
X5048Y331048D01*
X5078Y331464D01*
X5109Y333288D01*
X7109D01*
X7236Y330760D01*
D02*
G37*
G36*
X-8830Y315867D02*
X-8730Y314402D01*
X-8642Y313753D01*
X-8529Y313160D01*
X-8392Y312624D01*
X-8229Y312143D01*
X-8041Y311718D01*
X-7828Y311349D01*
X-7590Y311036D01*
X-12095D01*
X-11857Y311349D01*
X-11644Y311718D01*
X-11456Y312143D01*
X-11294Y312624D01*
X-11156Y313160D01*
X-11043Y313753D01*
X-10955Y314402D01*
X-10855Y315867D01*
X-10842Y316684D01*
X-8843D01*
X-8830Y315867D01*
D02*
G37*
G36*
X2968Y362727D02*
X969Y362381D01*
X960Y362786D01*
X895Y363504D01*
X838Y363817D01*
X765Y364099D01*
X676Y364350D01*
X570Y364571D01*
X448Y364760D01*
X310Y364919D01*
X156Y365047D01*
X2368Y365644D01*
X2968Y362727D01*
D02*
G37*
G36*
X-3066Y363925D02*
X-2090Y363731D01*
X-1115Y363925D01*
X-833Y364114D01*
X-667Y364101D01*
X-333Y363981D01*
X-250Y363912D01*
X-210Y363800D01*
X-158Y363598D01*
X-116Y363367D01*
X-71Y362867D01*
Y338367D01*
X-512Y338132D01*
X-874Y338374D01*
X-1350Y338468D01*
Y336019D01*
Y333569D01*
X-874Y333664D01*
X-512Y333906D01*
X-71Y333670D01*
Y328421D01*
X84Y327641D01*
X527Y326979D01*
X22815Y304691D01*
X22780Y304534D01*
X22216Y304309D01*
X22023Y304438D01*
X21243Y304593D01*
X14327D01*
X13670Y304605D01*
X13323Y304630D01*
X12905Y304909D01*
X12019Y305086D01*
X11902Y305427D01*
X11888Y305583D01*
X12695Y306202D01*
X13336Y307038D01*
X13739Y308011D01*
X13877Y309055D01*
X13739Y310099D01*
X13336Y311072D01*
X12695Y311908D01*
X11860Y312549D01*
X10887Y312952D01*
X10233Y313038D01*
X10172Y313059D01*
X9847Y313104D01*
X9550Y313183D01*
X9211Y313314D01*
X8831Y313502D01*
X8415Y313748D01*
X7965Y314054D01*
X7493Y314413D01*
X6516Y315265D01*
X-4217Y325998D01*
Y334162D01*
X-3717Y334313D01*
X-3652Y334216D01*
X-2825Y333664D01*
X-2350Y333569D01*
Y336019D01*
Y338468D01*
X-2825Y338374D01*
X-3652Y337821D01*
X-3717Y337724D01*
X-4217Y337876D01*
Y364131D01*
X-3717Y364360D01*
X-3066Y363925D01*
D02*
G37*
G36*
X5742Y314588D02*
X6849Y313623D01*
X7369Y313226D01*
X7868Y312887D01*
X8345Y312604D01*
X8800Y312380D01*
X9234Y312212D01*
X9645Y312102D01*
X10035Y312049D01*
X6849Y308863D01*
X6796Y309252D01*
X6685Y309664D01*
X6518Y310097D01*
X6293Y310552D01*
X6011Y311029D01*
X5672Y311528D01*
X5275Y312049D01*
X4310Y313156D01*
X3741Y313742D01*
X5155Y315156D01*
X5742Y314588D01*
D02*
G37*
G36*
X12971Y303657D02*
X13068Y303635D01*
X13208Y303616D01*
X13624Y303586D01*
X15448Y303554D01*
Y301554D01*
X12920Y301428D01*
Y303681D01*
X12971Y303657D01*
D02*
G37*
G36*
X-15574Y298656D02*
X-15493Y298640D01*
X-15372Y298626D01*
X-15008Y298604D01*
X-13390Y298580D01*
Y296580D01*
X-15614Y296486D01*
Y298674D01*
X-15574Y298656D01*
D02*
G37*
G36*
X-24194Y305083D02*
X-24248Y305064D01*
X-24331Y305012D01*
X-24443Y304925D01*
X-24759Y304653D01*
X-26071Y303386D01*
X-27485Y304800D01*
X-25787Y306677D01*
X-24194Y305083D01*
D02*
G37*
G36*
X-6796Y308858D02*
X-6685Y308446D01*
X-6518Y308013D01*
X-6293Y307558D01*
X-6011Y307081D01*
X-5672Y306582D01*
X-5275Y306061D01*
X-4310Y304954D01*
X-3741Y304368D01*
X-5156Y302954D01*
X-5742Y303522D01*
X-6849Y304488D01*
X-7369Y304884D01*
X-7868Y305224D01*
X-8345Y305506D01*
X-8800Y305731D01*
X-9234Y305898D01*
X-9645Y306008D01*
X-10035Y306061D01*
X-6849Y309247D01*
X-6796Y308858D01*
D02*
G37*
G36*
X426Y402823D02*
X478Y402740D01*
X564Y402627D01*
X837Y402312D01*
X2104Y401000D01*
X690Y399586D01*
X-1187Y401283D01*
X406Y402877D01*
X426Y402823D01*
D02*
G37*
G36*
X24545Y398480D02*
X24494Y398504D01*
X24398Y398525D01*
X24257Y398544D01*
X23841Y398575D01*
X22017Y398606D01*
Y400606D01*
X24545Y400733D01*
Y398480D01*
D02*
G37*
G36*
X5742Y422856D02*
X6849Y421891D01*
X7369Y421494D01*
X7868Y421155D01*
X8345Y420872D01*
X8800Y420648D01*
X9234Y420480D01*
X9645Y420370D01*
X10035Y420317D01*
X7041Y417323D01*
X10035Y414329D01*
X9645Y414276D01*
X9234Y414166D01*
X8800Y413999D01*
X8345Y413774D01*
X7868Y413492D01*
X7369Y413152D01*
X6849Y412756D01*
X5742Y411790D01*
X5155Y411222D01*
X3741Y412636D01*
X4310Y413222D01*
X5275Y414329D01*
X5672Y414850D01*
X6011Y415349D01*
X6293Y415826D01*
X6518Y416281D01*
X6685Y416714D01*
X6796Y417126D01*
X6822Y417323D01*
X6796Y417520D01*
X6685Y417932D01*
X6518Y418365D01*
X6293Y418820D01*
X6011Y419297D01*
X5672Y419796D01*
X5275Y420317D01*
X4310Y421424D01*
X3741Y422010D01*
X5155Y423424D01*
X5742Y422856D01*
D02*
G37*
G36*
X-7828Y415029D02*
X-8041Y414660D01*
X-8229Y414235D01*
X-8392Y413755D01*
X-8529Y413218D01*
X-8642Y412625D01*
X-8730Y411976D01*
X-8830Y410511D01*
X-8843Y409695D01*
X-10842D01*
X-10855Y410511D01*
X-10955Y411976D01*
X-11043Y412625D01*
X-11156Y413218D01*
X-11294Y413755D01*
X-11456Y414235D01*
X-11644Y414660D01*
X-11857Y415029D01*
X-12095Y415342D01*
X-7590D01*
X-7828Y415029D01*
D02*
G37*
G36*
X45719Y465994D02*
Y286932D01*
X45219Y286883D01*
X45164Y287156D01*
X44941Y287490D01*
X44849Y289333D01*
Y292180D01*
X44849Y292180D01*
X44693Y292961D01*
X44251Y293622D01*
X44251Y293622D01*
X32051Y305822D01*
X31390Y306264D01*
X30609Y306419D01*
X30057D01*
X29585Y306735D01*
X28609Y306929D01*
X27634Y306735D01*
X26879Y306231D01*
X26551Y306722D01*
X26551Y306722D01*
X6487Y326786D01*
X6652Y327328D01*
X7085Y327415D01*
X7912Y327967D01*
X8464Y328794D01*
X8658Y329769D01*
X8464Y330745D01*
X8241Y331080D01*
X8149Y332922D01*
Y379480D01*
X7993Y380261D01*
X7551Y380922D01*
X4101Y384373D01*
X4129Y384630D01*
X4659Y384878D01*
X4737Y384825D01*
X5713Y384631D01*
X6688Y384825D01*
X7515Y385378D01*
X8068Y386205D01*
X8146Y386599D01*
X9384Y387967D01*
X18983Y397567D01*
X23138D01*
X23795Y397556D01*
X24142Y397530D01*
X24560Y397251D01*
X25536Y397057D01*
X26511Y397251D01*
X27338Y397804D01*
X27890Y398631D01*
X28084Y399606D01*
X27890Y400582D01*
X27338Y401409D01*
X26511Y401961D01*
X25536Y402155D01*
X24560Y401961D01*
X24225Y401738D01*
X22383Y401646D01*
X18139D01*
X17358Y401490D01*
X16697Y401048D01*
X5966Y390317D01*
X5493Y389861D01*
X5230Y389633D01*
X4737Y389535D01*
X4390Y389303D01*
X3949Y389539D01*
Y399780D01*
X3793Y400561D01*
X3351Y401222D01*
X2046Y402527D01*
X1590Y403000D01*
X1362Y403263D01*
X1264Y403756D01*
X712Y404583D01*
X649Y404625D01*
X637Y405234D01*
X6516Y411113D01*
X7493Y411965D01*
X7965Y412324D01*
X8415Y412630D01*
X8831Y412877D01*
X9211Y413064D01*
X9550Y413195D01*
X9847Y413275D01*
X10172Y413319D01*
X10233Y413340D01*
X10887Y413426D01*
X11860Y413829D01*
X12695Y414470D01*
X13336Y415306D01*
X13739Y416279D01*
X13877Y417323D01*
X13739Y418367D01*
X13336Y419340D01*
X12695Y420176D01*
X11860Y420817D01*
X10887Y421220D01*
X10233Y421306D01*
X10172Y421327D01*
X9847Y421372D01*
X9550Y421451D01*
X9211Y421582D01*
X8831Y421770D01*
X8415Y422016D01*
X7965Y422322D01*
X7493Y422681D01*
X6516Y423533D01*
X5427Y424622D01*
X4766Y425064D01*
X3985Y425219D01*
X-31591D01*
X-32371Y425064D01*
X-33033Y424622D01*
X-38133Y419522D01*
X-38574Y418861D01*
X-38730Y418080D01*
Y370584D01*
X-38741Y369927D01*
X-38767Y369580D01*
X-39046Y369162D01*
X-39239Y368187D01*
X-39046Y367211D01*
X-38493Y366384D01*
X-37666Y365832D01*
X-36691Y365638D01*
X-35715Y365832D01*
X-34888Y366384D01*
X-34336Y367211D01*
X-34142Y368187D01*
X-34336Y369162D01*
X-34559Y369497D01*
X-34651Y371339D01*
Y417236D01*
X-30746Y421141D01*
X-12259D01*
X-12089Y420641D01*
X-12695Y420176D01*
X-13337Y419340D01*
X-13740Y418367D01*
X-13877Y417323D01*
X-13740Y416279D01*
X-13337Y415306D01*
X-12935Y414783D01*
X-12907Y414725D01*
X-12708Y414463D01*
X-12555Y414198D01*
X-12408Y413865D01*
X-12272Y413464D01*
X-12151Y412995D01*
X-12050Y412461D01*
X-11970Y411873D01*
X-11882Y410580D01*
Y356315D01*
X-19701D01*
Y348409D01*
X-11882D01*
Y315799D01*
X-11970Y314505D01*
X-12050Y313917D01*
X-12151Y313383D01*
X-12272Y312914D01*
X-12408Y312513D01*
X-12555Y312180D01*
X-12708Y311915D01*
X-12907Y311653D01*
X-12935Y311595D01*
X-13337Y311072D01*
X-13364Y311005D01*
X-13696Y310939D01*
X-14358Y310497D01*
X-33233Y291622D01*
X-33674Y290961D01*
X-33830Y290180D01*
Y252480D01*
X-33674Y251700D01*
X-33535Y251492D01*
Y251144D01*
X-33964Y250815D01*
X-34519Y250092D01*
X-34751Y249531D01*
X-35251Y249630D01*
Y292736D01*
X-24543Y303444D01*
X-24071Y303900D01*
X-23808Y304127D01*
X-23315Y304225D01*
X-22488Y304778D01*
X-21936Y305605D01*
X-21742Y306580D01*
X-21936Y307556D01*
X-22488Y308383D01*
X-23315Y308935D01*
X-24291Y309129D01*
X-25266Y308935D01*
X-26093Y308383D01*
X-26645Y307556D01*
X-26724Y307161D01*
X-27961Y305793D01*
X-38732Y295022D01*
X-39175Y294361D01*
X-39330Y293580D01*
Y274704D01*
X-39740Y274425D01*
X-39830Y274438D01*
X-40791Y274629D01*
X-41766Y274435D01*
X-42593Y273883D01*
X-43145Y273056D01*
X-43339Y272080D01*
X-43145Y271105D01*
X-42922Y270770D01*
X-42830Y268928D01*
Y199577D01*
X-42841Y198921D01*
X-42867Y198573D01*
X-43145Y198156D01*
X-43339Y197180D01*
X-43145Y196205D01*
X-42593Y195378D01*
X-41766Y194825D01*
X-40791Y194631D01*
X-39815Y194825D01*
X-38988Y195378D01*
X-38436Y196205D01*
X-38242Y197180D01*
X-38436Y198156D01*
X-38659Y198490D01*
X-38751Y200332D01*
Y208389D01*
X-38251Y208596D01*
X-37402Y207746D01*
X-37066Y207385D01*
X-36827Y207087D01*
X-36644Y206825D01*
X-36630Y206800D01*
Y203528D01*
X-30299D01*
Y209858D01*
X-33572D01*
X-33597Y209873D01*
X-33847Y210047D01*
X-34426Y210538D01*
X-35251Y211364D01*
Y213370D01*
X-29906D01*
Y219701D01*
X-30932D01*
X-30942Y219726D01*
X-30983Y219878D01*
X-31019Y220093D01*
X-31032Y220242D01*
Y220736D01*
X-30054Y221713D01*
X-29612Y222375D01*
X-29457Y223155D01*
Y224342D01*
X-29444Y224489D01*
X-29409Y224701D01*
X-29368Y224851D01*
X-29354Y224886D01*
X-28036D01*
Y228749D01*
X-28021Y228774D01*
X-27847Y229024D01*
X-27356Y229603D01*
X-25149Y231810D01*
X-24707Y232472D01*
X-24551Y233252D01*
X-24551Y233252D01*
Y235822D01*
X-24051Y235992D01*
X-23964Y235878D01*
X-23241Y235324D01*
X-22400Y234975D01*
X-21496Y234856D01*
X-20593Y234975D01*
X-19751Y235324D01*
X-19028Y235878D01*
X-18473Y236601D01*
X-18125Y237443D01*
X-18006Y238347D01*
X-18125Y239250D01*
X-18473Y240092D01*
X-19028Y240815D01*
X-19751Y241369D01*
X-20593Y241718D01*
X-21496Y241837D01*
X-22400Y241718D01*
X-23241Y241369D01*
X-23964Y240815D01*
X-24051Y240701D01*
X-24551Y240871D01*
Y257712D01*
X-24707Y258492D01*
X-25149Y259154D01*
X-25520Y259525D01*
Y264404D01*
X-25507Y264553D01*
X-25471Y264768D01*
X-25431Y264920D01*
X-25420Y264945D01*
X-24394D01*
Y265971D01*
X-24368Y265982D01*
X-24216Y266023D01*
X-24002Y266058D01*
X-23853Y266071D01*
X-19470D01*
X-19371Y266051D01*
X-15410D01*
X-14981Y266020D01*
X-14855Y266003D01*
X-14828Y265998D01*
X-14769Y265952D01*
X-14738Y265943D01*
X-14643Y265880D01*
X-14178Y265788D01*
X-8066D01*
X-7601Y265880D01*
X-7207Y266144D01*
X-6999Y266455D01*
X-6541Y266546D01*
X-5998Y266908D01*
X-5092Y267815D01*
X-4630Y267623D01*
Y266725D01*
X-15333Y256022D01*
X-15775Y255361D01*
X-15930Y254580D01*
Y239180D01*
X-15775Y238400D01*
X-15333Y237738D01*
X-10033Y232438D01*
X-9371Y231996D01*
X-8591Y231841D01*
X4665D01*
X14673Y221833D01*
X15129Y221361D01*
X15357Y221097D01*
X15452Y220620D01*
X15465Y220530D01*
X15395Y220427D01*
X14802Y220297D01*
X14666Y220388D01*
X13886Y220543D01*
X11744D01*
X10450Y220632D01*
X9862Y220711D01*
X9328Y220813D01*
X8859Y220933D01*
X8458Y221069D01*
X8125Y221216D01*
X7860Y221370D01*
X7598Y221568D01*
X7540Y221597D01*
X7017Y221998D01*
X6044Y222401D01*
X5391Y222487D01*
X5330Y222508D01*
X5004Y222552D01*
X4708Y222632D01*
X4368Y222763D01*
X3989Y222951D01*
X3573Y223197D01*
X3123Y223502D01*
X2651Y223862D01*
X1674Y224714D01*
X-534Y226922D01*
X-1196Y227364D01*
X-1976Y227519D01*
X-6803D01*
X-6803Y227519D01*
X-7583Y227364D01*
X-8245Y226922D01*
X-24533Y210634D01*
X-24895Y210298D01*
X-25193Y210060D01*
X-25453Y209879D01*
X-25489Y209858D01*
X-26228D01*
X-26266Y209866D01*
X-26304Y209858D01*
X-28756D01*
Y203528D01*
X-22425D01*
Y205980D01*
X-22418Y206018D01*
X-22425Y206056D01*
Y206794D01*
X-22405Y206830D01*
X-22232Y207079D01*
X-21743Y207657D01*
X-9146Y220254D01*
X-8722Y219970D01*
X-8897Y219548D01*
X-9035Y218504D01*
X-8897Y217460D01*
X-8494Y216487D01*
X-8093Y215964D01*
X-8064Y215906D01*
X-7866Y215644D01*
X-7712Y215379D01*
X-7565Y215046D01*
X-7429Y214645D01*
X-7309Y214176D01*
X-7207Y213642D01*
X-7128Y213054D01*
X-7039Y211760D01*
Y210325D01*
X-11155Y206209D01*
X-12223Y206149D01*
X-13272D01*
Y206709D01*
X-14245D01*
X-14284Y206716D01*
X-14322Y206709D01*
X-14373D01*
X-14392Y206710D01*
X-14398Y206709D01*
X-20980D01*
Y202346D01*
X-18812D01*
Y201880D01*
X-18689Y201260D01*
X-18337Y200734D01*
X-17811Y200382D01*
X-17190Y200259D01*
X-15962D01*
X-15394Y199690D01*
X-15585Y199228D01*
X-19854D01*
X-19859Y199230D01*
X-19879Y199228D01*
X-19930D01*
X-19968Y199236D01*
X-20006Y199228D01*
X-20980D01*
Y199160D01*
X-21480Y198681D01*
X-21687Y198686D01*
X-21795Y198694D01*
X-22425Y199325D01*
Y202772D01*
X-28756D01*
Y196441D01*
X-25309D01*
X-24474Y195605D01*
X-23812Y195163D01*
X-23031Y195008D01*
X-22251Y195163D01*
X-21959Y195359D01*
X-21343Y195393D01*
X-20980Y195050D01*
Y194866D01*
X-20006D01*
X-19968Y194859D01*
X-19930Y194866D01*
X-19879D01*
X-19859Y194864D01*
X-19854Y194866D01*
X-13862D01*
Y188602D01*
X-13819Y188384D01*
Y187715D01*
X-13726Y187248D01*
X-13462Y186853D01*
X-13067Y186589D01*
X-12600Y186496D01*
X-8069D01*
X-7603Y186589D01*
X-7207Y186853D01*
X-6943Y187248D01*
X-6850Y187715D01*
Y189490D01*
X-6943Y189956D01*
X-7207Y190352D01*
X-7603Y190616D01*
X-8069Y190708D01*
X-10719D01*
Y198606D01*
X-5070D01*
X-5032Y198599D01*
X-4993Y198606D01*
X-4020D01*
Y198722D01*
X-3635Y198748D01*
X1353D01*
X1362Y198748D01*
Y198606D01*
X2336D01*
X2374Y198599D01*
X2412Y198606D01*
X4676D01*
X4783Y198448D01*
X4868Y198106D01*
X3105Y196344D01*
X2965Y196214D01*
X2484Y195816D01*
X2294Y195680D01*
X2122Y195571D01*
X1981Y195495D01*
X1878Y195451D01*
X1819Y195433D01*
X1722Y195419D01*
X1688Y195406D01*
X993Y195268D01*
X166Y194716D01*
X-387Y193889D01*
X-581Y192913D01*
X-387Y191938D01*
X166Y191111D01*
X993Y190558D01*
X1969Y190364D01*
X2944Y190558D01*
X3385Y190853D01*
X3926Y190700D01*
X4158Y190351D01*
X4238Y189120D01*
Y180641D01*
X-7733D01*
X-8069Y180708D01*
X-12600D01*
X-12851Y181098D01*
X-12829Y181133D01*
X-12423Y181496D01*
X-10835D01*
Y183602D01*
Y185708D01*
X-12600D01*
X-13067Y185616D01*
X-13462Y185352D01*
X-13726Y184956D01*
X-13819Y184490D01*
Y183549D01*
X-14280Y183357D01*
X-14649Y183725D01*
X-15310Y184168D01*
X-16091Y184323D01*
X-17947D01*
X-18097Y184336D01*
X-18311Y184371D01*
X-18463Y184412D01*
X-18488Y184422D01*
Y185449D01*
X-24819D01*
Y184422D01*
X-24844Y184412D01*
X-24996Y184371D01*
X-25211Y184336D01*
X-25360Y184323D01*
X-26378D01*
X-27158Y184168D01*
X-27820Y183725D01*
X-28367Y183178D01*
X-29256Y182419D01*
X-29689Y182100D01*
X-30111Y181825D01*
X-30510Y181602D01*
X-30885Y181427D01*
X-31234Y181299D01*
X-31556Y181215D01*
X-31912Y181162D01*
X-31987Y181135D01*
X-32540Y181062D01*
X-33513Y180659D01*
X-34349Y180018D01*
X-34990Y179183D01*
X-35393Y178209D01*
X-35531Y177165D01*
X-35393Y176121D01*
X-34990Y175148D01*
X-34349Y174312D01*
X-33513Y173671D01*
X-32540Y173268D01*
X-31496Y173131D01*
X-30452Y173268D01*
X-29479Y173671D01*
X-28643Y174312D01*
X-28002Y175148D01*
X-27599Y176121D01*
X-27526Y176674D01*
X-27499Y176750D01*
X-27447Y177105D01*
X-27363Y177428D01*
X-27235Y177777D01*
X-27060Y178151D01*
X-26836Y178550D01*
X-26561Y178972D01*
X-26243Y179405D01*
X-25526Y180244D01*
X-25360D01*
X-25211Y180231D01*
X-24996Y180196D01*
X-24844Y180155D01*
X-24819Y180145D01*
Y179118D01*
X-18488D01*
Y180145D01*
X-18463Y180155D01*
X-18311Y180196D01*
X-18096Y180231D01*
X-17947Y180244D01*
X-17230D01*
Y42750D01*
X-17075Y41969D01*
X-16633Y41308D01*
X-10122Y34798D01*
X-8827Y33381D01*
X-8180Y32555D01*
X-7611Y31735D01*
X-7127Y30932D01*
X-6727Y30146D01*
X-6409Y29378D01*
X-6172Y28628D01*
X-6013Y27896D01*
X-5924Y27126D01*
X-5900Y27052D01*
X-5835Y26398D01*
X-5497Y25282D01*
X-4947Y24253D01*
X-4207Y23352D01*
X-3306Y22612D01*
X-2277Y22062D01*
X-1161Y21723D01*
X-1002Y21708D01*
Y21205D01*
X-1161Y21190D01*
X-2277Y20851D01*
X-3306Y20301D01*
X-4207Y19561D01*
X-4947Y18660D01*
X-5497Y17631D01*
X-5835Y16515D01*
X-5901Y15854D01*
X5901D01*
X5836Y16515D01*
X5497Y17631D01*
X4947Y18660D01*
X4207Y19561D01*
X3306Y20301D01*
X2277Y20851D01*
X1161Y21190D01*
X1002Y21205D01*
Y21708D01*
X1161Y21723D01*
X2277Y22062D01*
X3306Y22612D01*
X4207Y23352D01*
X4947Y24253D01*
X5497Y25282D01*
X5836Y26398D01*
X5950Y27559D01*
X5836Y28720D01*
X5497Y29836D01*
X4947Y30865D01*
X4207Y31766D01*
X3306Y32506D01*
X2277Y33056D01*
X1161Y33395D01*
X928Y33418D01*
X852Y33509D01*
X1065Y34032D01*
X1354Y34060D01*
X2655Y34455D01*
X3855Y35097D01*
X4907Y35960D01*
X5770Y37011D01*
X6411Y38211D01*
X6806Y39512D01*
X6939Y40866D01*
X6806Y42220D01*
X6411Y43521D01*
X5770Y44721D01*
X4907Y45773D01*
X3855Y46636D01*
X2655Y47277D01*
X1354Y47672D01*
X0Y47805D01*
X-1354Y47672D01*
X-2655Y47277D01*
X-3855Y46636D01*
X-4907Y45773D01*
X-5769Y44721D01*
X-6411Y43521D01*
X-6805Y42220D01*
X-6939Y40866D01*
X-6805Y39512D01*
X-6411Y38211D01*
X-5769Y37011D01*
X-6159Y36702D01*
X-6692Y37144D01*
X-6903Y37345D01*
X-13151Y43594D01*
Y171096D01*
X-12651Y171506D01*
X-12600Y171496D01*
X-10835D01*
Y173602D01*
Y175708D01*
X-12600D01*
X-12824Y176102D01*
X-12817Y176115D01*
X-12399Y176496D01*
X-8069D01*
X-7762Y176557D01*
X-7330Y176563D01*
X7409D01*
X7588Y176599D01*
X7603Y176589D01*
X8069Y176496D01*
X12600D01*
X13067Y176589D01*
X13462Y176853D01*
X13726Y177248D01*
X13819Y177715D01*
Y179490D01*
X13726Y179956D01*
X13700Y179995D01*
X13619Y180471D01*
X13830Y180631D01*
X14443Y181041D01*
X14996Y181868D01*
X15190Y182843D01*
X14996Y183819D01*
X14957Y183877D01*
X15149Y184339D01*
X15585Y184425D01*
X16412Y184978D01*
X16964Y185805D01*
X17020Y186082D01*
X17562Y186247D01*
X17718Y186091D01*
X18050Y185733D01*
X18290Y185435D01*
X18472Y185175D01*
X18488Y185147D01*
Y181874D01*
X23744D01*
X23775Y181867D01*
X23870Y181864D01*
Y181118D01*
X22153D01*
Y177953D01*
Y175974D01*
X22329Y175799D01*
X22173Y175912D01*
X22153Y175918D01*
Y174787D01*
X22290D01*
X22329Y174780D01*
X22367Y174787D01*
X22679D01*
X22871Y174325D01*
X13768Y165222D01*
X13326Y164561D01*
X13170Y163780D01*
Y23885D01*
X13326Y23105D01*
X13768Y22443D01*
X17967Y18243D01*
X18629Y17801D01*
X19410Y17646D01*
X20190Y17801D01*
X20429Y17961D01*
X20672Y17963D01*
X21567D01*
X21637Y17957D01*
Y17307D01*
X22611D01*
X22649Y17299D01*
X22688Y17307D01*
X22738D01*
X22758Y17305D01*
X22764Y17307D01*
X23271D01*
X23278Y17236D01*
Y12244D01*
X23116Y12001D01*
X22961Y11221D01*
X23116Y10441D01*
X23173Y10354D01*
X22938Y9913D01*
X22503D01*
X21723Y9758D01*
X21061Y9316D01*
X20591Y8846D01*
X20034Y8735D01*
X19207Y8183D01*
X18654Y7356D01*
X18461Y6380D01*
X18654Y5405D01*
X19207Y4578D01*
X20034Y4025D01*
X21010Y3831D01*
X21985Y4025D01*
X22812Y4578D01*
X23364Y5405D01*
X23450Y5835D01*
X24640D01*
X24789Y5822D01*
X25004Y5786D01*
X25156Y5746D01*
X25181Y5735D01*
Y4709D01*
X31512D01*
Y11039D01*
X28219D01*
X28102Y11117D01*
X27368Y11737D01*
X26723Y12382D01*
X26722Y12484D01*
Y17236D01*
X26728Y17307D01*
X28362D01*
Y22063D01*
X22764D01*
X22758Y22065D01*
X22738Y22063D01*
X22688D01*
X22649Y22070D01*
X22611Y22063D01*
X21637D01*
Y21413D01*
X21567Y21407D01*
X20571D01*
X17249Y24730D01*
Y162936D01*
X27351Y173038D01*
X27351Y173038D01*
X27793Y173700D01*
X27949Y174480D01*
X27949Y174480D01*
Y182262D01*
X28411Y182453D01*
X30192Y180672D01*
X30693Y180337D01*
Y179512D01*
X36172Y179512D01*
X36394Y179134D01*
X36172Y178756D01*
X35987Y178756D01*
X30693D01*
Y174000D01*
X31381D01*
X31387Y173926D01*
Y172559D01*
X30368Y171540D01*
X28952Y170244D01*
X28126Y169597D01*
X27306Y169028D01*
X26502Y168544D01*
X25717Y168144D01*
X24949Y167827D01*
X24199Y167589D01*
X23466Y167430D01*
X22697Y167341D01*
X22563Y167298D01*
X22424Y167270D01*
X22375Y167237D01*
X22318Y167219D01*
X22211Y167128D01*
X22093Y167049D01*
X22060Y167000D01*
X22015Y166962D01*
X21951Y166836D01*
X21872Y166719D01*
X21861Y166660D01*
X21834Y166608D01*
X21822Y166467D01*
X21795Y166328D01*
X21806Y166270D01*
X21801Y166211D01*
X21845Y166077D01*
X21857Y166014D01*
X21383Y165624D01*
X20643Y164723D01*
X20094Y163694D01*
X19755Y162578D01*
X19641Y161417D01*
X19755Y160257D01*
X20094Y159140D01*
X20643Y158112D01*
X21383Y157210D01*
X22285Y156470D01*
X23314Y155920D01*
X24430Y155582D01*
X25591Y155467D01*
X26751Y155582D01*
X27867Y155920D01*
X28896Y156470D01*
X29798Y157210D01*
X30538Y158112D01*
X31087Y159140D01*
X31426Y160257D01*
X31541Y161417D01*
X31426Y162578D01*
X31087Y163694D01*
X30538Y164723D01*
X30352Y164949D01*
X30741Y165593D01*
X31302Y166402D01*
X32715Y168109D01*
X32916Y168320D01*
X34551Y169955D01*
X34993Y170617D01*
X35149Y171397D01*
X34993Y172177D01*
X34834Y172416D01*
X34832Y172660D01*
Y173503D01*
X35301Y174000D01*
X36236Y174000D01*
X36487Y173604D01*
Y88829D01*
X36475Y88791D01*
X36036Y88393D01*
X35786Y88421D01*
X35598Y88457D01*
X35452Y88494D01*
X35363Y88525D01*
X35340Y88537D01*
X35290Y88572D01*
X35257Y88587D01*
X34685Y88969D01*
X33709Y89163D01*
X32734Y88969D01*
X31907Y88416D01*
X31354Y87590D01*
X31161Y86614D01*
X31354Y85639D01*
X31907Y84812D01*
X32734Y84259D01*
X33709Y84065D01*
X34685Y84259D01*
X35257Y84642D01*
X35290Y84657D01*
X35340Y84692D01*
X35363Y84703D01*
X35452Y84734D01*
X35598Y84772D01*
X35767Y84803D01*
X36886Y84889D01*
X37386Y84800D01*
Y84236D01*
X44110D01*
Y88992D01*
X39931D01*
Y185458D01*
X40093Y185700D01*
X40249Y186480D01*
X40093Y187261D01*
X39651Y187922D01*
X37346Y190227D01*
X36890Y190700D01*
X36662Y190963D01*
X36564Y191456D01*
X36012Y192283D01*
X35185Y192835D01*
X34209Y193029D01*
X33234Y192835D01*
X32407Y192283D01*
X31855Y191456D01*
X31784Y191103D01*
X31274D01*
X31164Y191656D01*
X30612Y192483D01*
X29785Y193035D01*
X29357Y193120D01*
X29212Y193599D01*
X45257Y209644D01*
X45719Y209452D01*
Y541D01*
X-45719D01*
Y361965D01*
X-45219Y362117D01*
X-44991Y361776D01*
X-44164Y361223D01*
X-43688Y361128D01*
Y363578D01*
Y366027D01*
X-44164Y365933D01*
X-44991Y365380D01*
X-45219Y365039D01*
X-45719Y365191D01*
Y465994D01*
X45719Y465994D01*
D02*
G37*
G36*
X-35564Y369177D02*
X-37817D01*
X-37793Y369228D01*
X-37771Y369324D01*
X-37753Y369465D01*
X-37722Y369881D01*
X-37691Y371705D01*
X-35691D01*
X-35564Y369177D01*
D02*
G37*
G36*
X-964Y367271D02*
X-3217D01*
X-3193Y367322D01*
X-3171Y367418D01*
X-3153Y367559D01*
X-3122Y367975D01*
X-3091Y369798D01*
X-1091D01*
X-964Y367271D01*
D02*
G37*
G36*
X8908Y388961D02*
X7210Y387084D01*
X5617Y388677D01*
X5670Y388696D01*
X5753Y388749D01*
X5866Y388835D01*
X6181Y389108D01*
X7493Y390375D01*
X8908Y388961D01*
D02*
G37*
G36*
X-988Y385739D02*
X-1010Y385643D01*
X-1029Y385502D01*
X-1059Y385086D01*
X-1091Y383262D01*
X-3091D01*
X-3217Y385790D01*
X-964D01*
X-988Y385739D01*
D02*
G37*
G36*
X-14316Y281865D02*
X-14373Y281977D01*
X-14447Y282076D01*
X-14538Y282164D01*
X-14646Y282240D01*
X-14771Y282304D01*
X-14913Y282357D01*
X-15073Y282398D01*
X-15249Y282427D01*
X-15442Y282445D01*
X-15652Y282451D01*
Y283730D01*
X-15442Y283736D01*
X-15249Y283754D01*
X-15073Y283783D01*
X-14913Y283824D01*
X-14771Y283877D01*
X-14646Y283941D01*
X-14538Y284017D01*
X-14447Y284105D01*
X-14373Y284205D01*
X-14316Y284316D01*
Y281865D01*
D02*
G37*
G36*
X43936Y287171D02*
X41683D01*
X41707Y287222D01*
X41728Y287318D01*
X41747Y287459D01*
X41778Y287875D01*
X41809Y289698D01*
X43809D01*
X43936Y287171D01*
D02*
G37*
G36*
X8962Y292568D02*
X8951Y292496D01*
X8941Y292386D01*
X8918Y291826D01*
X8913Y291166D01*
X9547D01*
X9426Y291153D01*
X9317Y291114D01*
X9221Y291050D01*
X9138Y290959D01*
X9067Y290843D01*
X9010Y290701D01*
X8965Y290533D01*
X8933Y290339D01*
X8914Y290120D01*
X8907Y289874D01*
X7628D01*
X7621Y290120D01*
X7602Y290339D01*
X7570Y290533D01*
X7525Y290701D01*
X7468Y290843D01*
X7398Y290959D01*
X7314Y291050D01*
X7218Y291114D01*
X7110Y291153D01*
X6988Y291166D01*
X7607D01*
X7560Y292600D01*
X8975D01*
X8962Y292568D01*
D02*
G37*
G36*
X10415Y272383D02*
X10383Y272396D01*
X10311Y272407D01*
X10201Y272417D01*
X9640Y272440D01*
X8354Y272451D01*
Y273730D01*
X10415Y273798D01*
Y272383D01*
D02*
G37*
G36*
X-24440Y289383D02*
X-24343Y289361D01*
X-24203Y289342D01*
X-23787Y289312D01*
X-21963Y289280D01*
Y287280D01*
X-24491Y287154D01*
Y289407D01*
X-24440Y289383D01*
D02*
G37*
G36*
X-5096Y284741D02*
X-5107Y284669D01*
X-5118Y284560D01*
X-5140Y283999D01*
X-5151Y282712D01*
X-6430D01*
X-6498Y284774D01*
X-5083D01*
X-5096Y284741D01*
D02*
G37*
G36*
X-18926Y283785D02*
X-18855Y283774D01*
X-18745Y283764D01*
X-18184Y283741D01*
X-16897Y283730D01*
Y282451D01*
X-18959Y282383D01*
Y283798D01*
X-18926Y283785D01*
D02*
G37*
G36*
X10023Y285103D02*
X10206Y284947D01*
X10389Y284809D01*
X10570Y284690D01*
X10752Y284589D01*
X10932Y284506D01*
X11112Y284442D01*
X11292Y284397D01*
X11471Y284370D01*
X11649Y284361D01*
X8045Y284351D01*
X8209Y284361D01*
X8336Y284389D01*
X8426Y284436D01*
X8479Y284501D01*
X8496Y284584D01*
X8476Y284686D01*
X8420Y284806D01*
X8326Y284945D01*
X8197Y285102D01*
X8030Y285278D01*
X9840D01*
X10023Y285103D01*
D02*
G37*
G36*
X-9312Y276800D02*
X-9482Y276740D01*
X-9632Y276639D01*
X-9762Y276498D01*
X-9872Y276317D01*
X-9962Y276096D01*
X-10032Y275834D01*
X-10072Y275590D01*
X-10032Y275347D01*
X-9962Y275085D01*
X-9872Y274864D01*
X-9762Y274683D01*
X-9632Y274542D01*
X-9482Y274441D01*
X-9312Y274381D01*
X-9122Y274361D01*
X-13122D01*
X-12932Y274381D01*
X-12762Y274441D01*
X-12612Y274542D01*
X-12482Y274683D01*
X-12372Y274864D01*
X-12282Y275085D01*
X-12212Y275347D01*
X-12172Y275590D01*
X-12212Y275834D01*
X-12282Y276096D01*
X-12372Y276317D01*
X-12482Y276498D01*
X-12612Y276639D01*
X-12762Y276740D01*
X-12932Y276800D01*
X-13122Y276820D01*
X-9122D01*
X-9312Y276800D01*
D02*
G37*
G36*
X3632Y312382D02*
X4484Y311404D01*
X4844Y310932D01*
X5150Y310483D01*
X5396Y310066D01*
X5583Y309687D01*
X5715Y309347D01*
X5794Y309051D01*
X5838Y308725D01*
X5859Y308664D01*
X5945Y308011D01*
X6348Y307038D01*
X6990Y306202D01*
X7825Y305561D01*
X8798Y305158D01*
X9842Y305021D01*
X10314Y305083D01*
X10495Y304602D01*
X10127Y304357D01*
X9575Y303530D01*
X9480Y303054D01*
X11930D01*
Y302554D01*
X12430D01*
Y300105D01*
X12905Y300199D01*
X13240Y300423D01*
X15082Y300515D01*
X20398D01*
X23954Y296959D01*
X23907Y296483D01*
X23355Y295656D01*
X23293Y295346D01*
X19064D01*
X18916Y295359D01*
X18704Y295395D01*
X18554Y295435D01*
X18520Y295449D01*
Y296473D01*
X15854D01*
Y293307D01*
Y290142D01*
X18520D01*
Y291165D01*
X18554Y291179D01*
X18704Y291220D01*
X18916Y291255D01*
X19064Y291268D01*
X24336D01*
X25117Y291423D01*
X25778Y291865D01*
X26127Y292214D01*
X26685Y292325D01*
X27512Y292878D01*
X28064Y293705D01*
X28195Y294361D01*
X28738Y294526D01*
X34270Y288993D01*
Y280495D01*
X34426Y279715D01*
X34868Y279053D01*
X37853Y276068D01*
X37661Y275606D01*
X35937D01*
X35893Y275826D01*
X35451Y276488D01*
X33465Y278474D01*
X33130Y278835D01*
X32890Y279134D01*
X32707Y279395D01*
X32693Y279420D01*
Y282693D01*
X26362D01*
Y276362D01*
X29635D01*
X29660Y276348D01*
X29910Y276173D01*
X30489Y275683D01*
X31970Y274201D01*
Y272339D01*
X31905Y271866D01*
X27468D01*
X25451Y273883D01*
X24790Y274325D01*
X24425Y274397D01*
Y275016D01*
X24425D01*
X24277Y275516D01*
X24325Y275588D01*
X24479Y276362D01*
X25606D01*
Y282693D01*
X19276D01*
Y276362D01*
X19276D01*
X19670Y275862D01*
X19614Y275580D01*
Y275103D01*
X19604Y275016D01*
X18882D01*
Y274518D01*
X18801Y274506D01*
X18436Y274480D01*
X17504D01*
X17451Y274532D01*
X16790Y274974D01*
X16010Y275130D01*
X15238D01*
X14913Y275159D01*
X14858Y275168D01*
X14814Y275205D01*
X14760Y275223D01*
X14643Y275301D01*
X14469Y275336D01*
Y275845D01*
X14643Y275880D01*
X15037Y276144D01*
X15301Y276538D01*
X15393Y277003D01*
Y277590D01*
X11122D01*
X6851D01*
Y277003D01*
X6943Y276538D01*
X7207Y276144D01*
X7601Y275880D01*
X7775Y275845D01*
Y275336D01*
X7601Y275301D01*
X7207Y275037D01*
X6964Y274674D01*
X6770Y274635D01*
X6227Y274273D01*
X6227Y274273D01*
X3448Y271494D01*
X3182Y271441D01*
X2542Y271013D01*
X2114Y270373D01*
X1964Y269618D01*
Y261974D01*
X1953Y261844D01*
X1921Y261650D01*
X1889Y261532D01*
X1067D01*
Y260558D01*
X1059Y260520D01*
X1067Y260481D01*
Y260432D01*
X1065Y260412D01*
X1067Y260406D01*
Y254217D01*
X5733D01*
X6050Y253830D01*
X6020Y253681D01*
X5392Y253053D01*
X855D01*
X154Y253755D01*
X345Y254217D01*
X508D01*
Y261532D01*
X-3402D01*
X-3593Y261994D01*
X-1149Y264438D01*
X-707Y265100D01*
X-551Y265880D01*
Y286780D01*
X-551Y286780D01*
X-707Y287561D01*
X-1149Y288222D01*
X-11949Y299022D01*
X-12610Y299464D01*
X-13390Y299620D01*
X-14734D01*
X-14969Y299623D01*
X-15221Y299639D01*
X-15665Y299935D01*
X-16641Y300129D01*
X-17616Y299935D01*
X-18443Y299383D01*
X-18996Y298556D01*
X-19190Y297580D01*
X-18996Y296605D01*
X-18443Y295778D01*
X-17616Y295225D01*
X-16641Y295031D01*
X-15665Y295225D01*
X-15284Y295480D01*
X-14219Y295525D01*
X-9476Y290781D01*
X-9667Y290319D01*
X-23084D01*
X-23741Y290331D01*
X-24088Y290356D01*
X-24506Y290635D01*
X-25481Y290829D01*
X-26457Y290635D01*
X-27284Y290083D01*
X-27836Y289256D01*
X-28030Y288280D01*
X-27836Y287305D01*
X-27284Y286478D01*
X-26457Y285925D01*
X-25481Y285731D01*
X-24506Y285925D01*
X-24171Y286149D01*
X-22329Y286241D01*
X-9435D01*
X-9049Y285855D01*
X-9241Y285393D01*
X-10622D01*
Y283090D01*
X-11622D01*
Y285393D01*
X-14178D01*
X-14643Y285301D01*
X-14848Y285164D01*
X-14976Y285093D01*
X-15000Y285062D01*
X-15037Y285037D01*
X-15132Y284896D01*
X-15206Y284803D01*
X-15218Y284798D01*
X-15284Y284782D01*
X-15379Y284766D01*
X-15415Y284762D01*
X-18206D01*
X-18591Y284778D01*
X-18885Y284975D01*
X-19666Y285130D01*
X-20446Y284975D01*
X-21107Y284532D01*
X-26501Y279138D01*
X-26864Y278802D01*
X-27059Y278646D01*
Y277416D01*
X-26877Y277520D01*
X-26551Y277746D01*
X-26198Y278029D01*
X-25406Y278765D01*
X-23992Y277350D01*
X-24388Y276940D01*
X-25010Y276205D01*
X-25236Y275880D01*
X-25340Y275697D01*
X-24104D01*
X-23711Y276161D01*
X-18494Y281378D01*
X-17261Y281419D01*
X-15415D01*
X-15379Y281415D01*
X-15284Y281400D01*
X-15218Y281383D01*
X-15206Y281378D01*
X-15132Y281285D01*
X-15037Y281144D01*
X-15000Y281119D01*
X-14976Y281088D01*
X-14848Y281017D01*
X-14643Y280880D01*
X-14469Y280845D01*
Y280336D01*
X-14643Y280301D01*
X-15037Y280037D01*
X-15301Y279643D01*
X-15393Y279178D01*
Y277003D01*
X-15301Y276538D01*
X-15037Y276144D01*
X-14643Y275880D01*
X-14469Y275845D01*
Y275336D01*
X-14643Y275301D01*
X-15037Y275037D01*
X-15301Y274643D01*
X-15393Y274178D01*
Y272003D01*
X-15301Y271538D01*
X-15037Y271144D01*
X-14643Y270880D01*
X-14469Y270845D01*
Y270336D01*
X-14643Y270301D01*
X-14738Y270238D01*
X-14769Y270229D01*
X-14826Y270185D01*
X-15742Y270130D01*
X-19291D01*
X-19390Y270149D01*
X-23853D01*
X-24002Y270163D01*
X-24216Y270198D01*
X-24368Y270239D01*
X-24394Y270249D01*
Y271276D01*
X-29751D01*
Y272032D01*
X-28059D01*
Y275197D01*
Y277175D01*
X-28234Y277350D01*
X-28079Y277237D01*
X-28059Y277231D01*
Y278362D01*
X-28196D01*
X-28234Y278370D01*
X-28272Y278362D01*
X-29751D01*
Y289336D01*
X-12873Y306214D01*
X-12695Y306202D01*
X-11860Y305561D01*
X-10887Y305158D01*
X-10233Y305072D01*
X-10172Y305051D01*
X-9847Y305007D01*
X-9550Y304927D01*
X-9211Y304796D01*
X-8831Y304608D01*
X-8415Y304362D01*
X-7965Y304057D01*
X-7493Y303697D01*
X-6516Y302845D01*
X4464Y291865D01*
X4464Y291865D01*
X5102Y291438D01*
Y290142D01*
X6596D01*
Y285945D01*
X6723Y285305D01*
X7054Y284809D01*
X6943Y284643D01*
X6851Y284178D01*
Y282003D01*
X6943Y281538D01*
X7207Y281144D01*
X7601Y280880D01*
X7775Y280845D01*
Y280336D01*
X7601Y280301D01*
X7207Y280037D01*
X6943Y279643D01*
X6851Y279178D01*
Y278590D01*
X11122D01*
X15393D01*
Y279178D01*
X15301Y279643D01*
X15037Y280037D01*
X14643Y280301D01*
X14469Y280336D01*
Y280845D01*
X14643Y280880D01*
X15037Y281144D01*
X15301Y281538D01*
X15393Y282003D01*
Y284178D01*
X15301Y284643D01*
X15037Y285037D01*
X14643Y285301D01*
X14178Y285393D01*
X11520D01*
X11494Y285397D01*
X11409Y285419D01*
X11315Y285452D01*
X11212Y285500D01*
X11099Y285563D01*
X10976Y285643D01*
X10845Y285742D01*
X10776Y285801D01*
X9939Y286637D01*
Y290142D01*
X11433D01*
Y296473D01*
X5624D01*
X-3632Y305729D01*
X-4484Y306706D01*
X-4844Y307178D01*
X-5150Y307628D01*
X-5396Y308044D01*
X-5584Y308423D01*
X-5715Y308763D01*
X-5794Y309059D01*
X-5838Y309385D01*
X-5860Y309446D01*
X-5945Y310099D01*
X-6349Y311072D01*
X-6750Y311595D01*
X-6778Y311653D01*
X-6977Y311915D01*
X-7130Y312180D01*
X-7278Y312513D01*
X-7413Y312914D01*
X-7534Y313383D01*
X-7635Y313917D01*
X-7715Y314505D01*
X-7803Y315799D01*
Y323110D01*
X-7303Y323317D01*
X3632Y312382D01*
D02*
G37*
G36*
X31557Y280048D02*
X31502Y279865D01*
X31503Y279654D01*
X31561Y279414D01*
X31675Y279145D01*
X31846Y278848D01*
X32073Y278522D01*
X32357Y278168D01*
X33095Y277374D01*
X31681Y275960D01*
X31270Y276357D01*
X30533Y276982D01*
X30207Y277209D01*
X29910Y277380D01*
X29642Y277495D01*
X29402Y277552D01*
X29190Y277554D01*
X29007Y277498D01*
X28853Y277386D01*
X31669Y280203D01*
X31557Y280048D01*
D02*
G37*
G36*
X14350Y274273D02*
X14413Y274235D01*
X14507Y274201D01*
X14632Y274172D01*
X14786Y274147D01*
X15185Y274111D01*
X15705Y274093D01*
X16010Y274091D01*
Y272091D01*
X15705Y272088D01*
X14632Y272009D01*
X14507Y271980D01*
X14413Y271946D01*
X14350Y271908D01*
X14316Y271865D01*
Y274316D01*
X14350Y274273D01*
D02*
G37*
G36*
X17528Y295117D02*
X17588Y294947D01*
X17688Y294797D01*
X17828Y294667D01*
X18008Y294557D01*
X18228Y294467D01*
X18488Y294397D01*
X18788Y294347D01*
X19128Y294317D01*
X19508Y294307D01*
Y292307D01*
X19128Y292297D01*
X18788Y292267D01*
X18488Y292217D01*
X18228Y292147D01*
X18008Y292057D01*
X17828Y291947D01*
X17688Y291817D01*
X17588Y291667D01*
X17528Y291497D01*
X17508Y291307D01*
Y295307D01*
X17528Y295117D01*
D02*
G37*
G36*
X22659Y275281D02*
X22705Y274776D01*
X22746Y274571D01*
X22798Y274398D01*
X22861Y274256D01*
X22936Y274146D01*
X23022Y274067D01*
X23121Y274020D01*
X23230Y274004D01*
X20077D01*
X20186Y274020D01*
X20284Y274067D01*
X20371Y274146D01*
X20446Y274256D01*
X20509Y274398D01*
X20561Y274571D01*
X20602Y274776D01*
X20630Y275013D01*
X20648Y275281D01*
X20653Y275580D01*
X22654D01*
X22659Y275281D01*
D02*
G37*
G36*
X23446Y277376D02*
X23445Y277345D01*
X23441Y276368D01*
X21441D01*
X21435Y277386D01*
X23447D01*
X23446Y277376D01*
D02*
G37*
%LPC*%
G36*
X11430Y239062D02*
X9480D01*
X9575Y238587D01*
X10127Y237760D01*
X10954Y237207D01*
X11430Y237113D01*
Y239062D01*
D02*
G37*
G36*
X34084Y234138D02*
Y232188D01*
X36033D01*
X35938Y232664D01*
X35386Y233491D01*
X34559Y234043D01*
X34084Y234138D01*
D02*
G37*
G36*
X33084D02*
X32608Y234043D01*
X31781Y233491D01*
X31229Y232664D01*
X31134Y232188D01*
X33084D01*
Y234138D01*
D02*
G37*
G36*
X11430Y242012D02*
X10954Y241917D01*
X10127Y241365D01*
X9575Y240538D01*
X9480Y240062D01*
X11430D01*
Y242012D01*
D02*
G37*
G36*
X984Y248129D02*
X-60Y247992D01*
X-1033Y247588D01*
X-1869Y246947D01*
X-2510Y246112D01*
X-2913Y245139D01*
X-3050Y244094D01*
X-2913Y243050D01*
X-2510Y242077D01*
X-1869Y241242D01*
X-1033Y240600D01*
X-60Y240197D01*
X984Y240060D01*
X2028Y240197D01*
X3001Y240600D01*
X3837Y241242D01*
X4478Y242077D01*
X4881Y243050D01*
X5019Y244094D01*
X4881Y245139D01*
X4478Y246112D01*
X3837Y246947D01*
X3001Y247588D01*
X2028Y247992D01*
X984Y248129D01*
D02*
G37*
G36*
X36033Y231188D02*
X34084D01*
Y229239D01*
X34559Y229333D01*
X35386Y229886D01*
X35938Y230713D01*
X36033Y231188D01*
D02*
G37*
G36*
X33084D02*
X31134D01*
X31229Y230713D01*
X31781Y229886D01*
X32608Y229333D01*
X33084Y229239D01*
Y231188D01*
D02*
G37*
G36*
X-25591Y148671D02*
X-26944Y148538D01*
X-28246Y148143D01*
X-29446Y147502D01*
X-30497Y146639D01*
X-31360Y145587D01*
X-32001Y144388D01*
X-32396Y143086D01*
X-32530Y141732D01*
X-32396Y140379D01*
X-32001Y139077D01*
X-31360Y137877D01*
X-30497Y136826D01*
X-29446Y135963D01*
X-28246Y135322D01*
X-26944Y134927D01*
X-26017Y134835D01*
Y134333D01*
X-26751Y134261D01*
X-27867Y133922D01*
X-28896Y133372D01*
X-29798Y132632D01*
X-30538Y131731D01*
X-31087Y130702D01*
X-31426Y129586D01*
X-31541Y128425D01*
X-31426Y127264D01*
X-31087Y126148D01*
X-30538Y125119D01*
X-29798Y124218D01*
X-28896Y123478D01*
X-27867Y122928D01*
X-26751Y122590D01*
X-26594Y122574D01*
Y122072D01*
X-26751Y122056D01*
X-27867Y121718D01*
X-28896Y121168D01*
X-29798Y120428D01*
X-30538Y119526D01*
X-31087Y118497D01*
X-31426Y117381D01*
X-31491Y116720D01*
X-19690D01*
X-19755Y117381D01*
X-20094Y118497D01*
X-20643Y119526D01*
X-21383Y120428D01*
X-22285Y121168D01*
X-23314Y121718D01*
X-24430Y122056D01*
X-24587Y122072D01*
Y122574D01*
X-24430Y122590D01*
X-23314Y122928D01*
X-22285Y123478D01*
X-21383Y124218D01*
X-20643Y125119D01*
X-20094Y126148D01*
X-19755Y127264D01*
X-19641Y128425D01*
X-19755Y129586D01*
X-20094Y130702D01*
X-20643Y131731D01*
X-21383Y132632D01*
X-22285Y133372D01*
X-23314Y133922D01*
X-24430Y134261D01*
X-25164Y134333D01*
Y134835D01*
X-24237Y134927D01*
X-22935Y135322D01*
X-21735Y135963D01*
X-20684Y136826D01*
X-19821Y137877D01*
X-19180Y139077D01*
X-18785Y140379D01*
X-18652Y141732D01*
X-18785Y143086D01*
X-19180Y144388D01*
X-19821Y145587D01*
X-20684Y146639D01*
X-21735Y147502D01*
X-22935Y148143D01*
X-24237Y148538D01*
X-25591Y148671D01*
D02*
G37*
G36*
X-19690Y115720D02*
X-25091D01*
Y110320D01*
X-24430Y110385D01*
X-23314Y110723D01*
X-22285Y111273D01*
X-21383Y112013D01*
X-20643Y112915D01*
X-20094Y113944D01*
X-19755Y115060D01*
X-19690Y115720D01*
D02*
G37*
G36*
X31491Y116035D02*
X26091D01*
Y110635D01*
X26751Y110700D01*
X27867Y111038D01*
X28896Y111588D01*
X29798Y112328D01*
X30538Y113230D01*
X31087Y114258D01*
X31426Y115375D01*
X31491Y116035D01*
D02*
G37*
G36*
X25091D02*
X19690D01*
X19755Y115375D01*
X20094Y114258D01*
X20643Y113230D01*
X21383Y112328D01*
X22285Y111588D01*
X23314Y111038D01*
X24430Y110700D01*
X25091Y110635D01*
Y116035D01*
D02*
G37*
G36*
X-26091Y115720D02*
X-31491D01*
X-31426Y115060D01*
X-31087Y113944D01*
X-30538Y112915D01*
X-29798Y112013D01*
X-28896Y111273D01*
X-27867Y110723D01*
X-26751Y110385D01*
X-26091Y110320D01*
Y115720D01*
D02*
G37*
G36*
X-25591Y79822D02*
X-26635Y79684D01*
X-27608Y79281D01*
X-28443Y78640D01*
X-29085Y77805D01*
X-29488Y76832D01*
X-29625Y75787D01*
X-29488Y74743D01*
X-29085Y73770D01*
X-28443Y72935D01*
X-27608Y72293D01*
X-26635Y71890D01*
X-25591Y71753D01*
X-24546Y71890D01*
X-23573Y72293D01*
X-22738Y72935D01*
X-22096Y73770D01*
X-21693Y74743D01*
X-21556Y75787D01*
X-21693Y76832D01*
X-22096Y77805D01*
X-22738Y78640D01*
X-23573Y79281D01*
X-24546Y79684D01*
X-25591Y79822D01*
D02*
G37*
G36*
X37559Y77137D02*
X36527Y77001D01*
X35566Y76602D01*
X34740Y75969D01*
X34106Y75143D01*
X33708Y74182D01*
X33572Y73150D01*
X33708Y72118D01*
X34106Y71156D01*
X34740Y70331D01*
X35566Y69697D01*
X36527Y69299D01*
X37559Y69163D01*
X38591Y69299D01*
X39553Y69697D01*
X40378Y70331D01*
X41012Y71156D01*
X41410Y72118D01*
X41546Y73150D01*
X41410Y74182D01*
X41012Y75143D01*
X40378Y75969D01*
X39553Y76602D01*
X38591Y77001D01*
X37559Y77137D01*
D02*
G37*
G36*
X-25591Y89664D02*
X-26635Y89527D01*
X-27608Y89124D01*
X-28443Y88483D01*
X-29085Y87647D01*
X-29488Y86674D01*
X-29625Y85630D01*
X-29488Y84586D01*
X-29085Y83613D01*
X-28443Y82777D01*
X-27608Y82136D01*
X-26635Y81733D01*
X-25591Y81595D01*
X-24546Y81733D01*
X-23573Y82136D01*
X-22738Y82777D01*
X-22096Y83613D01*
X-21693Y84586D01*
X-21556Y85630D01*
X-21693Y86674D01*
X-22096Y87647D01*
X-22738Y88483D01*
X-23573Y89124D01*
X-24546Y89527D01*
X-25591Y89664D01*
D02*
G37*
G36*
X9835Y175708D02*
X8069D01*
X7603Y175616D01*
X7207Y175352D01*
X6943Y174956D01*
X6851Y174490D01*
Y174102D01*
X9835D01*
Y175708D01*
D02*
G37*
G36*
X-3437Y171741D02*
Y169791D01*
X-1488D01*
X-1582Y170267D01*
X-2135Y171094D01*
X-2962Y171646D01*
X-3437Y171741D01*
D02*
G37*
G36*
X-4437D02*
X-4913Y171646D01*
X-5739Y171094D01*
X-6292Y170267D01*
X-6386Y169791D01*
X-4437D01*
Y171741D01*
D02*
G37*
G36*
X-6850Y173102D02*
X-9835D01*
Y171496D01*
X-8069D01*
X-7603Y171589D01*
X-7207Y171853D01*
X-6943Y172248D01*
X-6850Y172714D01*
Y173102D01*
D02*
G37*
G36*
X9835D02*
X6851D01*
Y172714D01*
X6943Y172248D01*
X7207Y171853D01*
X7603Y171589D01*
X8069Y171496D01*
X9835D01*
Y173102D01*
D02*
G37*
G36*
X37559Y37137D02*
X36527Y37001D01*
X35566Y36602D01*
X34740Y35969D01*
X34106Y35143D01*
X33708Y34182D01*
X33572Y33150D01*
X33708Y32118D01*
X34106Y31156D01*
X34508Y30633D01*
X34540Y30570D01*
X34797Y30242D01*
X35003Y29916D01*
X35190Y29544D01*
X35358Y29122D01*
X35503Y28652D01*
X35626Y28131D01*
X35720Y27573D01*
X35836Y26259D01*
X35837Y26215D01*
Y21692D01*
X35968Y21034D01*
X36204Y20680D01*
Y17307D01*
X42929D01*
Y22063D01*
X39679D01*
X39654Y22081D01*
X39281Y22412D01*
Y25859D01*
X39326Y26952D01*
X39395Y27560D01*
X39492Y28131D01*
X39615Y28652D01*
X39760Y29122D01*
X39928Y29544D01*
X40115Y29916D01*
X40321Y30242D01*
X40578Y30570D01*
X40610Y30633D01*
X41012Y31156D01*
X41410Y32118D01*
X41546Y33150D01*
X41410Y34182D01*
X41012Y35143D01*
X40378Y35969D01*
X39553Y36602D01*
X38591Y37001D01*
X37559Y37137D01*
D02*
G37*
G36*
X25591Y148986D02*
X24237Y148853D01*
X22935Y148458D01*
X21735Y147817D01*
X20684Y146954D01*
X19821Y145902D01*
X19180Y144702D01*
X18785Y143401D01*
X18652Y142047D01*
X18785Y140693D01*
X19180Y139392D01*
X19821Y138192D01*
X20684Y137141D01*
X21735Y136278D01*
X22935Y135636D01*
X24237Y135241D01*
X25163Y135150D01*
Y134648D01*
X24430Y134576D01*
X23314Y134237D01*
X22285Y133687D01*
X21383Y132947D01*
X20643Y132046D01*
X20094Y131017D01*
X19755Y129901D01*
X19641Y128740D01*
X19755Y127579D01*
X20094Y126463D01*
X20643Y125435D01*
X21383Y124533D01*
X22285Y123793D01*
X23314Y123243D01*
X24430Y122905D01*
X24588Y122889D01*
Y122387D01*
X24430Y122371D01*
X23314Y122032D01*
X22285Y121483D01*
X21383Y120742D01*
X20643Y119841D01*
X20094Y118812D01*
X19755Y117696D01*
X19690Y117035D01*
X31491D01*
X31426Y117696D01*
X31087Y118812D01*
X30538Y119841D01*
X29798Y120742D01*
X28896Y121483D01*
X27867Y122032D01*
X26751Y122371D01*
X26593Y122387D01*
Y122889D01*
X26751Y122905D01*
X27867Y123243D01*
X28896Y123793D01*
X29798Y124533D01*
X30538Y125435D01*
X31087Y126463D01*
X31426Y127579D01*
X31541Y128740D01*
X31426Y129901D01*
X31087Y131017D01*
X30538Y132046D01*
X29798Y132947D01*
X28896Y133687D01*
X27867Y134237D01*
X26751Y134576D01*
X26018Y134648D01*
Y135150D01*
X26944Y135241D01*
X28246Y135636D01*
X29446Y136278D01*
X30497Y137141D01*
X31360Y138192D01*
X32001Y139392D01*
X32396Y140693D01*
X32530Y142047D01*
X32396Y143401D01*
X32001Y144702D01*
X31360Y145902D01*
X30497Y146954D01*
X29446Y147817D01*
X28246Y148458D01*
X26944Y148853D01*
X25591Y148986D01*
D02*
G37*
G36*
X-4437Y168791D02*
X-6386D01*
X-6292Y168316D01*
X-5739Y167489D01*
X-4913Y166936D01*
X-4437Y166842D01*
Y168791D01*
D02*
G37*
G36*
X-18488Y178362D02*
X-24819D01*
Y172032D01*
X-23796D01*
X-23781Y171997D01*
X-23741Y171847D01*
X-23706Y171635D01*
X-23693Y171487D01*
Y169801D01*
X-24572Y168922D01*
X-25014Y168261D01*
X-25169Y167480D01*
Y167383D01*
X-25540Y167047D01*
X-25591Y167052D01*
X-26751Y166938D01*
X-27867Y166599D01*
X-28896Y166050D01*
X-29798Y165310D01*
X-30538Y164408D01*
X-31087Y163379D01*
X-31426Y162263D01*
X-31541Y161102D01*
X-31426Y159941D01*
X-31087Y158825D01*
X-30538Y157797D01*
X-29798Y156895D01*
X-28896Y156155D01*
X-27867Y155605D01*
X-26751Y155267D01*
X-25591Y155152D01*
X-24430Y155267D01*
X-23314Y155605D01*
X-22285Y156155D01*
X-21383Y156895D01*
X-20643Y157797D01*
X-20094Y158825D01*
X-19755Y159941D01*
X-19641Y161102D01*
X-19755Y162263D01*
X-20094Y163379D01*
X-20643Y164408D01*
X-21091Y164953D01*
Y166636D01*
X-20212Y167515D01*
X-20212Y167515D01*
X-19770Y168176D01*
X-19614Y168957D01*
Y171487D01*
X-19601Y171635D01*
X-19566Y171847D01*
X-19526Y171997D01*
X-19511Y172032D01*
X-18488D01*
Y178362D01*
D02*
G37*
G36*
X-1488Y168791D02*
X-3437D01*
Y166842D01*
X-2962Y166936D01*
X-2135Y167489D01*
X-1582Y168316D01*
X-1488Y168791D01*
D02*
G37*
G36*
X27059Y52650D02*
X23638D01*
X23708Y52118D01*
X24106Y51156D01*
X24740Y50331D01*
X25566Y49697D01*
X26527Y49299D01*
X27059Y49229D01*
Y52650D01*
D02*
G37*
G36*
X38059Y47071D02*
Y43650D01*
X41480D01*
X41410Y44182D01*
X41012Y45143D01*
X40378Y45969D01*
X39553Y46602D01*
X38591Y47001D01*
X38059Y47071D01*
D02*
G37*
G36*
X28059D02*
Y43650D01*
X31480D01*
X31410Y44182D01*
X31012Y45143D01*
X30378Y45969D01*
X29553Y46602D01*
X28591Y47001D01*
X28059Y47071D01*
D02*
G37*
G36*
X41480Y52650D02*
X38059D01*
Y49229D01*
X38591Y49299D01*
X39553Y49697D01*
X40378Y50331D01*
X41012Y51156D01*
X41410Y52118D01*
X41480Y52650D01*
D02*
G37*
G36*
X31480D02*
X28059D01*
Y49229D01*
X28591Y49299D01*
X29553Y49697D01*
X30378Y50331D01*
X31012Y51156D01*
X31410Y52118D01*
X31480Y52650D01*
D02*
G37*
G36*
X37059D02*
X33638D01*
X33708Y52118D01*
X34106Y51156D01*
X34740Y50331D01*
X35566Y49697D01*
X36527Y49299D01*
X37059Y49229D01*
Y52650D01*
D02*
G37*
G36*
Y47071D02*
X36527Y47001D01*
X35566Y46602D01*
X34740Y45969D01*
X34106Y45143D01*
X33708Y44182D01*
X33638Y43650D01*
X37059D01*
Y47071D01*
D02*
G37*
G36*
Y42650D02*
X33638D01*
X33708Y42118D01*
X34106Y41156D01*
X34740Y40331D01*
X35566Y39697D01*
X36527Y39299D01*
X37059Y39229D01*
Y42650D01*
D02*
G37*
G36*
X27059D02*
X23638D01*
X23708Y42118D01*
X24106Y41156D01*
X24740Y40331D01*
X25566Y39697D01*
X26527Y39299D01*
X27059Y39229D01*
Y42650D01*
D02*
G37*
G36*
X31512Y37102D02*
X23606D01*
Y29197D01*
X31512D01*
Y37102D01*
D02*
G37*
G36*
X27059Y47071D02*
X26527Y47001D01*
X25566Y46602D01*
X24740Y45969D01*
X24106Y45143D01*
X23708Y44182D01*
X23638Y43650D01*
X27059D01*
Y47071D01*
D02*
G37*
G36*
X41480Y42650D02*
X38059D01*
Y39229D01*
X38591Y39299D01*
X39553Y39697D01*
X40378Y40331D01*
X41012Y41156D01*
X41410Y42118D01*
X41480Y42650D01*
D02*
G37*
G36*
X31480D02*
X28059D01*
Y39229D01*
X28591Y39299D01*
X29553Y39697D01*
X30378Y40331D01*
X31012Y41156D01*
X31410Y42118D01*
X31480Y42650D01*
D02*
G37*
G36*
X27059Y57071D02*
X26527Y57001D01*
X25566Y56602D01*
X24740Y55969D01*
X24106Y55143D01*
X23708Y54182D01*
X23638Y53650D01*
X27059D01*
Y57071D01*
D02*
G37*
G36*
X37059Y67071D02*
X36527Y67001D01*
X35566Y66602D01*
X34740Y65969D01*
X34106Y65143D01*
X33708Y64182D01*
X33638Y63650D01*
X37059D01*
Y67071D01*
D02*
G37*
G36*
X27059D02*
X26527Y67001D01*
X25566Y66602D01*
X24740Y65969D01*
X24106Y65143D01*
X23708Y64182D01*
X23638Y63650D01*
X27059D01*
Y67071D01*
D02*
G37*
G36*
X41480Y62650D02*
X38059D01*
Y59229D01*
X38591Y59299D01*
X39553Y59697D01*
X40378Y60331D01*
X41012Y61156D01*
X41410Y62118D01*
X41480Y62650D01*
D02*
G37*
G36*
X29543Y88992D02*
X22819D01*
Y84236D01*
X24042D01*
X24053Y84211D01*
X24093Y84059D01*
X24129Y83844D01*
X24142Y83695D01*
Y80558D01*
X24297Y79778D01*
X24739Y79116D01*
X25509Y78347D01*
X25462Y77691D01*
X25407Y77312D01*
X25337Y76977D01*
X25258Y76700D01*
X25175Y76482D01*
X25093Y76323D01*
X25022Y76222D01*
X24904Y76100D01*
X24897Y76089D01*
X24740Y75969D01*
X24106Y75143D01*
X23708Y74182D01*
X23572Y73150D01*
X23708Y72118D01*
X24106Y71156D01*
X24740Y70331D01*
X25566Y69697D01*
X26527Y69299D01*
X27559Y69163D01*
X28591Y69299D01*
X29553Y69697D01*
X30378Y70331D01*
X31012Y71156D01*
X31410Y72118D01*
X31546Y73150D01*
X31410Y74182D01*
X31012Y75143D01*
X30378Y75969D01*
X30221Y76089D01*
X30214Y76100D01*
X30096Y76222D01*
X30025Y76323D01*
X29943Y76481D01*
X29860Y76700D01*
X29781Y76977D01*
X29711Y77312D01*
X29656Y77691D01*
X29598Y78496D01*
Y79180D01*
X29598Y79180D01*
X29443Y79961D01*
X29001Y80622D01*
X28220Y81403D01*
Y83695D01*
X28233Y83844D01*
X28269Y84059D01*
X28310Y84211D01*
X28320Y84236D01*
X29543D01*
Y88992D01*
D02*
G37*
G36*
X38059Y67071D02*
Y63650D01*
X41480D01*
X41410Y64182D01*
X41012Y65143D01*
X40378Y65969D01*
X39553Y66602D01*
X38591Y67001D01*
X38059Y67071D01*
D02*
G37*
G36*
X28059D02*
Y63650D01*
X31480D01*
X31410Y64182D01*
X31012Y65143D01*
X30378Y65969D01*
X29553Y66602D01*
X28591Y67001D01*
X28059Y67071D01*
D02*
G37*
G36*
X31480Y62650D02*
X28059D01*
Y59229D01*
X28591Y59299D01*
X29553Y59697D01*
X30378Y60331D01*
X31012Y61156D01*
X31410Y62118D01*
X31480Y62650D01*
D02*
G37*
G36*
X38059Y57071D02*
Y53650D01*
X41480D01*
X41410Y54182D01*
X41012Y55143D01*
X40378Y55969D01*
X39553Y56602D01*
X38591Y57001D01*
X38059Y57071D01*
D02*
G37*
G36*
X28059D02*
Y53650D01*
X31480D01*
X31410Y54182D01*
X31012Y55143D01*
X30378Y55969D01*
X29553Y56602D01*
X28591Y57001D01*
X28059Y57071D01*
D02*
G37*
G36*
X37059D02*
X36527Y57001D01*
X35566Y56602D01*
X34740Y55969D01*
X34106Y55143D01*
X33708Y54182D01*
X33638Y53650D01*
X37059D01*
Y57071D01*
D02*
G37*
G36*
Y62650D02*
X33638D01*
X33708Y62118D01*
X34106Y61156D01*
X34740Y60331D01*
X35566Y59697D01*
X36527Y59299D01*
X37059Y59229D01*
Y62650D01*
D02*
G37*
G36*
X27059D02*
X23638D01*
X23708Y62118D01*
X24106Y61156D01*
X24740Y60331D01*
X25566Y59697D01*
X26527Y59299D01*
X27059Y59229D01*
Y62650D01*
D02*
G37*
G36*
X0Y66186D02*
X-1161Y66072D01*
X-2277Y65733D01*
X-3306Y65184D01*
X-4207Y64443D01*
X-4947Y63542D01*
X-5497Y62513D01*
X-5835Y61397D01*
X-5950Y60236D01*
X-5835Y59075D01*
X-5497Y57959D01*
X-4947Y56931D01*
X-4207Y56029D01*
X-3306Y55289D01*
X-2277Y54739D01*
X-1161Y54401D01*
X0Y54286D01*
X1161Y54401D01*
X2277Y54739D01*
X3306Y55289D01*
X4207Y56029D01*
X4947Y56931D01*
X5497Y57959D01*
X5836Y59075D01*
X5950Y60236D01*
X5836Y61397D01*
X5497Y62513D01*
X4947Y63542D01*
X4207Y64443D01*
X3306Y65184D01*
X2277Y65733D01*
X1161Y66072D01*
X0Y66186D01*
D02*
G37*
G36*
X-15148Y315834D02*
X-17098D01*
Y313884D01*
X-16622Y313979D01*
X-15795Y314531D01*
X-15243Y315358D01*
X-15148Y315834D01*
D02*
G37*
G36*
X-18098Y318783D02*
X-18573Y318689D01*
X-19400Y318136D01*
X-19953Y317309D01*
X-20047Y316834D01*
X-18098D01*
Y318783D01*
D02*
G37*
G36*
X-17098D02*
Y316834D01*
X-15148D01*
X-15243Y317309D01*
X-15795Y318136D01*
X-16622Y318689D01*
X-17098Y318783D01*
D02*
G37*
G36*
X20866Y451821D02*
X19512Y451688D01*
X18211Y451293D01*
X17011Y450652D01*
X15959Y449789D01*
X15097Y448737D01*
X14455Y447538D01*
X14061Y446236D01*
X13927Y444882D01*
X14061Y443528D01*
X14455Y442227D01*
X15097Y441027D01*
X15959Y439976D01*
X17011Y439113D01*
X18211Y438471D01*
X19512Y438076D01*
X20866Y437943D01*
X22220Y438076D01*
X23521Y438471D01*
X24721Y439113D01*
X25773Y439976D01*
X26636Y441027D01*
X27277Y442227D01*
X27672Y443528D01*
X27805Y444882D01*
X27672Y446236D01*
X27277Y447538D01*
X26636Y448737D01*
X25773Y449789D01*
X24721Y450652D01*
X23521Y451293D01*
X22220Y451688D01*
X20866Y451821D01*
D02*
G37*
G36*
X-18098Y315834D02*
X-20047D01*
X-19953Y315358D01*
X-19400Y314531D01*
X-18573Y313979D01*
X-18098Y313884D01*
Y315834D01*
D02*
G37*
G36*
X29147Y319771D02*
X27197D01*
X27292Y319295D01*
X27844Y318468D01*
X28671Y317916D01*
X29147Y317821D01*
Y319771D01*
D02*
G37*
G36*
X30147Y322720D02*
Y320771D01*
X32096D01*
X32001Y321246D01*
X31449Y322073D01*
X30622Y322626D01*
X30147Y322720D01*
D02*
G37*
G36*
X-28791Y384045D02*
X-29766Y383851D01*
X-30593Y383298D01*
X-31146Y382472D01*
X-31339Y381496D01*
X-31146Y380521D01*
X-30922Y380186D01*
X-30830Y378344D01*
Y319677D01*
X-30841Y319020D01*
X-30867Y318673D01*
X-31146Y318256D01*
X-31339Y317280D01*
X-31146Y316305D01*
X-30593Y315478D01*
X-29766Y314925D01*
X-28791Y314731D01*
X-27815Y314925D01*
X-26988Y315478D01*
X-26436Y316305D01*
X-26242Y317280D01*
X-26436Y318256D01*
X-26659Y318590D01*
X-26751Y320432D01*
Y332112D01*
X-26251Y332291D01*
X-25773Y331708D01*
X-24721Y330845D01*
X-23522Y330203D01*
X-22220Y329808D01*
X-20866Y329675D01*
X-19512Y329808D01*
X-18211Y330203D01*
X-17011Y330845D01*
X-15960Y331708D01*
X-15097Y332759D01*
X-14455Y333959D01*
X-14061Y335260D01*
X-13927Y336614D01*
X-14061Y337968D01*
X-14455Y339269D01*
X-15097Y340469D01*
X-15960Y341521D01*
X-17011Y342384D01*
X-18211Y343025D01*
X-19512Y343420D01*
X-20866Y343553D01*
X-22220Y343420D01*
X-23522Y343025D01*
X-24721Y342384D01*
X-25773Y341521D01*
X-26251Y340937D01*
X-26751Y341116D01*
Y379099D01*
X-26740Y379756D01*
X-26715Y380103D01*
X-26436Y380521D01*
X-26242Y381496D01*
X-26436Y382472D01*
X-26988Y383298D01*
X-27815Y383851D01*
X-28791Y384045D01*
D02*
G37*
G36*
X17732Y356315D02*
X9827D01*
Y348409D01*
X10767D01*
X10782Y348375D01*
X10822Y348224D01*
X10857Y348012D01*
X10870Y347865D01*
Y328680D01*
X11026Y327900D01*
X11468Y327238D01*
X25672Y313034D01*
X26129Y312561D01*
X26357Y312297D01*
X26454Y311805D01*
X27007Y310978D01*
X27834Y310425D01*
X28809Y310231D01*
X29785Y310425D01*
X30612Y310978D01*
X31164Y311805D01*
X31358Y312780D01*
X31164Y313756D01*
X30612Y314583D01*
X29785Y315135D01*
X29390Y315214D01*
X28022Y316451D01*
X14949Y329525D01*
Y332151D01*
X15449Y332330D01*
X15959Y331708D01*
X17011Y330845D01*
X18211Y330203D01*
X19512Y329808D01*
X20866Y329675D01*
X22220Y329808D01*
X23521Y330203D01*
X24721Y330845D01*
X25773Y331708D01*
X26636Y332759D01*
X27277Y333959D01*
X27672Y335260D01*
X27805Y336614D01*
X27672Y337968D01*
X27277Y339269D01*
X26636Y340469D01*
X25773Y341521D01*
X24721Y342384D01*
X23521Y343025D01*
X22220Y343420D01*
X20866Y343553D01*
X19512Y343420D01*
X18211Y343025D01*
X17011Y342384D01*
X15959Y341521D01*
X15449Y340898D01*
X14949Y341077D01*
Y347865D01*
X14962Y348012D01*
X14997Y348224D01*
X15037Y348375D01*
X15052Y348409D01*
X17732D01*
Y356315D01*
D02*
G37*
G36*
X32096Y319771D02*
X30147D01*
Y317821D01*
X30622Y317916D01*
X31449Y318468D01*
X32001Y319295D01*
X32096Y319771D01*
D02*
G37*
G36*
X34933Y11039D02*
X32268D01*
Y8374D01*
X34933D01*
Y11039D01*
D02*
G37*
G36*
X29147Y322720D02*
X28671Y322626D01*
X27844Y322073D01*
X27292Y321246D01*
X27197Y320771D01*
X29147D01*
Y322720D01*
D02*
G37*
G36*
X34933Y7374D02*
X32268D01*
Y4709D01*
X34933D01*
Y7374D01*
D02*
G37*
G36*
X-18565Y226504D02*
X-19540Y226310D01*
X-20367Y225757D01*
X-20920Y224930D01*
X-20998Y224535D01*
X-22236Y223168D01*
X-24926Y220477D01*
X-25289Y220140D01*
X-25587Y219902D01*
X-25847Y219721D01*
X-25883Y219701D01*
X-26621D01*
X-26659Y219708D01*
X-26697Y219701D01*
X-29149D01*
Y213370D01*
X-22819D01*
Y215822D01*
X-22811Y215860D01*
X-22819Y215899D01*
Y216637D01*
X-22798Y216673D01*
X-22625Y216921D01*
X-22136Y217499D01*
X-18818Y220818D01*
X-18346Y221274D01*
X-18082Y221502D01*
X-17590Y221600D01*
X-16762Y222152D01*
X-16210Y222979D01*
X-16016Y223955D01*
X-16210Y224930D01*
X-16762Y225757D01*
X-17590Y226310D01*
X-18565Y226504D01*
D02*
G37*
G36*
X38598Y7374D02*
X35933D01*
Y4709D01*
X38598D01*
Y7374D01*
D02*
G37*
G36*
X-24122Y345957D02*
X-26072D01*
X-25977Y345481D01*
X-25424Y344654D01*
X-24598Y344102D01*
X-24122Y344007D01*
Y345957D01*
D02*
G37*
G36*
X-8069Y185708D02*
X-9835D01*
Y184102D01*
X-6850D01*
Y184490D01*
X-6943Y184956D01*
X-7207Y185352D01*
X-7603Y185616D01*
X-8069Y185708D01*
D02*
G37*
G36*
X-40739Y363078D02*
X-42688D01*
Y361128D01*
X-42213Y361223D01*
X-41386Y361776D01*
X-40833Y362602D01*
X-40739Y363078D01*
D02*
G37*
G36*
X-30299Y202772D02*
X-36630D01*
Y196441D01*
X-35607D01*
X-35592Y196406D01*
X-35552Y196256D01*
X-35517Y196044D01*
X-35504Y195897D01*
Y194249D01*
X-35348Y193468D01*
X-34907Y192807D01*
X-33535Y191436D01*
Y191404D01*
X-33578Y190809D01*
X-33608Y190584D01*
X-33641Y190412D01*
X-33644Y190402D01*
X-34349Y189861D01*
X-34990Y189025D01*
X-35393Y188052D01*
X-35531Y187008D01*
X-35393Y185964D01*
X-34990Y184991D01*
X-34349Y184155D01*
X-33513Y183514D01*
X-32540Y183111D01*
X-31496Y182973D01*
X-30452Y183111D01*
X-29479Y183514D01*
X-28643Y184155D01*
X-28002Y184991D01*
X-27599Y185964D01*
X-27462Y187008D01*
X-27599Y188052D01*
X-28002Y189025D01*
X-28643Y189861D01*
X-29348Y190402D01*
X-29351Y190412D01*
X-29378Y190554D01*
X-29457Y191644D01*
Y192280D01*
X-29612Y193061D01*
X-30054Y193722D01*
X-31425Y195093D01*
Y195897D01*
X-31412Y196044D01*
X-31377Y196256D01*
X-31337Y196406D01*
X-31322Y196441D01*
X-30299D01*
Y202772D01*
D02*
G37*
G36*
X481Y186508D02*
X-1469D01*
Y184558D01*
X-993Y184653D01*
X-166Y185205D01*
X386Y186032D01*
X481Y186508D01*
D02*
G37*
G36*
X-2468D02*
X-4418D01*
X-4324Y186032D01*
X-3771Y185205D01*
X-2944Y184653D01*
X-2468Y184558D01*
Y186508D01*
D02*
G37*
G36*
X41839Y362686D02*
Y360736D01*
X43788D01*
X43694Y361212D01*
X43141Y362039D01*
X42314Y362591D01*
X41839Y362686D01*
D02*
G37*
G36*
X-42688Y366027D02*
Y364078D01*
X-40739D01*
X-40833Y364553D01*
X-41386Y365380D01*
X-42213Y365933D01*
X-42688Y366027D01*
D02*
G37*
G36*
X21154Y177453D02*
X20675D01*
X21154Y176974D01*
Y177453D01*
D02*
G37*
G36*
X19435D02*
X18198D01*
X17806Y176989D01*
X16063Y175246D01*
X14943Y175174D01*
X13680D01*
X13661Y175176D01*
X13589Y175187D01*
X13572Y175191D01*
X13554Y175214D01*
X13462Y175352D01*
X13424Y175377D01*
X13399Y175409D01*
X13269Y175480D01*
X13067Y175616D01*
X12600Y175708D01*
X10835D01*
Y173602D01*
Y171496D01*
X12600D01*
X13067Y171589D01*
X13269Y171724D01*
X13399Y171796D01*
X13424Y171828D01*
X13462Y171853D01*
X13554Y171991D01*
X13572Y172013D01*
X13589Y172018D01*
X13661Y172029D01*
X13680Y172031D01*
X14965D01*
X15698Y172016D01*
X16067Y171987D01*
X16135Y171978D01*
X16523Y171718D01*
X17303Y171563D01*
X18083Y171718D01*
X18745Y172160D01*
X20596Y174011D01*
X20958Y174348D01*
X21154Y174504D01*
Y175734D01*
X20971Y175630D01*
X20646Y175403D01*
X20292Y175120D01*
X19500Y174385D01*
X18086Y175799D01*
X18482Y176209D01*
X19104Y176945D01*
X19330Y177270D01*
X19435Y177453D01*
D02*
G37*
G36*
X-8069Y175708D02*
X-9835D01*
Y174102D01*
X-6850D01*
Y174490D01*
X-6943Y174956D01*
X-7207Y175352D01*
X-7603Y175616D01*
X-8069Y175708D01*
D02*
G37*
G36*
X-6850Y183102D02*
X-9835D01*
Y181496D01*
X-8069D01*
X-7603Y181589D01*
X-7207Y181853D01*
X-6943Y182248D01*
X-6850Y182714D01*
Y183102D01*
D02*
G37*
G36*
X21154Y181118D02*
X18488D01*
Y178666D01*
X18481Y178628D01*
X18488Y178590D01*
Y178453D01*
X19619D01*
X19613Y178472D01*
X19500Y178628D01*
X19675Y178453D01*
X21154D01*
Y181118D01*
D02*
G37*
G36*
X-20866Y451821D02*
X-22220Y451688D01*
X-23522Y451293D01*
X-24721Y450652D01*
X-25773Y449789D01*
X-26636Y448737D01*
X-27277Y447538D01*
X-27672Y446236D01*
X-27805Y444882D01*
X-27672Y443528D01*
X-27277Y442227D01*
X-26636Y441027D01*
X-25773Y439976D01*
X-24721Y439113D01*
X-23522Y438471D01*
X-22220Y438076D01*
X-20866Y437943D01*
X-19512Y438076D01*
X-18211Y438471D01*
X-17011Y439113D01*
X-15960Y439976D01*
X-15097Y441027D01*
X-14455Y442227D01*
X-14061Y443528D01*
X-13927Y444882D01*
X-14061Y446236D01*
X-14455Y447538D01*
X-15097Y448737D01*
X-15960Y449789D01*
X-17011Y450652D01*
X-18211Y451293D01*
X-19512Y451688D01*
X-20866Y451821D01*
D02*
G37*
G36*
X-500Y14854D02*
X-5901D01*
X-5835Y14194D01*
X-5497Y13077D01*
X-4947Y12049D01*
X-4207Y11147D01*
X-3306Y10407D01*
X-2277Y9857D01*
X-1161Y9519D01*
X-500Y9454D01*
Y14854D01*
D02*
G37*
G36*
X-23122Y348906D02*
Y346957D01*
X-21172D01*
X-21267Y347432D01*
X-21820Y348259D01*
X-22647Y348812D01*
X-23122Y348906D01*
D02*
G37*
G36*
X-24122D02*
X-24598Y348812D01*
X-25424Y348259D01*
X-25977Y347432D01*
X-26072Y346957D01*
X-24122D01*
Y348906D01*
D02*
G37*
G36*
X-21172Y345957D02*
X-23122D01*
Y344007D01*
X-22647Y344102D01*
X-21820Y344654D01*
X-21267Y345481D01*
X-21172Y345957D01*
D02*
G37*
G36*
X38598Y11039D02*
X35933D01*
Y8374D01*
X38598D01*
Y11039D01*
D02*
G37*
G36*
X5901Y14854D02*
X500D01*
Y9454D01*
X1161Y9519D01*
X2277Y9857D01*
X3306Y10407D01*
X4207Y11147D01*
X4947Y12049D01*
X5497Y13077D01*
X5836Y14194D01*
X5901Y14854D01*
D02*
G37*
G36*
X43788Y359736D02*
X41839D01*
Y357787D01*
X42314Y357881D01*
X43141Y358434D01*
X43694Y359261D01*
X43788Y359736D01*
D02*
G37*
G36*
X-2468Y189457D02*
X-2944Y189363D01*
X-3771Y188810D01*
X-4324Y187983D01*
X-4418Y187508D01*
X-2468D01*
Y189457D01*
D02*
G37*
G36*
X-1469D02*
Y187508D01*
X481D01*
X386Y187983D01*
X-166Y188810D01*
X-993Y189363D01*
X-1469Y189457D01*
D02*
G37*
G36*
X40839Y359736D02*
X38889D01*
X38984Y359261D01*
X39536Y358434D01*
X40363Y357881D01*
X40839Y357787D01*
Y359736D01*
D02*
G37*
G36*
Y362686D02*
X40363Y362591D01*
X39536Y362039D01*
X38984Y361212D01*
X38889Y360736D01*
X40839D01*
Y362686D01*
D02*
G37*
%LPD*%
G36*
X38391Y21838D02*
X39014Y21286D01*
X39135Y21197D01*
X39243Y21128D01*
X39337Y21079D01*
X39417Y21049D01*
X39484Y21039D01*
X37216Y21051D01*
X37215Y21054D01*
X37211Y21060D01*
X37203Y21069D01*
X37164Y21111D01*
X37072Y21205D01*
X38201Y22025D01*
X38391Y21838D01*
D02*
G37*
G36*
X39486Y30831D02*
X39226Y30418D01*
X38997Y29962D01*
X38798Y29462D01*
X38630Y28919D01*
X38493Y28333D01*
X38386Y27703D01*
X38309Y27030D01*
X38248Y25554D01*
X36870D01*
X36855Y26314D01*
X36733Y27703D01*
X36625Y28333D01*
X36488Y28919D01*
X36320Y29462D01*
X36121Y29962D01*
X35892Y30418D01*
X35632Y30831D01*
X35342Y31200D01*
X39777D01*
X39486Y30831D01*
D02*
G37*
G36*
X-19843Y173024D02*
X-20014Y172964D01*
X-20164Y172864D01*
X-20293Y172724D01*
X-20404Y172544D01*
X-20493Y172324D01*
X-20564Y172064D01*
X-20614Y171764D01*
X-20643Y171424D01*
X-20654Y171044D01*
X-22654D01*
X-22664Y171424D01*
X-22693Y171764D01*
X-22743Y172064D01*
X-22814Y172324D01*
X-22904Y172544D01*
X-23014Y172724D01*
X-23144Y172864D01*
X-23293Y172964D01*
X-23464Y173024D01*
X-23654Y173044D01*
X-19654D01*
X-19843Y173024D01*
D02*
G37*
G36*
X27991Y85240D02*
X27821Y85180D01*
X27671Y85079D01*
X27541Y84938D01*
X27431Y84757D01*
X27341Y84536D01*
X27271Y84274D01*
X27221Y83973D01*
X27191Y83630D01*
X27181Y83248D01*
X25181D01*
X25171Y83630D01*
X25141Y83973D01*
X25091Y84274D01*
X25021Y84536D01*
X24931Y84757D01*
X24821Y84938D01*
X24691Y85079D01*
X24541Y85180D01*
X24371Y85240D01*
X24181Y85260D01*
X28181D01*
X27991Y85240D01*
D02*
G37*
G36*
X28568Y78603D02*
X28642Y77580D01*
X28707Y77135D01*
X28790Y76734D01*
X28892Y76377D01*
X29012Y76064D01*
X29150Y75795D01*
X29307Y75570D01*
X29483Y75390D01*
X25635D01*
X25811Y75570D01*
X25968Y75795D01*
X26107Y76064D01*
X26226Y76377D01*
X26328Y76734D01*
X26411Y77135D01*
X26476Y77580D01*
X26550Y78603D01*
X26559Y79180D01*
X28559D01*
X28568Y78603D01*
D02*
G37*
G36*
X-27664Y318271D02*
X-29917D01*
X-29893Y318322D01*
X-29871Y318418D01*
X-29853Y318559D01*
X-29822Y318975D01*
X-29791Y320798D01*
X-27791D01*
X-27664Y318271D01*
D02*
G37*
G36*
X-27688Y380454D02*
X-27710Y380359D01*
X-27729Y380218D01*
X-27759Y379802D01*
X-27791Y377978D01*
X-29791D01*
X-29917Y380506D01*
X-27664D01*
X-27688Y380454D01*
D02*
G37*
G36*
X28906Y314277D02*
X27312Y312684D01*
X27293Y312737D01*
X27241Y312820D01*
X27155Y312933D01*
X26882Y313249D01*
X25615Y314561D01*
X27029Y315975D01*
X28906Y314277D01*
D02*
G37*
G36*
X14719Y349401D02*
X14549Y349341D01*
X14399Y349241D01*
X14269Y349101D01*
X14160Y348921D01*
X14070Y348701D01*
X13999Y348441D01*
X13949Y348141D01*
X13919Y347801D01*
X13909Y347421D01*
X11909D01*
X11900Y347801D01*
X11869Y348141D01*
X11819Y348441D01*
X11750Y348701D01*
X11659Y348921D01*
X11549Y349101D01*
X11419Y349241D01*
X11270Y349341D01*
X11100Y349401D01*
X10909Y349421D01*
X14909D01*
X14719Y349401D01*
D02*
G37*
G36*
X-18469Y222458D02*
X-18522Y222439D01*
X-18605Y222386D01*
X-18718Y222300D01*
X-19034Y222027D01*
X-20346Y220760D01*
X-21760Y222174D01*
X-20062Y224051D01*
X-18469Y222458D01*
D02*
G37*
G36*
X-22417Y218689D02*
X-22813Y218279D01*
X-23435Y217543D01*
X-23661Y217218D01*
X-23831Y216921D01*
X-23944Y216652D01*
X-24001Y216412D01*
Y216200D01*
X-23944Y216016D01*
X-23831Y215860D01*
X-26659Y218689D01*
X-26504Y218576D01*
X-26320Y218519D01*
X-26108D01*
X-25867Y218576D01*
X-25599Y218689D01*
X-25302Y218859D01*
X-24976Y219085D01*
X-24623Y219368D01*
X-23831Y220103D01*
X-22417Y218689D01*
D02*
G37*
G36*
X-31655Y197433D02*
X-31824Y197373D01*
X-31975Y197273D01*
X-32105Y197133D01*
X-32215Y196953D01*
X-32305Y196733D01*
X-32375Y196473D01*
X-32425Y196173D01*
X-32455Y195833D01*
X-32465Y195453D01*
X-34465D01*
X-34475Y195833D01*
X-34505Y196173D01*
X-34555Y196473D01*
X-34624Y196733D01*
X-34715Y196953D01*
X-34824Y197133D01*
X-34955Y197273D01*
X-35105Y197373D01*
X-35274Y197433D01*
X-35465Y197453D01*
X-31465D01*
X-31655Y197433D01*
D02*
G37*
G36*
X-30492Y191821D02*
X-30391Y190421D01*
X-30345Y190180D01*
X-30290Y189982D01*
X-30227Y189828D01*
X-30156Y189717D01*
X-30076Y189650D01*
X-32916D01*
X-32836Y189717D01*
X-32765Y189828D01*
X-32702Y189982D01*
X-32647Y190180D01*
X-32601Y190421D01*
X-32563Y190706D01*
X-32513Y191406D01*
X-32496Y192280D01*
X-30496D01*
X-30492Y191821D01*
D02*
G37*
G36*
X16596Y172895D02*
X16545Y172926D01*
X16458Y172955D01*
X16334Y172979D01*
X16175Y173001D01*
X15748Y173034D01*
X14462Y173061D01*
Y174144D01*
X14838Y174145D01*
X16458Y174250D01*
X16545Y174278D01*
X16596Y174310D01*
Y172895D01*
D02*
G37*
G36*
X12788Y174538D02*
X12851Y174455D01*
X12928Y174382D01*
X13020Y174319D01*
X13126Y174265D01*
X13248Y174222D01*
X13384Y174187D01*
X13535Y174163D01*
X13701Y174148D01*
X13881Y174144D01*
Y173061D01*
X13701Y173056D01*
X13535Y173041D01*
X13384Y173017D01*
X13248Y172983D01*
X13126Y172939D01*
X13020Y172886D01*
X12928Y172823D01*
X12851Y172750D01*
X12788Y172667D01*
X12740Y172574D01*
Y174630D01*
X12788Y174538D01*
D02*
G37*
%LPC*%
G36*
X-27059Y276175D02*
Y275697D01*
X-26581D01*
X-27059Y276175D01*
D02*
G37*
G36*
X-24394Y274697D02*
X-25525D01*
X-25519Y274677D01*
X-25406Y274522D01*
X-25581Y274697D01*
X-27059D01*
Y272032D01*
X-24394D01*
Y274484D01*
X-24386Y274522D01*
X-24394Y274560D01*
Y274697D01*
D02*
G37*
G36*
X0Y313090D02*
X-1044Y312952D01*
X-2017Y312549D01*
X-2853Y311908D01*
X-3494Y311072D01*
X-3897Y310099D01*
X-4034Y309055D01*
X-3897Y308011D01*
X-3494Y307038D01*
X-2853Y306202D01*
X-2017Y305561D01*
X-1044Y305158D01*
X0Y305021D01*
X1044Y305158D01*
X2017Y305561D01*
X2853Y306202D01*
X3494Y307038D01*
X3897Y308011D01*
X4035Y309055D01*
X3897Y310099D01*
X3494Y311072D01*
X2853Y311908D01*
X2017Y312549D01*
X1044Y312952D01*
X0Y313090D01*
D02*
G37*
G36*
X14854Y296473D02*
X12189D01*
Y293807D01*
X14854D01*
Y296473D01*
D02*
G37*
G36*
X11430Y302054D02*
X9480D01*
X9575Y301579D01*
X10127Y300752D01*
X10954Y300199D01*
X11430Y300105D01*
Y302054D01*
D02*
G37*
G36*
X14854Y292807D02*
X12189D01*
Y290142D01*
X14854D01*
Y292807D01*
D02*
G37*
%LPD*%
D10*
X-17126Y204527D02*
D03*
Y197047D02*
D03*
X-7874Y200787D02*
D03*
X14469Y197047D02*
D03*
Y204527D02*
D03*
X5216Y200787D02*
D03*
D11*
X37697Y251969D02*
D03*
X29232Y248228D02*
D03*
Y255709D02*
D03*
X37697Y265945D02*
D03*
Y273425D02*
D03*
X29232Y269685D02*
D03*
D12*
X39567Y19685D02*
D03*
X25000D02*
D03*
X40748Y86614D02*
D03*
X26181D02*
D03*
D13*
X11122Y268091D02*
D03*
Y273091D02*
D03*
Y278091D02*
D03*
Y283090D02*
D03*
X-11122Y268091D02*
D03*
Y273091D02*
D03*
Y278091D02*
D03*
Y283090D02*
D03*
D14*
X-10335Y188602D02*
D03*
Y183602D02*
D03*
Y178602D02*
D03*
Y173602D02*
D03*
X10335Y188602D02*
D03*
Y183602D02*
D03*
Y178602D02*
D03*
Y173602D02*
D03*
D15*
X3937Y257874D02*
D03*
X-2362D02*
D03*
X14961Y248031D02*
D03*
X8661D02*
D03*
D16*
X-27559Y275197D02*
D03*
Y268110D02*
D03*
X21654Y248031D02*
D03*
Y255118D02*
D03*
X23622Y204725D02*
D03*
Y211811D02*
D03*
X-25591Y199606D02*
D03*
Y206693D02*
D03*
X-33465D02*
D03*
Y199606D02*
D03*
X-21654Y182283D02*
D03*
Y175197D02*
D03*
X21654Y177953D02*
D03*
Y185039D02*
D03*
D17*
X33465Y176378D02*
D03*
Y181890D02*
D03*
D18*
X21654Y272441D02*
D03*
Y266929D02*
D03*
D19*
X-33071Y216535D02*
D03*
X-25984D02*
D03*
X29528Y279527D02*
D03*
X22441D02*
D03*
X35433Y7874D02*
D03*
X28346D02*
D03*
X15354Y293307D02*
D03*
X8268D02*
D03*
D20*
X12910Y328680D02*
Y352362D01*
X14609Y188602D02*
X18090D01*
X10335D02*
X14609D01*
X23130Y161417D02*
X33109Y171397D01*
X-25591Y161102D02*
X-23130Y163563D01*
X12910Y328680D02*
X28809Y312780D01*
X14961Y248031D02*
X21654D01*
X14961D02*
X15748Y248031D01*
X-15191Y42750D02*
X0Y27559D01*
X26181Y80558D02*
Y86614D01*
Y80558D02*
X27559Y79180D01*
X-25591Y199606D02*
X-23031Y197047D01*
X-25591Y206693D02*
X-6803Y225480D01*
X-25984Y216535D02*
X-18565Y223955D01*
X3985Y423180D02*
X9842Y417323D01*
X11930Y239562D02*
X32034D01*
X41370Y248898D01*
Y275435D01*
X36309Y280495D02*
X41370Y275435D01*
X36309Y280495D02*
Y289838D01*
X28267Y297880D02*
X36309Y289838D01*
X25510Y192780D02*
X44370Y211641D01*
X39309Y282680D02*
X44370Y277620D01*
Y211641D02*
Y277620D01*
X25917Y297880D02*
X28267D01*
X21243Y302554D02*
X25917Y297880D01*
X11930Y302554D02*
X21243D01*
X1010Y366280D02*
X1969Y365321D01*
Y328421D02*
Y365321D01*
Y328421D02*
X25109Y305280D01*
X29509Y300880D02*
X39309Y291080D01*
X27160Y300880D02*
X29509D01*
X25109Y302931D02*
X27160Y300880D01*
X25109Y302931D02*
Y305280D01*
X39309Y282680D02*
Y291080D01*
X-6256Y325153D02*
X9842Y309055D01*
X-9843D02*
Y417323D01*
X-12916Y309055D02*
X-9843D01*
X-10335Y178602D02*
X7409D01*
X-7874Y200787D02*
X3509D01*
X-28791Y317280D02*
Y381496D01*
X18139Y399606D02*
X25536D01*
X5713Y387180D02*
X18139Y399606D01*
X-37291Y210519D02*
X-33465Y206693D01*
X-37291Y210519D02*
Y293580D01*
X-24291Y306580D01*
X34009Y267345D02*
Y275046D01*
X29528Y279527D02*
X34009Y275046D01*
X17303Y173602D02*
X21654Y177953D01*
X34209Y190480D02*
X38209Y186480D01*
X5905Y293307D02*
X8268D01*
X-9843Y309055D02*
X5905Y293307D01*
X15210Y23885D02*
X19410Y19685D01*
X15210Y23885D02*
Y163780D01*
X25909Y174480D01*
Y183539D01*
X21654Y185039D02*
X25909Y183539D01*
X18090Y188602D02*
X21654Y185039D01*
X14609Y186780D02*
Y188602D01*
X-1000Y406480D02*
X9842Y417323D01*
X-3256Y406480D02*
X-1000D01*
X-6256Y403480D02*
X-3256Y406480D01*
X-6256Y325153D02*
Y403480D01*
X-27559Y258680D02*
Y268110D01*
Y258680D02*
X-26591Y257712D01*
Y233252D02*
Y257712D01*
X-31496Y228346D02*
X-26591Y233252D01*
X-8591Y288280D02*
X-5791Y285480D01*
X-25481Y288280D02*
X-8591D01*
X25000Y11221D02*
X28346Y7874D01*
X-26378Y182283D02*
X-21654D01*
X-31496Y177165D02*
X-26378Y182283D01*
X-31591Y423180D02*
X3985D01*
X-36691Y418080D02*
X-31591Y423180D01*
X-36691Y368187D02*
Y418080D01*
X22503Y7874D02*
X28346D01*
X21010Y6380D02*
X22503Y7874D01*
X-31496Y248346D02*
Y252186D01*
X-31791Y252480D02*
X-31496Y252186D01*
X-31791Y252480D02*
Y290180D01*
X-12916Y309055D01*
X-27559Y275197D02*
X-19666Y283090D01*
X-40791Y197180D02*
Y272080D01*
X-16641Y297580D02*
X-13390D01*
X-2591Y286780D01*
Y265880D02*
Y286780D01*
X-13891Y254580D02*
X-2591Y265880D01*
X-13891Y239180D02*
Y254580D01*
Y239180D02*
X-8591Y233880D01*
X5509D01*
X17809Y221580D01*
X5000Y218504D02*
X13886D01*
X14310Y218080D01*
X25833D01*
X27809Y216104D01*
Y199447D02*
Y216104D01*
X25409Y197047D02*
X27809Y199447D01*
X-2090Y366280D02*
Y386780D01*
X5809Y191480D02*
X7109Y192780D01*
X25510D01*
X12910Y352362D02*
X13779D01*
X6109Y329769D02*
Y379480D01*
X1909Y383680D02*
X6109Y379480D01*
X1909Y383680D02*
Y399780D01*
X-1091Y402780D02*
X1909Y399780D01*
X-6803Y225480D02*
X-1976D01*
X5000Y218504D01*
X28609Y304380D02*
X30609D01*
X42809Y292180D01*
Y286180D02*
Y292180D01*
X15354Y293307D02*
X24336D01*
X25709Y294680D01*
X-5000Y209480D02*
Y218504D01*
X-9953Y204527D02*
X-5000Y209480D01*
Y218504D02*
X1693Y211811D01*
X23622D01*
X23425Y204527D02*
X23622Y204725D01*
X32709Y244480D02*
X37709Y249480D01*
X25205Y244480D02*
X32709D01*
X21654Y248031D02*
X25205Y244480D01*
X-15191Y42750D02*
Y181384D01*
X-16091Y182283D02*
X-15191Y181384D01*
X-21654Y182283D02*
X-16091D01*
X-11122Y273091D02*
Y278091D01*
X-21654Y168957D02*
Y175197D01*
X-23130Y167480D02*
X-21654Y168957D01*
X-23130Y163563D02*
Y167480D01*
X27559Y73150D02*
Y79180D01*
X37697Y259382D02*
Y265945D01*
X37695Y259380D02*
X37697Y259382D01*
X37695Y252953D02*
Y259380D01*
X29232Y263182D02*
Y269685D01*
X29231Y263180D02*
X29232Y263182D01*
X29231Y256693D02*
Y263180D01*
X16659Y272441D02*
X21654D01*
X16010Y273091D02*
X16659Y272441D01*
X11122Y273091D02*
X16010D01*
X26765Y269685D02*
X29232D01*
X24010Y272441D02*
X26765Y269685D01*
X21654Y272441D02*
X24010D01*
X22441Y276368D02*
Y279527D01*
X21654Y275580D02*
X22441Y276368D01*
X21654Y272441D02*
Y275580D01*
Y255118D02*
Y266929D01*
X16871D02*
X21654D01*
X15710Y268091D02*
X16871Y266929D01*
X11122Y268091D02*
X15710D01*
X-33465Y194249D02*
Y199606D01*
Y194249D02*
X-31496Y192280D01*
Y187008D02*
Y192280D01*
Y223155D02*
Y228346D01*
X-33071Y221580D02*
X-31496Y223155D01*
X-33071Y216535D02*
Y221580D01*
X-19371Y268091D02*
X-11122D01*
X-19390Y268110D02*
X-19371Y268091D01*
X-27559Y268110D02*
X-19390D01*
D21*
X38209Y86614D02*
Y186480D01*
X33109Y171397D02*
Y176378D01*
X33709Y86614D02*
X38209D01*
X29109Y184190D02*
X31409Y181890D01*
X29109Y184190D02*
Y190380D01*
X28809Y190680D02*
X29109Y190380D01*
X38209Y86614D02*
X40748D01*
X19410Y19685D02*
X25000D01*
Y11221D02*
Y19685D01*
X37559Y21692D02*
Y33150D01*
Y21692D02*
X39567Y19685D01*
X31409Y181890D02*
X33465D01*
X33109Y176378D02*
X33465D01*
D22*
X-12291Y188602D02*
Y198880D01*
Y188602D02*
X-10335D01*
X7409Y178602D02*
X10335D01*
Y173602D02*
X17303D01*
X5809Y180202D02*
X7409Y178602D01*
X5809Y180202D02*
Y191480D01*
D23*
X-17190Y201880D02*
Y204527D01*
X3509Y200787D02*
Y205380D01*
X37709Y249480D02*
Y252953D01*
X37695D02*
X37709D01*
X1969Y192913D02*
X6102Y197047D01*
X14469D01*
X3509Y200787D02*
X5216D01*
X35409Y265945D02*
X37697D01*
X34009Y267345D02*
X35409Y265945D01*
X-23031Y197047D02*
X-17126D01*
X14469D02*
X25409D01*
X-17126Y204527D02*
X-9953D01*
X14469D02*
X23425D01*
X-17190D02*
X-17126D01*
X-17190Y201880D02*
X-15291D01*
X-12291Y198880D01*
D24*
X6693Y251564D02*
X7985Y251246D01*
X8661Y251080D01*
X38D02*
X8661D01*
Y248031D02*
Y251080D01*
X6693Y251564D02*
X8509Y253380D01*
X-2362Y253480D02*
X38Y251080D01*
X-2362Y253480D02*
Y257874D01*
X3937D02*
Y269618D01*
D25*
X-11122Y268091D02*
X-7180D01*
X-5791Y269480D01*
Y285480D01*
X-19666Y283090D02*
X-11122D01*
X8268Y285945D02*
Y293307D01*
Y285945D02*
X11122Y283090D01*
X3937Y269618D02*
X7409Y273091D01*
X11122D01*
D26*
X-8858Y244094D02*
D03*
X984D02*
D03*
X-25591Y141732D02*
D03*
X9842Y417323D02*
D03*
X-9843D02*
D03*
X0D02*
D03*
X-5000Y218504D02*
D03*
X5000D02*
D03*
X-31496Y177165D02*
D03*
Y187008D02*
D03*
X9842Y309055D02*
D03*
X-9843D02*
D03*
X0D02*
D03*
X25591Y142047D02*
D03*
X0Y40866D02*
D03*
X-25591Y75787D02*
D03*
Y85630D02*
D03*
D27*
Y116220D02*
D03*
Y128425D02*
D03*
Y161102D02*
D03*
X25591Y116535D02*
D03*
Y128740D02*
D03*
Y161417D02*
D03*
X0Y15354D02*
D03*
Y27559D02*
D03*
Y60236D02*
D03*
D28*
X-20866Y444882D02*
D03*
X20866D02*
D03*
X-20866Y336614D02*
D03*
X20866D02*
D03*
D29*
X13779Y352362D02*
D03*
X-15748D02*
D03*
D30*
X27559Y33150D02*
D03*
D31*
X37559D02*
D03*
X27559Y43150D02*
D03*
X37559D02*
D03*
X27559Y53150D02*
D03*
X37559D02*
D03*
X27559Y63150D02*
D03*
X37559D02*
D03*
X27559Y73150D02*
D03*
X37559D02*
D03*
D32*
X-31496Y248346D02*
D03*
X-21496Y238347D02*
D03*
D33*
X-31496Y228346D02*
D03*
D34*
X-43188Y363578D02*
D03*
X41339Y360236D02*
D03*
X-1850Y336019D02*
D03*
X33584Y231688D02*
D03*
X-17598Y316334D02*
D03*
X-23622Y346457D02*
D03*
X29647Y320271D02*
D03*
X11930Y239562D02*
D03*
Y302554D02*
D03*
X-3937Y169291D02*
D03*
X-1969Y187008D02*
D03*
X1969Y192913D02*
D03*
X12641Y182843D02*
D03*
X-28791Y381496D02*
D03*
Y317280D02*
D03*
X25536Y399606D02*
D03*
X5713Y387180D02*
D03*
X-24291Y306580D02*
D03*
X3509Y205380D02*
D03*
X-18565Y223955D02*
D03*
X34209Y190480D02*
D03*
X14609Y186780D02*
D03*
X-25481Y288280D02*
D03*
X8509Y253380D02*
D03*
X-36691Y368187D02*
D03*
X21010Y6380D02*
D03*
X28809Y190680D02*
D03*
X-40791Y197180D02*
D03*
Y272080D02*
D03*
X-16641Y297580D02*
D03*
X17809Y221580D02*
D03*
X-2090Y366280D02*
D03*
Y386780D02*
D03*
X1010Y366280D02*
D03*
X28809Y312780D02*
D03*
X6109Y329769D02*
D03*
X-1091Y402780D02*
D03*
X28609Y304380D02*
D03*
X42809Y286180D02*
D03*
X25709Y294680D02*
D03*
X33709Y86614D02*
D03*
M02*
