G04 Layer_Color=8421504*
%FSLAX25Y25*%
%MOIN*%
G70*
G01*
G75*
%ADD10R,0.05709X0.02362*%
%ADD11R,0.03347X0.02362*%
%ADD12R,0.04724X0.02756*%
G04:AMPARAMS|DCode=13|XSize=25.59mil|YSize=64.96mil|CornerRadius=1.92mil|HoleSize=0mil|Usage=FLASHONLY|Rotation=270.000|XOffset=0mil|YOffset=0mil|HoleType=Round|Shape=RoundedRectangle|*
%AMROUNDEDRECTD13*
21,1,0.02559,0.06112,0,0,270.0*
21,1,0.02175,0.06496,0,0,270.0*
1,1,0.00384,-0.03056,-0.01088*
1,1,0.00384,-0.03056,0.01088*
1,1,0.00384,0.03056,0.01088*
1,1,0.00384,0.03056,-0.01088*
%
%ADD13ROUNDEDRECTD13*%
G04:AMPARAMS|DCode=14|XSize=21.65mil|YSize=49.21mil|CornerRadius=1.95mil|HoleSize=0mil|Usage=FLASHONLY|Rotation=90.000|XOffset=0mil|YOffset=0mil|HoleType=Round|Shape=RoundedRectangle|*
%AMROUNDEDRECTD14*
21,1,0.02165,0.04532,0,0,90.0*
21,1,0.01776,0.04921,0,0,90.0*
1,1,0.00390,0.02266,0.00888*
1,1,0.00390,0.02266,-0.00888*
1,1,0.00390,-0.02266,-0.00888*
1,1,0.00390,-0.02266,0.00888*
%
%ADD14ROUNDEDRECTD14*%
%ADD15R,0.03740X0.05315*%
%ADD16R,0.04331X0.04331*%
%ADD17R,0.03543X0.02756*%
%ADD18R,0.03543X0.03150*%
%ADD19R,0.04331X0.04331*%
D10*
X-17126Y204527D02*
D03*
Y197047D02*
D03*
X-7874Y200787D02*
D03*
X14469Y197047D02*
D03*
Y204527D02*
D03*
X5216Y200787D02*
D03*
D11*
X37697Y251969D02*
D03*
X29232Y248228D02*
D03*
Y255709D02*
D03*
X37697Y265945D02*
D03*
Y273425D02*
D03*
X29232Y269685D02*
D03*
D12*
X39567Y19685D02*
D03*
X25000D02*
D03*
X40748Y86614D02*
D03*
X26181D02*
D03*
D13*
X11122Y268091D02*
D03*
Y273091D02*
D03*
Y278091D02*
D03*
Y283090D02*
D03*
X-11122Y268091D02*
D03*
Y273091D02*
D03*
Y278091D02*
D03*
Y283090D02*
D03*
D14*
X-10335Y188602D02*
D03*
Y183602D02*
D03*
Y178602D02*
D03*
Y173602D02*
D03*
X10335Y188602D02*
D03*
Y183602D02*
D03*
Y178602D02*
D03*
Y173602D02*
D03*
D15*
X3937Y257874D02*
D03*
X-2362D02*
D03*
X14961Y248031D02*
D03*
X8661D02*
D03*
D16*
X-27559Y275197D02*
D03*
Y268110D02*
D03*
X21654Y248031D02*
D03*
Y255118D02*
D03*
X23622Y204725D02*
D03*
Y211811D02*
D03*
X-25591Y199606D02*
D03*
Y206693D02*
D03*
X-33465D02*
D03*
Y199606D02*
D03*
X-21654Y182283D02*
D03*
Y175197D02*
D03*
X21654Y177953D02*
D03*
Y185039D02*
D03*
D17*
X33465Y176378D02*
D03*
Y181890D02*
D03*
D18*
X21654Y272441D02*
D03*
Y266929D02*
D03*
D19*
X-33071Y216535D02*
D03*
X-25984D02*
D03*
X29528Y279527D02*
D03*
X22441D02*
D03*
X35433Y7874D02*
D03*
X28346D02*
D03*
X15354Y293307D02*
D03*
X8268D02*
D03*
M02*
