G04 Layer_Color=32768*
%FSLAX25Y25*%
%MOIN*%
G70*
G01*
G75*
%ADD71C,0.00394*%
%ADD72C,0.00197*%
D71*
X-21949Y192913D02*
Y208662D01*
X-3051Y192913D02*
Y208662D01*
X-21949D02*
X-3051D01*
X-21949Y192913D02*
X-3051D01*
X-14469Y200787D02*
X-10532D01*
X-12500Y198819D02*
Y202756D01*
X33465Y250000D02*
Y253937D01*
X31496Y251969D02*
X35433D01*
X27165Y245669D02*
X39764D01*
X27165Y258268D02*
X39764D01*
Y245669D02*
Y258268D01*
X27165Y245669D02*
Y258268D01*
X-1969Y275590D02*
X1968D01*
X0Y273622D02*
Y277559D01*
X5905Y387795D02*
X9842D01*
X7874Y385827D02*
Y389764D01*
X-35433Y291338D02*
Y295275D01*
X-37402Y293307D02*
X-33465D01*
X30315Y19685D02*
X34252D01*
X32283Y17716D02*
Y21653D01*
X-1969Y275590D02*
X1968D01*
X0Y273622D02*
Y277559D01*
X-1969Y181102D02*
X1968D01*
X0Y179134D02*
Y183071D01*
X788Y255906D02*
Y259842D01*
X-1181Y257874D02*
X2756D01*
X-33602Y238347D02*
X-29665D01*
X-31634Y236378D02*
Y240315D01*
X22047Y404528D02*
Y410433D01*
X33071Y404528D02*
Y410433D01*
X22047Y404528D02*
X33071D01*
X22047Y410433D02*
X33071D01*
X25591Y407480D02*
X29528D01*
X27559Y405512D02*
Y409449D01*
X19783Y269685D02*
X23524D01*
X21654Y267815D02*
Y271555D01*
X23819Y264961D02*
Y274410D01*
X19488Y264961D02*
Y274410D01*
X23819D01*
X19488Y264961D02*
X23819D01*
X39764Y263386D02*
Y275984D01*
X27165Y263386D02*
Y275984D01*
Y263386D02*
X39764D01*
X27165Y275984D02*
X39764D01*
X31496Y269685D02*
X35433D01*
X33465Y267717D02*
Y271654D01*
X-9449Y231299D02*
Y237205D01*
X1575Y231299D02*
Y237205D01*
X-9449Y231299D02*
X1575D01*
X-9449Y237205D02*
X1575D01*
X-5906Y234252D02*
X-1969D01*
X-3937Y232283D02*
Y236221D01*
X24606Y348031D02*
X30512D01*
X24606Y359055D02*
X30512D01*
Y348031D02*
Y359055D01*
X24606Y348031D02*
Y359055D01*
X27559Y351575D02*
Y355512D01*
X25591Y353543D02*
X29528D01*
X-34252Y404528D02*
Y410433D01*
X-23228Y404528D02*
Y410433D01*
X-34252Y404528D02*
X-23228D01*
X-34252Y410433D02*
X-23228D01*
X-30709Y407480D02*
X-26772D01*
X-28740Y405512D02*
Y409449D01*
X16142Y302165D02*
Y308071D01*
X27165Y302165D02*
Y308071D01*
X16142Y302165D02*
X27165D01*
X16142Y308071D02*
X27165D01*
X19685Y305118D02*
X23622D01*
X21654Y303150D02*
Y307087D01*
X19291Y192913D02*
Y208662D01*
X394Y192913D02*
Y208662D01*
Y192913D02*
X19291D01*
X394Y208662D02*
X19291D01*
X7874Y200787D02*
X11811D01*
X9842Y198819D02*
Y202756D01*
X31496Y86614D02*
X35433D01*
X33465Y84646D02*
Y88583D01*
X30315Y96457D02*
X34252D01*
X32283Y94488D02*
Y98425D01*
X30315Y11811D02*
X34252D01*
X32283Y9843D02*
Y13780D01*
X11811Y246063D02*
Y250000D01*
X9843Y248031D02*
X13780D01*
D72*
X-25984Y253445D02*
Y297736D01*
X25984Y253445D02*
Y297736D01*
X-25984D02*
X25984D01*
X-25984Y253445D02*
X25984D01*
X17874Y372295D02*
Y404295D01*
X-18110Y372295D02*
Y404295D01*
Y372295D02*
X17874D01*
X-18110Y404295D02*
X17874D01*
X37205Y373819D02*
Y382087D01*
X21850Y373819D02*
Y382087D01*
X37205D01*
X21850Y373819D02*
X37205D01*
X27657Y377953D02*
X31398D01*
X29528Y376083D02*
Y379823D01*
X-45079Y280709D02*
X-25787D01*
Y305906D01*
X-45079D02*
X-25787D01*
X-45079Y280709D02*
Y305906D01*
X42520Y15551D02*
Y23819D01*
X22047Y15551D02*
Y23819D01*
Y15551D02*
X42520D01*
X22047Y23819D02*
X42520D01*
X16339Y263779D02*
Y287402D01*
X-16339Y263779D02*
Y287402D01*
Y263779D02*
X16339D01*
X-16339Y287402D02*
X16339D01*
X-13189Y170866D02*
Y191339D01*
X13189Y170866D02*
Y191339D01*
X-13189D02*
X13189D01*
X-13189Y170866D02*
X13189D01*
X-4724Y254725D02*
X6299D01*
X-4724Y261024D02*
X6299D01*
Y254725D02*
Y261024D01*
X-4724Y254725D02*
Y261024D01*
X-29429Y271654D02*
X-25689D01*
X-27559Y269783D02*
Y273524D01*
X-23425Y263976D02*
Y279331D01*
X-31693Y263976D02*
Y279331D01*
X-23425D01*
X-31693Y263976D02*
X-23425D01*
X31594Y179134D02*
X35335D01*
X33465Y177264D02*
Y181004D01*
X31299Y174606D02*
Y183661D01*
X35630Y174606D02*
Y183661D01*
X31299Y174606D02*
X35630D01*
X31299Y183661D02*
X35630D01*
X-45787Y251732D02*
X-17480D01*
X-45787Y224961D02*
X-17480D01*
X-45787D02*
Y251732D01*
X-17480Y224961D02*
Y251732D01*
X-10039Y358465D02*
X-1771D01*
X-10039Y343110D02*
X-1771D01*
X-10039D02*
Y358465D01*
X-1771Y343110D02*
Y358465D01*
X-5906Y348917D02*
Y352658D01*
X-7775Y350787D02*
X-4035D01*
X17520Y243898D02*
X25787D01*
X17520Y259252D02*
X25787D01*
X17520Y243898D02*
Y259252D01*
X25787Y243898D02*
Y259252D01*
X21654Y249705D02*
Y253445D01*
X19783Y251575D02*
X23524D01*
X-35630Y271457D02*
X-27362D01*
X-35630Y256102D02*
X-27362D01*
X-35630D02*
Y271457D01*
X-27362Y256102D02*
Y271457D01*
X-31496Y261910D02*
Y265650D01*
X-33366Y263779D02*
X-29626D01*
X-43504Y271457D02*
X-35236D01*
X-43504Y256102D02*
X-35236D01*
X-43504D02*
Y271457D01*
X-35236Y256102D02*
Y271457D01*
X-39370Y261910D02*
Y265650D01*
X-41240Y263779D02*
X-37500D01*
X19488Y200590D02*
X27756D01*
X19488Y215945D02*
X27756D01*
X19488Y200590D02*
Y215945D01*
X27756Y200590D02*
Y215945D01*
X23622Y206398D02*
Y210138D01*
X21752Y208268D02*
X25492D01*
X-29724Y195473D02*
X-21457D01*
X-29724Y210827D02*
X-21457D01*
X-29724Y195473D02*
Y210827D01*
X-21457Y195473D02*
Y210827D01*
X-25591Y201279D02*
Y205020D01*
X-27461Y203150D02*
X-23721D01*
X-197Y358071D02*
X8071D01*
X-197Y342717D02*
X8071D01*
X-197D02*
Y358071D01*
X8071Y342717D02*
Y358071D01*
X3937Y348524D02*
Y352264D01*
X2067Y350394D02*
X5807D01*
X29331Y171850D02*
X37598D01*
X29331Y187205D02*
X37598D01*
Y171850D02*
Y187205D01*
X29331Y171850D02*
Y187205D01*
X33465Y177657D02*
Y181398D01*
X31594Y179527D02*
X35335D01*
X-37205Y212402D02*
Y220669D01*
X-21850Y212402D02*
Y220669D01*
X-37205D02*
X-21850D01*
X-37205Y212402D02*
X-21850D01*
X-31398Y216535D02*
X-27657D01*
X-29528Y214665D02*
Y218406D01*
X33661Y275394D02*
Y283662D01*
X18307Y275394D02*
Y283662D01*
Y275394D02*
X33661D01*
X18307Y283662D02*
X33661D01*
X24114Y279527D02*
X27854D01*
X25984Y277658D02*
Y281398D01*
X-21457Y360039D02*
Y368307D01*
X-36811Y360039D02*
Y368307D01*
X-21457D01*
X-36811Y360039D02*
X-21457D01*
X-31004Y364173D02*
X-27264D01*
X-29134Y362303D02*
Y366043D01*
X28953Y233283D02*
Y241551D01*
X13599Y233283D02*
Y241551D01*
X28953D01*
X13599Y233283D02*
X28953D01*
X19406Y237417D02*
X23146D01*
X21275Y235547D02*
Y239287D01*
X-37598Y370275D02*
X-29331D01*
X-37598Y385630D02*
X-29331D01*
Y370275D02*
Y385630D01*
X-37598Y370275D02*
Y385630D01*
X-33465Y376083D02*
Y379823D01*
X-35335Y377953D02*
X-31594D01*
X-37598Y386024D02*
X-29331D01*
X-37598Y401378D02*
X-29331D01*
Y386024D02*
Y401378D01*
X-37598Y386024D02*
Y401378D01*
X-33465Y391831D02*
Y395571D01*
X-35335Y393701D02*
X-31594D01*
X-4134Y142323D02*
X4134D01*
X-4134Y157677D02*
X4134D01*
Y142323D02*
Y157677D01*
X-4134Y142323D02*
Y157677D01*
X0Y148130D02*
Y151870D01*
X-1870Y150000D02*
X1870D01*
X-29331Y54921D02*
Y63189D01*
X-13976Y54921D02*
Y63189D01*
X-29331Y54921D02*
X-13976D01*
X-29331Y63189D02*
X-13976D01*
X-23524Y59055D02*
X-19783D01*
X-21654Y57185D02*
Y60925D01*
X27362Y388386D02*
X35630D01*
X27362Y403740D02*
X35630D01*
Y388386D02*
Y403740D01*
X27362Y388386D02*
Y403740D01*
X31496Y394193D02*
Y397933D01*
X29626Y396063D02*
X33366D01*
X-37598Y210827D02*
X-29331D01*
X-37598Y195473D02*
X-29331D01*
Y210827D01*
X-37598Y195473D02*
Y210827D01*
X-33465Y201279D02*
Y205020D01*
X-35335Y203150D02*
X-31594D01*
X-25787Y186417D02*
X-17520D01*
X-25787Y171063D02*
X-17520D01*
Y186417D01*
X-25787Y171063D02*
Y186417D01*
X-21654Y176870D02*
Y180610D01*
X-23524Y178740D02*
X-19783D01*
X43701Y82480D02*
Y90748D01*
X23228Y82480D02*
Y90748D01*
Y82480D02*
X43701D01*
X23228Y90748D02*
X43701D01*
X11811Y84744D02*
Y88484D01*
X9941Y86614D02*
X13681D01*
X4134Y90748D02*
X19488D01*
X4134Y82480D02*
X19488D01*
Y90748D01*
X4134Y82480D02*
Y90748D01*
X44882Y86811D02*
Y106102D01*
X19685D02*
X44882D01*
X19685Y86811D02*
Y106102D01*
Y86811D02*
X44882D01*
X31890Y6004D02*
Y9744D01*
X30020Y7874D02*
X33760D01*
X24213Y3740D02*
X39567D01*
X24213Y12008D02*
X39567D01*
Y3740D02*
Y12008D01*
X24213Y3740D02*
Y12008D01*
X19685Y2165D02*
Y21457D01*
Y2165D02*
X44882D01*
Y21457D01*
X19685D02*
X44882D01*
X6299Y244882D02*
X17323D01*
X6299Y251181D02*
X17323D01*
Y244882D02*
Y251181D01*
X6299Y244882D02*
Y251181D01*
X19783Y181496D02*
X23524D01*
X21654Y179626D02*
Y183366D01*
X17520Y173819D02*
Y189173D01*
X25787Y173819D02*
Y189173D01*
X17520Y173819D02*
X25787D01*
X17520Y189173D02*
X25787D01*
X11811Y291437D02*
Y295177D01*
X9941Y293307D02*
X13681D01*
X4134Y289173D02*
X19488D01*
X4134Y297441D02*
X19488D01*
Y289173D02*
Y297441D01*
X4134Y289173D02*
Y297441D01*
M02*
