G04 Layer_Color=65535*
%FSLAX25Y25*%
%MOIN*%
G70*
G01*
G75*
%ADD41C,0.01000*%
%ADD42C,0.00984*%
%ADD43C,0.02362*%
%ADD44C,0.00600*%
%ADD45C,0.00787*%
%ADD46C,0.05000*%
%ADD47C,0.00800*%
D41*
X13500Y218504D02*
G03*
X-10500Y225504I-15500J-8500D01*
G01*
Y211504D02*
G03*
X13500Y218504I8500J15500D01*
G01*
X-10500Y211504D02*
Y225504D01*
X-43307Y114266D02*
X-41308D01*
X-42307D01*
Y108268D01*
X-43307D01*
X-41308D01*
X-38309D02*
Y114266D01*
X-34310Y108268D01*
Y114266D01*
X28015Y267417D02*
Y261419D01*
X31014D01*
X32013Y262418D01*
Y266417D01*
X31014Y267417D01*
X28015D01*
X37012Y261419D02*
Y267417D01*
X34013Y264418D01*
X38011D01*
X-13780Y403543D02*
Y409541D01*
X-11780Y407542D01*
X-9781Y409541D01*
Y403543D01*
X-7782D02*
Y407542D01*
X-5782Y409541D01*
X-3783Y407542D01*
Y403543D01*
Y406542D01*
X-7782D01*
X2215Y408542D02*
X1216Y409541D01*
X-784D01*
X-1783Y408542D01*
Y404543D01*
X-784Y403543D01*
X1216D01*
X2215Y404543D01*
Y406542D01*
X216D01*
X4215Y409541D02*
X6214D01*
X5214D01*
Y403543D01*
X4215D01*
X6214D01*
X13212Y408542D02*
X12212Y409541D01*
X10213D01*
X9213Y408542D01*
Y404543D01*
X10213Y403543D01*
X12212D01*
X13212Y404543D01*
X15211Y403543D02*
X17210D01*
X16211D01*
Y409541D01*
X15211Y408542D01*
X-17655Y302242D02*
X-18654Y303242D01*
X-20654D01*
X-21654Y302242D01*
Y298244D01*
X-20654Y297244D01*
X-18654D01*
X-17655Y298244D01*
Y300243D01*
X-19654D01*
X-15655Y297244D02*
Y301243D01*
X-13656Y303242D01*
X-11657Y301243D01*
Y297244D01*
Y300243D01*
X-15655D01*
X-9657Y303242D02*
X-7658D01*
X-8658D01*
Y297244D01*
X-9657D01*
X-7658D01*
X-4659D02*
Y303242D01*
X-660Y297244D01*
Y303242D01*
X32527Y110329D02*
X30527D01*
X29528Y109329D01*
Y105330D01*
X30527Y104331D01*
X32527D01*
X33526Y105330D01*
Y109329D01*
X32527Y110329D01*
X35526D02*
Y105330D01*
X36525Y104331D01*
X38525D01*
X39524Y105330D01*
Y110329D01*
X41524D02*
X45522D01*
X43523D01*
Y104331D01*
X-34526Y17778D02*
X-35526Y16779D01*
Y14779D01*
X-34526Y13780D01*
X-33526D01*
X-32527Y14779D01*
Y16779D01*
X-31527Y17778D01*
X-30527D01*
X-29528Y16779D01*
Y14779D01*
X-30527Y13780D01*
X-34526Y23776D02*
X-35526Y22777D01*
Y20777D01*
X-34526Y19778D01*
X-30527D01*
X-29528Y20777D01*
Y22777D01*
X-30527Y23776D01*
D42*
X-6693Y204134D02*
G03*
X-6693Y204134I-492J0D01*
G01*
X39272Y255315D02*
G03*
X39272Y255315I-492J0D01*
G01*
X25492Y16141D02*
G03*
X25492Y16141I-492J0D01*
G01*
X11614Y264646D02*
G03*
X11614Y264646I-492J0D01*
G01*
X-9843Y191850D02*
G03*
X-9843Y191850I-492J0D01*
G01*
X28642Y266339D02*
G03*
X28642Y266339I-492J0D01*
G01*
X5020Y197441D02*
G03*
X5020Y197441I-492J0D01*
G01*
X26673Y83071D02*
G03*
X26673Y83071I-492J0D01*
G01*
D43*
X3543Y269685D02*
G03*
X3543Y269685I-1181J0D01*
G01*
X-1181Y187008D02*
G03*
X-1181Y187008I-1181J0D01*
G01*
D44*
X-20090Y121732D02*
X-11591D01*
X-10591Y122732D01*
Y160232D01*
X-19590Y169232D02*
X-10591Y160232D01*
X-31091Y169232D02*
X-19590D01*
X-42091Y158232D02*
X-31091Y169232D01*
X-42091Y122732D02*
Y158232D01*
Y122732D02*
X-41591Y122232D01*
X-32591D01*
X31091Y122047D02*
X39591D01*
X40591Y123047D01*
Y160547D01*
X31591Y169547D02*
X40591Y160547D01*
X20090Y169547D02*
X31591D01*
X9091Y158547D02*
X20090Y169547D01*
X9091Y123047D02*
Y158547D01*
Y123047D02*
X9591Y122547D01*
X18590D01*
X5500Y20866D02*
X14000D01*
X15000Y21866D01*
Y59366D01*
X6000Y68366D02*
X15000Y59366D01*
X-5500Y68366D02*
X6000D01*
X-16500Y57366D02*
X-5500Y68366D01*
X-16500Y21866D02*
Y57366D01*
Y21866D02*
X-16000Y21366D01*
X-7000D01*
D45*
X-12894Y206693D02*
X-9744D01*
Y203543D02*
Y206693D01*
X-12894Y194882D02*
X-9744D01*
Y198031D01*
X36220Y246063D02*
Y249213D01*
X32283Y246063D02*
X36220D01*
Y254724D02*
Y257874D01*
X32283D02*
X36220D01*
X26673Y16338D02*
X37894D01*
X26673Y23031D02*
X37894D01*
X26673Y16338D02*
Y16732D01*
X37894Y16338D02*
Y16732D01*
X26673Y22637D02*
Y23031D01*
X37894Y22637D02*
Y23031D01*
X6299Y265748D02*
Y285433D01*
X-6299Y265748D02*
Y285433D01*
Y265748D02*
X6299D01*
X-6299Y285433D02*
X6299D01*
X-6299Y171260D02*
Y190945D01*
X6299Y171260D02*
Y190945D01*
X-6299D02*
X6299D01*
X-6299Y171260D02*
X6299D01*
X591Y255610D02*
X984D01*
X591Y260138D02*
X984D01*
X-25787Y271457D02*
Y271850D01*
X-29331Y271457D02*
Y271850D01*
X32087Y178937D02*
Y179331D01*
X34843Y178937D02*
Y179331D01*
X30709Y263779D02*
X34646D01*
X30709D02*
Y266929D01*
Y275590D02*
X34646D01*
X30709Y272441D02*
Y275590D01*
X19882Y251378D02*
Y251772D01*
X23425Y251378D02*
Y251772D01*
X21850Y208071D02*
Y208465D01*
X25394Y208071D02*
Y208465D01*
X-27362Y202953D02*
Y203346D01*
X-23819Y202953D02*
Y203346D01*
X-29724Y218307D02*
X-29331D01*
X-29724Y214764D02*
X-29331D01*
X25787Y277756D02*
X26181D01*
X25787Y281299D02*
X26181D01*
X-31693Y202953D02*
Y203346D01*
X-35236Y202953D02*
Y203346D01*
X-19882Y178543D02*
Y178937D01*
X-23425Y178543D02*
Y178937D01*
X7087Y194882D02*
X10236D01*
X7087D02*
Y198031D01*
Y206693D02*
X10236D01*
X7087Y203543D02*
Y206693D01*
X27854Y83268D02*
X39075D01*
X27854Y89961D02*
X39075D01*
X27854Y83268D02*
Y83662D01*
X39075Y83268D02*
Y83662D01*
X27854Y89567D02*
Y89961D01*
X39075Y89567D02*
Y89961D01*
X31693Y6102D02*
X32087D01*
X31693Y9646D02*
X32087D01*
X11614Y245768D02*
X12008D01*
X11614Y250295D02*
X12008D01*
X19882Y181299D02*
Y181693D01*
X23425Y181299D02*
Y181693D01*
X11614Y291535D02*
X12008D01*
X11614Y295079D02*
X12008D01*
D46*
X19685Y78740D02*
X43307D01*
D47*
X-14717Y209411D02*
Y212410D01*
X-15467Y213160D01*
X-16967D01*
X-17717Y212410D01*
Y209411D01*
X-16967Y208661D01*
X-15467D01*
X-16217Y210161D02*
X-14717Y208661D01*
X-15467D02*
X-14717Y209411D01*
X-13218Y208661D02*
X-11718D01*
X-12468D01*
Y213160D01*
X-13218Y212410D01*
X-3937Y232845D02*
Y228346D01*
X-1688D01*
X-938Y229096D01*
Y232095D01*
X-1688Y232845D01*
X-3937D01*
X562Y228346D02*
X2061D01*
X1311D01*
Y232845D01*
X562Y232095D01*
X13780Y20247D02*
Y15748D01*
X16029D01*
X16779Y16498D01*
Y19497D01*
X16029Y20247D01*
X13780D01*
X21277Y15748D02*
X18278D01*
X21277Y18747D01*
Y19497D01*
X20527Y20247D01*
X19028D01*
X18278Y19497D01*
X-3937Y291900D02*
Y288151D01*
X-3187Y287402D01*
X-1688D01*
X-938Y288151D01*
Y291900D01*
X562Y287402D02*
X2061D01*
X1311D01*
Y291900D01*
X562Y291150D01*
X-3937Y197412D02*
Y193663D01*
X-3187Y192913D01*
X-1688D01*
X-938Y193663D01*
Y197412D01*
X3561Y192913D02*
X562D01*
X3561Y195912D01*
Y196662D01*
X2811Y197412D01*
X1311D01*
X562Y196662D01*
X-10780Y259654D02*
X-11530Y260404D01*
X-13030D01*
X-13780Y259654D01*
Y256655D01*
X-13030Y255906D01*
X-11530D01*
X-10780Y256655D01*
X-6282Y255906D02*
X-9281D01*
X-6282Y258905D01*
Y259654D01*
X-7032Y260404D01*
X-8531D01*
X-9281Y259654D01*
X-26528Y285245D02*
X-27278Y285995D01*
X-28778D01*
X-29528Y285245D01*
Y282246D01*
X-28778Y281496D01*
X-27278D01*
X-26528Y282246D01*
X-25029Y281496D02*
X-23529D01*
X-24279D01*
Y285995D01*
X-25029Y285245D01*
X32527Y188788D02*
X31777Y189538D01*
X30277D01*
X29528Y188788D01*
Y185789D01*
X30277Y185039D01*
X31777D01*
X32527Y185789D01*
X34026Y188788D02*
X34776Y189538D01*
X36275D01*
X37025Y188788D01*
Y188038D01*
X36275Y187289D01*
X37025Y186539D01*
Y185789D01*
X36275Y185039D01*
X34776D01*
X34026Y185789D01*
Y186539D01*
X34776Y187289D01*
X34026Y188038D01*
Y188788D01*
X34776Y187289D02*
X36275D01*
X20716Y263591D02*
X19966Y264341D01*
X18466D01*
X17717Y263591D01*
Y260592D01*
X18466Y259842D01*
X19966D01*
X20716Y260592D01*
X25214Y264341D02*
X23715Y263591D01*
X22215Y262092D01*
Y260592D01*
X22965Y259842D01*
X24464D01*
X25214Y260592D01*
Y261342D01*
X24464Y262092D01*
X22215D01*
X35433Y282058D02*
Y277559D01*
X37682D01*
X38432Y278309D01*
Y281308D01*
X37682Y282058D01*
X35433D01*
X42931D02*
X39932D01*
Y279808D01*
X41431Y280558D01*
X42181D01*
X42931Y279808D01*
Y278309D01*
X42181Y277559D01*
X40681D01*
X39932Y278309D01*
X23622Y238189D02*
X19124D01*
Y240438D01*
X19873Y241188D01*
X21373D01*
X22122Y240438D01*
Y238189D01*
Y239688D02*
X23622Y241188D01*
X19124Y245687D02*
Y242688D01*
X21373D01*
X20623Y244187D01*
Y244937D01*
X21373Y245687D01*
X22872D01*
X23622Y244937D01*
Y243437D01*
X22872Y242688D01*
X27559Y206693D02*
Y211192D01*
X29808D01*
X30558Y210442D01*
Y208942D01*
X29808Y208192D01*
X27559D01*
X29059D02*
X30558Y206693D01*
X32058Y211192D02*
X35057D01*
Y210442D01*
X32058Y207443D01*
Y206693D01*
X-23622Y188976D02*
X-28121D01*
Y191226D01*
X-27371Y191975D01*
X-25871D01*
X-25122Y191226D01*
Y188976D01*
Y190476D02*
X-23622Y191975D01*
X-27371Y193475D02*
X-28121Y194225D01*
Y195724D01*
X-27371Y196474D01*
X-26621D01*
X-25871Y195724D01*
Y194975D01*
Y195724D01*
X-25122Y196474D01*
X-24372D01*
X-23622Y195724D01*
Y194225D01*
X-24372Y193475D01*
X-31496Y220472D02*
Y224971D01*
X-29247D01*
X-28497Y224221D01*
Y222722D01*
X-29247Y221972D01*
X-31496D01*
X-29996D02*
X-28497Y220472D01*
X-23999D02*
X-26998D01*
X-23999Y223471D01*
Y224221D01*
X-24748Y224971D01*
X-26248D01*
X-26998Y224221D01*
X21654Y283465D02*
Y287963D01*
X23903D01*
X24653Y287213D01*
Y285714D01*
X23903Y284964D01*
X21654D01*
X23153D02*
X24653Y283465D01*
X29151Y287963D02*
X27652Y287213D01*
X26152Y285714D01*
Y284214D01*
X26902Y283465D01*
X28401D01*
X29151Y284214D01*
Y284964D01*
X28401Y285714D01*
X26152D01*
X-41339Y190945D02*
Y195443D01*
X-39089D01*
X-38340Y194694D01*
Y193194D01*
X-39089Y192444D01*
X-41339D01*
X-39839D02*
X-38340Y190945D01*
X-36840D02*
X-35340D01*
X-36090D01*
Y195443D01*
X-36840Y194694D01*
X-21654Y167323D02*
Y171821D01*
X-19404D01*
X-18654Y171072D01*
Y169572D01*
X-19404Y168822D01*
X-21654D01*
X-20154D02*
X-18654Y167323D01*
X-14906D02*
Y171821D01*
X-17155Y169572D01*
X-14156D01*
X12842Y209411D02*
Y212410D01*
X12092Y213160D01*
X10592D01*
X9843Y212410D01*
Y209411D01*
X10592Y208661D01*
X12092D01*
X11342Y210161D02*
X12842Y208661D01*
X12092D02*
X12842Y209411D01*
X17340Y208661D02*
X14341D01*
X17340Y211660D01*
Y212410D01*
X16590Y213160D01*
X15091D01*
X14341Y212410D01*
X29528Y97018D02*
Y92520D01*
X31777D01*
X32527Y93269D01*
Y96268D01*
X31777Y97018D01*
X29528D01*
X34026Y96268D02*
X34776Y97018D01*
X36275D01*
X37025Y96268D01*
Y95519D01*
X36275Y94769D01*
X35526D01*
X36275D01*
X37025Y94019D01*
Y93269D01*
X36275Y92520D01*
X34776D01*
X34026Y93269D01*
X20716Y9654D02*
X19966Y10404D01*
X18466D01*
X17717Y9654D01*
Y6655D01*
X18466Y5906D01*
X19966D01*
X20716Y6655D01*
X22215Y10404D02*
X25214D01*
Y9654D01*
X22215Y6655D01*
Y5906D01*
X10873Y241938D02*
X10123Y242688D01*
X8624D01*
X7874Y241938D01*
Y238939D01*
X8624Y238189D01*
X10123D01*
X10873Y238939D01*
X14622Y238189D02*
Y242688D01*
X12373Y240438D01*
X15372D01*
X20716Y192725D02*
X19966Y193475D01*
X18466D01*
X17717Y192725D01*
Y189726D01*
X18466Y188976D01*
X19966D01*
X20716Y189726D01*
X25214Y193475D02*
X22215D01*
Y191226D01*
X23715Y191975D01*
X24464D01*
X25214Y191226D01*
Y189726D01*
X24464Y188976D01*
X22965D01*
X22215Y189726D01*
X10873Y300993D02*
X10123Y301743D01*
X8624D01*
X7874Y300993D01*
Y297994D01*
X8624Y297244D01*
X10123D01*
X10873Y297994D01*
X12373Y300993D02*
X13122Y301743D01*
X14622D01*
X15372Y300993D01*
Y300243D01*
X14622Y299493D01*
X13872D01*
X14622D01*
X15372Y298744D01*
Y297994D01*
X14622Y297244D01*
X13122D01*
X12373Y297994D01*
M02*
