G04 Layer_Physical_Order=2*
G04 Layer_Color=16711680*
%FSLAX25Y25*%
%MOIN*%
G70*
G01*
G75*
%ADD16R,0.04331X0.04331*%
%ADD19R,0.04331X0.04331*%
%ADD20C,0.02000*%
%ADD22C,0.01083*%
%ADD26C,0.06000*%
%ADD27C,0.09842*%
%ADD28C,0.11811*%
%ADD29R,0.05905X0.05905*%
%ADD30R,0.05905X0.05905*%
%ADD31C,0.05905*%
%ADD32C,0.04921*%
%ADD33R,0.04921X0.04921*%
%ADD34C,0.03000*%
%ADD35O,0.02165X0.09000*%
%ADD36R,0.06299X0.10236*%
%ADD37R,0.03937X0.05118*%
%ADD38R,0.05118X0.03937*%
%ADD39R,0.10236X0.06299*%
%ADD40C,0.01968*%
%ADD41C,0.01000*%
G36*
X-6957Y279946D02*
X-6852Y278326D01*
X-6824Y278238D01*
X-6792Y278187D01*
X-8207D01*
X-8176Y278238D01*
X-8148Y278326D01*
X-8123Y278449D01*
X-8101Y278608D01*
X-8068Y279035D01*
X-8041Y280321D01*
X-6959D01*
X-6957Y279946D01*
D02*
G37*
G36*
X-11957Y281946D02*
X-11852Y280326D01*
X-11824Y280238D01*
X-11792Y280187D01*
X-13207D01*
X-13176Y280238D01*
X-13148Y280326D01*
X-13123Y280449D01*
X-13101Y280608D01*
X-13068Y281035D01*
X-13041Y282321D01*
X-11959D01*
X-11957Y281946D01*
D02*
G37*
G36*
X-37596Y273861D02*
X-39294Y271984D01*
X-40887Y273577D01*
X-40834Y273596D01*
X-40751Y273649D01*
X-40637Y273735D01*
X-40322Y274008D01*
X-39010Y275275D01*
X-37596Y273861D01*
D02*
G37*
G36*
X4401Y276380D02*
X4342Y276366D01*
X4260Y276325D01*
X4155Y276255D01*
X4028Y276158D01*
X3702Y275879D01*
X2774Y274989D01*
X2008Y275754D01*
X2273Y276021D01*
X3344Y277241D01*
X3386Y277322D01*
X3400Y277381D01*
X4401Y276380D01*
D02*
G37*
G36*
X-1650Y283107D02*
X-430Y282036D01*
X-348Y281994D01*
X-290Y281980D01*
X-1290Y280980D01*
X-1304Y281038D01*
X-1346Y281120D01*
X-1416Y281225D01*
X-1513Y281353D01*
X-1792Y281678D01*
X-2682Y282606D01*
X-1916Y283372D01*
X-1650Y283107D01*
D02*
G37*
G36*
X-24028Y287808D02*
X-24027Y287594D01*
X-24000Y287379D01*
X-23947Y287163D01*
X-23868Y286946D01*
X-23764Y286729D01*
X-23634Y286511D01*
X-23478Y286293D01*
X-23296Y286074D01*
X-23089Y285854D01*
X-23855Y285088D01*
X-24170Y285401D01*
X-25673Y286730D01*
X-25787Y286797D01*
X-25876Y286833D01*
X-24004Y288022D01*
X-24028Y287808D01*
D02*
G37*
G36*
X-11640Y286526D02*
X-11706Y286410D01*
X-11766Y286285D01*
X-11817Y286151D01*
X-11860Y286007D01*
X-11896Y285855D01*
X-11923Y285694D01*
X-11943Y285524D01*
X-11959Y285156D01*
X-13041D01*
X-13045Y285345D01*
X-13077Y285694D01*
X-13104Y285855D01*
X-13140Y286007D01*
X-13183Y286151D01*
X-13234Y286285D01*
X-13293Y286410D01*
X-13360Y286526D01*
X-13435Y286633D01*
X-11565D01*
X-11640Y286526D01*
D02*
G37*
G36*
X43912Y285139D02*
X43890Y285043D01*
X43871Y284902D01*
X43841Y284486D01*
X43809Y282662D01*
X41809D01*
X41683Y285190D01*
X43936D01*
X43912Y285139D01*
D02*
G37*
G36*
X24703Y283573D02*
X24652Y283604D01*
X24564Y283633D01*
X24441Y283658D01*
X24281Y283679D01*
X23855Y283712D01*
X22569Y283739D01*
Y284822D01*
X22944Y284823D01*
X24564Y284928D01*
X24652Y284956D01*
X24703Y284988D01*
Y283573D01*
D02*
G37*
G36*
X5601Y272580D02*
X5542Y272566D01*
X5460Y272525D01*
X5356Y272455D01*
X5227Y272358D01*
X4902Y272079D01*
X3974Y271189D01*
X3209Y271954D01*
X3473Y272221D01*
X4544Y273441D01*
X4586Y273522D01*
X4600Y273581D01*
X5601Y272580D01*
D02*
G37*
G36*
X-6957Y263056D02*
X-6852Y261436D01*
X-6824Y261349D01*
X-6792Y261297D01*
X-8207D01*
X-8176Y261349D01*
X-8148Y261436D01*
X-8123Y261559D01*
X-8101Y261719D01*
X-8068Y262145D01*
X-8041Y263431D01*
X-6959D01*
X-6957Y263056D01*
D02*
G37*
G36*
X-28577Y262390D02*
X-28792Y262168D01*
X-29128Y261770D01*
X-29251Y261594D01*
X-29343Y261433D01*
X-29404Y261287D01*
X-29435Y261157D01*
Y261042D01*
X-29404Y260943D01*
X-29343Y260858D01*
X-30874Y262390D01*
X-30790Y262328D01*
X-30690Y262298D01*
X-30575D01*
X-30445Y262328D01*
X-30300Y262390D01*
X-30139Y262481D01*
X-29963Y262604D01*
X-29772Y262757D01*
X-29343Y263155D01*
X-28577Y262390D01*
D02*
G37*
G36*
X-37341Y260757D02*
X-37396Y260574D01*
X-37395Y260362D01*
X-37337Y260122D01*
X-37223Y259854D01*
X-37052Y259557D01*
X-36824Y259231D01*
X-36540Y258877D01*
X-35803Y258083D01*
X-37217Y256669D01*
X-37628Y257066D01*
X-38365Y257691D01*
X-38691Y257918D01*
X-38988Y258089D01*
X-39256Y258203D01*
X-39496Y258261D01*
X-39708Y258262D01*
X-39891Y258207D01*
X-40045Y258095D01*
X-37229Y260911D01*
X-37341Y260757D01*
D02*
G37*
G36*
X-4515Y294554D02*
X-4623Y294008D01*
Y287173D01*
X-4462Y286361D01*
X-4304Y286124D01*
X-4271Y286050D01*
X-4222Y285979D01*
X-4198Y285937D01*
X-4173Y285885D01*
X-4149Y285821D01*
X-4125Y285744D01*
X-4104Y285653D01*
X-4089Y285562D01*
X-4072Y285373D01*
Y283190D01*
X-3952Y282588D01*
X-3611Y282079D01*
X-3055Y281522D01*
X-2547Y280993D01*
X-2307Y280712D01*
X-2266Y280658D01*
X-2175Y280200D01*
X-1733Y279538D01*
X-1071Y279096D01*
X-291Y278941D01*
X2436D01*
X2703Y278441D01*
X2516Y278161D01*
X2434Y277750D01*
X1620Y276823D01*
X-8611Y266592D01*
X-8952Y266082D01*
X-9071Y265480D01*
Y265405D01*
X-9462Y264821D01*
X-9623Y264008D01*
Y257173D01*
X-9562Y256866D01*
X-9539Y255735D01*
Y253783D01*
X-10300Y253022D01*
X-10742Y252361D01*
X-10898Y251580D01*
Y250742D01*
X-10988Y249495D01*
X-11069Y248928D01*
X-11172Y248408D01*
X-11295Y247949D01*
X-11434Y247549D01*
X-11587Y247210D01*
X-11748Y246931D01*
X-11956Y246654D01*
X-11988Y246587D01*
X-12352Y246112D01*
X-12755Y245139D01*
X-12893Y244094D01*
X-12755Y243050D01*
X-12352Y242077D01*
X-11711Y241242D01*
X-10898Y240617D01*
Y240052D01*
X-10742Y239272D01*
X-10300Y238610D01*
X-9893Y238203D01*
X-10055Y237811D01*
X-10055D01*
Y232061D01*
X-10555Y231709D01*
X-10565Y231710D01*
X-10857Y231766D01*
X-11136Y231843D01*
X-11404Y231941D01*
X-11663Y232061D01*
X-11914Y232204D01*
X-12160Y232371D01*
X-12347Y232520D01*
X-14151Y234325D01*
Y246971D01*
X-14307Y247751D01*
X-14749Y248413D01*
X-15410Y248855D01*
X-15821Y248937D01*
X-16748Y249751D01*
X-20928Y253931D01*
Y255382D01*
X-20926Y255443D01*
X-20913Y255549D01*
X-20896Y255653D01*
X-20875Y255744D01*
X-20851Y255821D01*
X-20827Y255885D01*
X-20802Y255937D01*
X-20778Y255979D01*
X-20729Y256049D01*
X-20696Y256124D01*
X-20538Y256361D01*
X-20377Y257173D01*
Y264008D01*
X-20485Y264554D01*
X-20178Y264964D01*
X-19822D01*
X-19515Y264554D01*
X-19623Y264008D01*
Y261090D01*
X-15376D01*
Y264008D01*
X-15538Y264821D01*
X-15928Y265405D01*
Y265590D01*
X-16048Y266191D01*
X-16389Y266701D01*
X-17479Y267792D01*
X-17989Y268132D01*
X-18590Y268252D01*
X-25052D01*
X-25654Y268132D01*
X-26163Y267792D01*
X-27869Y266086D01*
X-28331Y266277D01*
Y266610D01*
X-28323Y266648D01*
X-28331Y266686D01*
Y267424D01*
X-28310Y267460D01*
X-28137Y267709D01*
X-27648Y268287D01*
X-24494Y271441D01*
X-11500D01*
X-10720Y271596D01*
X-10058Y272038D01*
X-6058Y276038D01*
X-5616Y276700D01*
X-5461Y277480D01*
X-5616Y278261D01*
X-5849Y278609D01*
X-5928Y279840D01*
Y285382D01*
X-5926Y285443D01*
X-5914Y285549D01*
X-5896Y285653D01*
X-5875Y285744D01*
X-5851Y285821D01*
X-5827Y285885D01*
X-5802Y285937D01*
X-5778Y285979D01*
X-5729Y286050D01*
X-5696Y286124D01*
X-5538Y286361D01*
X-5376Y287173D01*
Y294008D01*
X-5485Y294554D01*
X-5178Y294964D01*
X-4822D01*
X-4515Y294554D01*
D02*
G37*
G36*
X-33637Y265323D02*
X-33658Y265513D01*
X-33718Y265683D01*
X-33819Y265833D01*
X-33959Y265963D01*
X-34141Y266073D01*
X-34362Y266163D01*
X-34623Y266233D01*
X-34925Y266283D01*
X-35267Y266313D01*
X-35649Y266323D01*
Y268323D01*
X-35267Y268333D01*
X-34925Y268363D01*
X-34623Y268413D01*
X-34362Y268483D01*
X-34141Y268573D01*
X-33959Y268683D01*
X-33819Y268813D01*
X-33718Y268963D01*
X-33658Y269133D01*
X-33637Y269323D01*
Y265323D01*
D02*
G37*
G36*
X-27929Y269476D02*
X-28325Y269066D01*
X-28947Y268331D01*
X-29173Y268005D01*
X-29343Y267708D01*
X-29456Y267440D01*
X-29513Y267199D01*
Y266987D01*
X-29456Y266803D01*
X-29343Y266648D01*
X-32171Y269476D01*
X-32016Y269363D01*
X-31832Y269307D01*
X-31620D01*
X-31379Y269363D01*
X-31111Y269476D01*
X-30814Y269646D01*
X-30488Y269872D01*
X-30135Y270155D01*
X-29343Y270890D01*
X-27929Y269476D01*
D02*
G37*
G36*
X-26149Y275377D02*
X-26154Y275341D01*
X-26781Y274922D01*
X-30438Y271265D01*
X-30801Y270928D01*
X-31099Y270690D01*
X-31359Y270509D01*
X-31395Y270488D01*
X-32133D01*
X-32171Y270496D01*
X-32209Y270488D01*
X-34661D01*
Y269462D01*
X-34687Y269451D01*
X-34839Y269411D01*
X-35053Y269375D01*
X-35203Y269362D01*
X-36205D01*
Y270488D01*
X-38317D01*
X-38553Y270929D01*
X-38436Y271105D01*
X-38357Y271499D01*
X-37120Y272867D01*
X-34146Y275841D01*
X-26447D01*
X-26149Y275377D01*
D02*
G37*
G36*
X41003Y266673D02*
X40951Y266704D01*
X40864Y266733D01*
X40741Y266757D01*
X40581Y266779D01*
X40155Y266812D01*
X38869Y266839D01*
Y267922D01*
X39244Y267923D01*
X40864Y268028D01*
X40951Y268056D01*
X41003Y268088D01*
Y266673D01*
D02*
G37*
G36*
X40770Y275350D02*
Y269325D01*
X40470Y269024D01*
X39350Y268952D01*
X9400D01*
X9400Y268952D01*
X8799Y268832D01*
X8289Y268492D01*
X8289Y268492D01*
X6389Y266592D01*
X6048Y266082D01*
X5928Y265480D01*
Y265405D01*
X5538Y264821D01*
X5377Y264008D01*
Y257173D01*
X5497Y256569D01*
X5202Y256167D01*
X4798D01*
X4503Y256569D01*
X4623Y257173D01*
Y264008D01*
X4462Y264821D01*
X4002Y265509D01*
X3313Y265970D01*
X2500Y266131D01*
X1687Y265970D01*
X998Y265509D01*
X538Y264821D01*
X377Y264008D01*
Y257173D01*
X538Y256361D01*
X927Y255778D01*
X929Y255760D01*
Y255480D01*
X1048Y254879D01*
X1389Y254369D01*
X2389Y253369D01*
X2389Y253369D01*
X2899Y253028D01*
X3500Y252909D01*
X6054D01*
X6154Y252405D01*
X6707Y251578D01*
X7534Y251025D01*
X8509Y250831D01*
X9485Y251025D01*
X10312Y251578D01*
X10864Y252405D01*
X11058Y253380D01*
X10864Y254356D01*
X10312Y255183D01*
X9596Y255661D01*
X9359Y256207D01*
X9462Y256361D01*
X9623Y257173D01*
Y264008D01*
X9462Y264821D01*
X9302Y265060D01*
X10051Y265809D01*
X10615D01*
X10864Y265309D01*
X10538Y264821D01*
X10377Y264008D01*
Y257173D01*
X10538Y256361D01*
X10999Y255672D01*
X11687Y255211D01*
X12500Y255050D01*
X13313Y255211D01*
X14002Y255672D01*
X14462Y256361D01*
X14624Y257173D01*
Y264008D01*
X14462Y264821D01*
X14136Y265309D01*
X14385Y265809D01*
X15615D01*
X15865Y265309D01*
X15538Y264821D01*
X15377Y264008D01*
Y257173D01*
X15438Y256866D01*
X15461Y255735D01*
Y247691D01*
X15616Y246910D01*
X16058Y246249D01*
X16071Y246236D01*
Y241124D01*
X16058Y240975D01*
X16023Y240762D01*
X15982Y240610D01*
X15971Y240582D01*
X14567Y240583D01*
X14139Y240756D01*
X13732Y241365D01*
X12905Y241917D01*
X12430Y242012D01*
Y239562D01*
Y237113D01*
X12905Y237207D01*
X13732Y237760D01*
X14067Y238261D01*
X14567Y238109D01*
Y234252D01*
X20898D01*
Y239535D01*
X20905Y239574D01*
X20898Y239611D01*
Y240582D01*
X20215D01*
X20189Y240704D01*
X20149Y241118D01*
Y247080D01*
X19994Y247861D01*
X19552Y248522D01*
X19539Y248535D01*
Y256539D01*
X19545Y256710D01*
X19550Y256758D01*
X19547Y256788D01*
X19624Y257173D01*
Y264008D01*
X19462Y264821D01*
X19136Y265309D01*
X19385Y265809D01*
X20615D01*
X20865Y265309D01*
X20538Y264821D01*
X20377Y264008D01*
Y257173D01*
X20538Y256361D01*
X20999Y255672D01*
X21687Y255211D01*
X21871Y255175D01*
X21882Y255168D01*
X21959Y255157D01*
X21967Y255156D01*
X22043Y255126D01*
X22130Y255111D01*
X22179Y255098D01*
X22235Y255078D01*
X22298Y255050D01*
X22369Y255012D01*
X22448Y254963D01*
X22524Y254910D01*
X22670Y254788D01*
X34945Y242513D01*
X35453Y241984D01*
X35670Y241729D01*
Y233896D01*
X35170Y233635D01*
X34559Y234043D01*
X34084Y234138D01*
Y231688D01*
X33084D01*
Y234138D01*
X32608Y234043D01*
X31781Y233491D01*
X31229Y232664D01*
X31087Y231953D01*
X30544Y231788D01*
X27984Y234348D01*
Y235222D01*
X27992Y235260D01*
X27984Y235298D01*
Y240582D01*
X21654D01*
Y234252D01*
X23551D01*
Y232719D01*
X22517Y231684D01*
X2181D01*
Y237811D01*
X2181D01*
X2019Y238203D01*
X2426Y238610D01*
X2868Y239271D01*
X3023Y240052D01*
Y240617D01*
X3837Y241242D01*
X4478Y242077D01*
X4881Y243050D01*
X5019Y244094D01*
X4881Y245139D01*
X4478Y246112D01*
X3837Y246947D01*
X3001Y247588D01*
X2028Y247992D01*
X984Y248129D01*
X35Y248004D01*
X-604Y248567D01*
X-856Y248819D01*
X-928Y249939D01*
Y255382D01*
X-926Y255443D01*
X-914Y255549D01*
X-896Y255653D01*
X-875Y255744D01*
X-851Y255821D01*
X-827Y255885D01*
X-802Y255937D01*
X-778Y255979D01*
X-729Y256049D01*
X-696Y256124D01*
X-538Y256361D01*
X-377Y257173D01*
Y264008D01*
X-538Y264821D01*
X-698Y265060D01*
X5058Y270816D01*
X5587Y271323D01*
X5842Y271541D01*
X35409D01*
X36190Y271696D01*
X36851Y272138D01*
X40270Y275557D01*
X40770Y275350D01*
D02*
G37*
G36*
X-6640Y286526D02*
X-6707Y286410D01*
X-6766Y286285D01*
X-6817Y286151D01*
X-6860Y286007D01*
X-6896Y285855D01*
X-6923Y285694D01*
X-6943Y285524D01*
X-6959Y285156D01*
X-8041D01*
X-8045Y285345D01*
X-8077Y285694D01*
X-8104Y285855D01*
X-8140Y286007D01*
X-8183Y286151D01*
X-8234Y286285D01*
X-8293Y286410D01*
X-8360Y286526D01*
X-8435Y286633D01*
X-6565D01*
X-6640Y286526D01*
D02*
G37*
G36*
X20279Y302551D02*
X20116Y302491D01*
X19973Y302391D01*
X19848Y302251D01*
X19743Y302071D01*
X19657Y301851D01*
X19590Y301591D01*
X19542Y301291D01*
X19514Y300951D01*
X19504Y300571D01*
X17504D01*
X17494Y300951D01*
X17466Y301291D01*
X17418Y301591D01*
X17351Y301851D01*
X17265Y302071D01*
X17160Y302251D01*
X17035Y302391D01*
X16892Y302491D01*
X16729Y302551D01*
X16548Y302571D01*
X20461D01*
X20279Y302551D01*
D02*
G37*
G36*
X32070Y305036D02*
Y303325D01*
X28868Y300122D01*
X28425Y299461D01*
X28270Y298680D01*
Y296248D01*
X27770Y296096D01*
X27512Y296483D01*
X26685Y297035D01*
X26209Y297130D01*
Y294680D01*
X25210D01*
Y297130D01*
X24869Y297062D01*
X23706Y297052D01*
X22500D01*
X21899Y296932D01*
X21389Y296592D01*
X21048Y296082D01*
X20929Y295480D01*
Y295405D01*
X20538Y294820D01*
X20377Y294008D01*
Y291090D01*
X22500D01*
Y290090D01*
X20377D01*
Y287173D01*
X20538Y286361D01*
X20583Y286293D01*
X20348Y285852D01*
X19652D01*
X19417Y286293D01*
X19462Y286361D01*
X19624Y287173D01*
Y294008D01*
X19562Y294315D01*
X19539Y295446D01*
Y296436D01*
X19946Y296842D01*
X20388Y297504D01*
X20543Y298284D01*
Y301027D01*
X20555Y301168D01*
X20590Y301383D01*
X20629Y301537D01*
X20638Y301559D01*
X21335D01*
X21473Y301559D01*
X21835D01*
X21973Y301559D01*
X27772D01*
Y301604D01*
X28158Y301921D01*
X28609Y301831D01*
X29585Y302025D01*
X30412Y302578D01*
X30964Y303405D01*
X31158Y304380D01*
X30964Y305356D01*
X30806Y305593D01*
X31194Y305911D01*
X32070Y305036D01*
D02*
G37*
G36*
X-8933Y297356D02*
X-8845Y297328D01*
X-8722Y297303D01*
X-8563Y297282D01*
X-8136Y297248D01*
X-6850Y297222D01*
Y296139D01*
X-7225Y296137D01*
X-8845Y296033D01*
X-8933Y296004D01*
X-8984Y295973D01*
Y297388D01*
X-8933Y297356D01*
D02*
G37*
G36*
X7875Y301022D02*
X7917Y300941D01*
X7986Y300836D01*
X8084Y300708D01*
X8362Y300382D01*
X9252Y299454D01*
X8487Y298689D01*
X8220Y298953D01*
X7000Y300025D01*
X6919Y300066D01*
X6860Y300080D01*
X7861Y301081D01*
X7875Y301022D01*
D02*
G37*
G36*
X-22774Y306623D02*
X-22722Y306540D01*
X-22636Y306427D01*
X-22363Y306112D01*
X-21096Y304800D01*
X-22510Y303386D01*
X-24387Y305083D01*
X-22794Y306677D01*
X-22774Y306623D01*
D02*
G37*
G36*
X35070Y320314D02*
Y308457D01*
X34608Y308265D01*
X31126Y311748D01*
X31164Y311805D01*
X31358Y312780D01*
X31164Y313756D01*
X30612Y314583D01*
X29785Y315135D01*
X28809Y315329D01*
X27834Y315135D01*
X27007Y314583D01*
X26454Y313756D01*
X26261Y312780D01*
X26454Y311805D01*
X26770Y311332D01*
Y311180D01*
X26926Y310400D01*
X27367Y309738D01*
X28040Y309066D01*
X27722Y308677D01*
X21973D01*
X21835Y308677D01*
X21473D01*
X21335Y308677D01*
X20621D01*
X20613Y308697D01*
X20574Y308844D01*
X20539Y309052D01*
X20527Y309194D01*
Y317294D01*
X20543Y317375D01*
X20388Y318155D01*
X19946Y318817D01*
X14504Y324258D01*
X14737Y324732D01*
X30651D01*
X35070Y320314D01*
D02*
G37*
G36*
X-4101Y314588D02*
X-2994Y313623D01*
X-2473Y313226D01*
X-1974Y312887D01*
X-1497Y312604D01*
X-1042Y312380D01*
X-609Y312212D01*
X-197Y312102D01*
X192Y312049D01*
X-2994Y308863D01*
X-3047Y309252D01*
X-3157Y309664D01*
X-3325Y310097D01*
X-3549Y310552D01*
X-3831Y311029D01*
X-4171Y311528D01*
X-4567Y312049D01*
X-5533Y313156D01*
X-6101Y313742D01*
X-4687Y315156D01*
X-4101Y314588D01*
D02*
G37*
G36*
X26759Y306206D02*
X26793Y306184D01*
X26849Y306165D01*
X26928Y306148D01*
X27029Y306134D01*
X27299Y306114D01*
X27872Y306102D01*
Y305687D01*
X27872Y305687D01*
X27872Y305683D01*
Y304134D01*
X27658Y304133D01*
X27562Y304127D01*
X27428Y303456D01*
X27307Y303585D01*
X27153Y303700D01*
X26969Y303802D01*
X26754Y303890D01*
X26507Y303964D01*
X26228Y304025D01*
X25919Y304073D01*
X25578Y304107D01*
X24803Y304134D01*
X24903Y306102D01*
X26748Y305844D01*
Y306230D01*
X26759Y306206D01*
D02*
G37*
G36*
X19498Y309260D02*
X19527Y308925D01*
X19576Y308630D01*
X19644Y308374D01*
X19731Y308157D01*
X19838Y307980D01*
X19965Y307842D01*
X20110Y307744D01*
X20276Y307685D01*
X20461Y307665D01*
X16548D01*
X16732Y307685D01*
X16898Y307744D01*
X17043Y307842D01*
X17170Y307980D01*
X17277Y308157D01*
X17364Y308374D01*
X17432Y308630D01*
X17481Y308925D01*
X17510Y309260D01*
X17520Y309634D01*
X19488D01*
X19498Y309260D01*
D02*
G37*
G36*
X18543Y294287D02*
X16457D01*
X16465Y294327D01*
X16473Y294405D01*
X16489Y294865D01*
X16500Y296391D01*
X18500D01*
X18543Y294287D01*
D02*
G37*
G36*
X-38559Y286180D02*
X-38579Y286370D01*
X-38639Y286540D01*
X-38740Y286690D01*
X-38881Y286820D01*
X-39062Y286930D01*
X-39283Y287020D01*
X-39545Y287090D01*
X-39846Y287140D01*
X-40189Y287170D01*
X-40571Y287180D01*
Y289180D01*
X-40189Y289190D01*
X-39846Y289220D01*
X-39545Y289270D01*
X-39283Y289340D01*
X-39062Y289430D01*
X-38881Y289540D01*
X-38740Y289670D01*
X-38639Y289820D01*
X-38579Y289990D01*
X-38559Y290180D01*
Y286180D01*
D02*
G37*
G36*
X-33042Y287846D02*
X-33306Y287580D01*
X-34377Y286360D01*
X-34419Y286279D01*
X-34433Y286220D01*
X-35434Y287221D01*
X-35375Y287234D01*
X-35293Y287276D01*
X-35189Y287346D01*
X-35061Y287443D01*
X-34735Y287721D01*
X-33807Y288612D01*
X-33042Y287846D01*
D02*
G37*
G36*
X-1640Y286526D02*
X-1706Y286410D01*
X-1766Y286285D01*
X-1817Y286151D01*
X-1860Y286007D01*
X-1896Y285855D01*
X-1923Y285694D01*
X-1943Y285524D01*
X-1959Y285156D01*
X-3041D01*
X-3045Y285345D01*
X-3077Y285694D01*
X-3104Y285855D01*
X-3140Y286007D01*
X-3183Y286151D01*
X-3234Y286285D01*
X-3293Y286410D01*
X-3360Y286526D01*
X-3435Y286633D01*
X-1565D01*
X-1640Y286526D01*
D02*
G37*
G36*
X-21899Y286302D02*
X-21911Y286277D01*
X-21923Y286235D01*
X-21932Y286176D01*
X-21940Y286101D01*
X-21956Y285773D01*
X-21959Y285471D01*
X-23041D01*
X-23042Y285630D01*
X-23077Y286235D01*
X-23088Y286277D01*
X-23101Y286302D01*
X-23115Y286311D01*
X-21885D01*
X-21899Y286302D01*
D02*
G37*
G36*
X-23568Y289508D02*
X-23579Y289611D01*
X-23612Y289703D01*
X-23666Y289784D01*
X-23743Y289854D01*
X-23842Y289914D01*
X-23962Y289963D01*
X-24104Y290001D01*
X-24269Y290027D01*
X-24455Y290044D01*
X-24663Y290049D01*
Y291132D01*
X-24455Y291137D01*
X-24269Y291154D01*
X-24104Y291181D01*
X-23962Y291218D01*
X-23842Y291267D01*
X-23743Y291327D01*
X-23666Y291397D01*
X-23612Y291478D01*
X-23579Y291570D01*
X-23568Y291673D01*
Y289508D01*
D02*
G37*
G36*
X7106Y295849D02*
X7228Y295415D01*
X7295Y295252D01*
X7367Y295126D01*
X7443Y295035D01*
X7524Y294981D01*
X7608Y294962D01*
X7698Y294980D01*
X7791Y295033D01*
X6420Y294008D01*
X6412Y293963D01*
X6401Y293941D01*
X6387Y293942D01*
X6372Y293966D01*
X6354Y294013D01*
X6333Y294083D01*
X6285Y294290D01*
X6228Y294589D01*
X7051Y296119D01*
X7106Y295849D01*
D02*
G37*
G36*
X24316Y294125D02*
X24239Y294280D01*
X24140Y294418D01*
X24016Y294540D01*
X23870Y294646D01*
X23700Y294736D01*
X23507Y294809D01*
X23290Y294866D01*
X23050Y294906D01*
X22787Y294931D01*
X22500Y294939D01*
Y296022D01*
X25085Y296044D01*
X24316Y294125D01*
D02*
G37*
G36*
X-31530Y289358D02*
X-31678Y289203D01*
X-31810Y289048D01*
X-31927Y288894D01*
X-32028Y288740D01*
X-32113Y288586D01*
X-32183Y288434D01*
X-32238Y288281D01*
X-32276Y288129D01*
X-32300Y287978D01*
X-32307Y287827D01*
Y290889D01*
X-32300Y290749D01*
X-32276Y290640D01*
X-32238Y290563D01*
X-32183Y290516D01*
X-32113Y290500D01*
X-32028Y290516D01*
X-31927Y290563D01*
X-31810Y290640D01*
X-31678Y290749D01*
X-31530Y290889D01*
Y289358D01*
D02*
G37*
G36*
X-15754Y296371D02*
X-15983Y296185D01*
X-16188Y295982D01*
X-16368Y295761D01*
X-16525Y295522D01*
X-16657Y295265D01*
X-16766Y294990D01*
X-16781Y294937D01*
X-16766Y294896D01*
X-16706Y294771D01*
X-16640Y294655D01*
X-16565Y294548D01*
X-16879D01*
X-16910Y294388D01*
X-16947Y294060D01*
X-16959Y293714D01*
X-18041Y293951D01*
X-18028Y294548D01*
X-18435D01*
X-18360Y294655D01*
X-18293Y294771D01*
X-18234Y294896D01*
X-18183Y295030D01*
X-18140Y295174D01*
X-18104Y295326D01*
X-18077Y295487D01*
X-18057Y295657D01*
X-18041Y296025D01*
X-17995D01*
X-17976Y296897D01*
X-15754Y296371D01*
D02*
G37*
G36*
X3094Y256295D02*
X3083Y256271D01*
X3073Y256229D01*
X3064Y256172D01*
X3052Y256007D01*
X3041Y255480D01*
X1959D01*
X1958Y255637D01*
X1918Y256271D01*
X1907Y256295D01*
X1894Y256304D01*
X3106D01*
X3094Y256295D01*
D02*
G37*
G36*
X35336Y191471D02*
X33083D01*
X33107Y191522D01*
X33128Y191618D01*
X33147Y191759D01*
X33178Y192175D01*
X33209Y193998D01*
X35209D01*
X35336Y191471D01*
D02*
G37*
G36*
X29936Y191671D02*
X27683D01*
X27707Y191722D01*
X27729Y191818D01*
X27747Y191959D01*
X27778Y192375D01*
X27809Y194198D01*
X29809D01*
X29936Y191671D01*
D02*
G37*
G36*
X2976Y191766D02*
X2870Y191582D01*
X2775Y191369D01*
X2694Y191129D01*
X2625Y190861D01*
X2569Y190564D01*
X2525Y190240D01*
X2475Y189507D01*
X2468Y189099D01*
X1469D01*
X1462Y189507D01*
X1412Y190240D01*
X1368Y190564D01*
X1312Y190861D01*
X1243Y191129D01*
X1161Y191369D01*
X1068Y191582D01*
X961Y191766D01*
X842Y191923D01*
X3095D01*
X2976Y191766D01*
D02*
G37*
G36*
X32170Y224395D02*
Y192877D01*
X32159Y192220D01*
X32133Y191873D01*
X31855Y191456D01*
X31356Y191512D01*
X31170Y191628D01*
X31164Y191656D01*
X30941Y191990D01*
X30849Y193833D01*
Y224780D01*
X30792Y225066D01*
X31253Y225312D01*
X32170Y224395D01*
D02*
G37*
G36*
X-39749Y198283D02*
X-39653Y198261D01*
X-39512Y198242D01*
X-39096Y198212D01*
X-37273Y198180D01*
Y196180D01*
X-39800Y196054D01*
Y198307D01*
X-39749Y198283D01*
D02*
G37*
G36*
X26770Y216210D02*
X26270Y216003D01*
X20946Y221327D01*
X20490Y221800D01*
X20262Y222063D01*
X20164Y222556D01*
X19907Y222941D01*
X20174Y223441D01*
X26770D01*
Y216210D01*
D02*
G37*
G36*
X19326Y221623D02*
X19378Y221540D01*
X19464Y221427D01*
X19737Y221112D01*
X21004Y219800D01*
X19590Y218386D01*
X17713Y220083D01*
X19306Y221676D01*
X19326Y221623D01*
D02*
G37*
G36*
X-24497Y228203D02*
X-23835Y227761D01*
X-23055Y227606D01*
X-12985D01*
X-12971Y227596D01*
X-12191Y227441D01*
X-12190Y227441D01*
X14744D01*
X14896Y226941D01*
X14867Y226922D01*
X12867Y224922D01*
X12426Y224261D01*
X12270Y223480D01*
Y211880D01*
X12426Y211100D01*
X12867Y210438D01*
X16070Y207236D01*
Y189404D01*
X15660Y189125D01*
X15570Y189138D01*
X15190Y189214D01*
X13823Y190451D01*
X-6667Y210941D01*
X-6460Y211441D01*
X-5435D01*
X373Y205633D01*
X829Y205161D01*
X1056Y204897D01*
X1154Y204405D01*
X1707Y203578D01*
X2534Y203025D01*
X3509Y202831D01*
X4485Y203025D01*
X5312Y203578D01*
X5864Y204405D01*
X6058Y205380D01*
X5864Y206356D01*
X5312Y207183D01*
X4485Y207735D01*
X4090Y207814D01*
X2723Y209051D01*
X-2783Y214557D01*
X-2803Y214601D01*
X-2726Y215207D01*
X-2147Y215651D01*
X-1506Y216487D01*
X-1103Y217460D01*
X-965Y218504D01*
X-1103Y219548D01*
X-1506Y220521D01*
X-2147Y221357D01*
X-2983Y221998D01*
X-3956Y222401D01*
X-5000Y222538D01*
X-6044Y222401D01*
X-7017Y221998D01*
X-7853Y221357D01*
X-8494Y220521D01*
X-8897Y219548D01*
X-9035Y218504D01*
X-8960Y217941D01*
X-9434Y217707D01*
X-15428Y223702D01*
X-15884Y224174D01*
X-16112Y224438D01*
X-16210Y224930D01*
X-16762Y225757D01*
X-17590Y226310D01*
X-18565Y226504D01*
X-19540Y226310D01*
X-20367Y225757D01*
X-20920Y224930D01*
X-21114Y223955D01*
X-20920Y222979D01*
X-20367Y222152D01*
X-19540Y221600D01*
X-19146Y221521D01*
X-17778Y220284D01*
X-9879Y212385D01*
X-10086Y211885D01*
X-12151D01*
X-27259Y226993D01*
X-27596Y227356D01*
X-27834Y227654D01*
X-28015Y227914D01*
X-28036Y227950D01*
Y228688D01*
X-28028Y228726D01*
X-28036Y228765D01*
Y231088D01*
X-27574Y231279D01*
X-24497Y228203D01*
D02*
G37*
G36*
X3606Y206877D02*
X2012Y205284D01*
X1993Y205337D01*
X1941Y205420D01*
X1855Y205533D01*
X1582Y205849D01*
X315Y207161D01*
X1729Y208575D01*
X3606Y206877D01*
D02*
G37*
G36*
X30326Y190723D02*
X30378Y190640D01*
X30464Y190527D01*
X30737Y190212D01*
X32004Y188900D01*
X30590Y187486D01*
X28713Y189183D01*
X30306Y190777D01*
X30326Y190723D01*
D02*
G37*
G36*
X32812Y169685D02*
X31953Y168788D01*
X30489Y167019D01*
X29884Y166147D01*
X29365Y165285D01*
X28930Y164431D01*
X28580Y163585D01*
X28316Y162749D01*
X28136Y161921D01*
X28041Y161102D01*
X22814Y166328D01*
X23633Y166423D01*
X24461Y166603D01*
X25298Y166868D01*
X26143Y167218D01*
X26997Y167652D01*
X27860Y168172D01*
X28731Y168776D01*
X29612Y169466D01*
X31398Y171099D01*
X32812Y169685D01*
D02*
G37*
G36*
X35275Y173811D02*
X35105Y173751D01*
X34955Y173651D01*
X34825Y173511D01*
X34715Y173331D01*
X34625Y173111D01*
X34555Y172851D01*
X34505Y172551D01*
X34475Y172211D01*
X34465Y171831D01*
X32465D01*
X32455Y172211D01*
X32425Y172551D01*
X32375Y172851D01*
X32305Y173111D01*
X32215Y173331D01*
X32105Y173511D01*
X31975Y173651D01*
X31825Y173751D01*
X31655Y173811D01*
X31465Y173831D01*
X35465D01*
X35275Y173811D01*
D02*
G37*
G36*
X2162Y155353D02*
X2222Y155183D01*
X2323Y155033D01*
X2463Y154903D01*
X2644Y154793D01*
X2866Y154703D01*
X3127Y154633D01*
X3429Y154583D01*
X3771Y154553D01*
X4153Y154543D01*
Y152543D01*
X3771Y152533D01*
X3429Y152503D01*
X3127Y152453D01*
X2866Y152383D01*
X2644Y152293D01*
X2463Y152183D01*
X2323Y152053D01*
X2222Y151903D01*
X2162Y151733D01*
X2141Y151543D01*
Y155543D01*
X2162Y155353D01*
D02*
G37*
G36*
X35670Y170553D02*
Y161225D01*
X30028Y155582D01*
X28296D01*
X28171Y156082D01*
X28896Y156470D01*
X29798Y157210D01*
X30538Y158112D01*
X31087Y159140D01*
X31426Y160257D01*
X31541Y161417D01*
X31426Y162578D01*
X31087Y163694D01*
X30538Y164723D01*
X30352Y164949D01*
X30741Y165593D01*
X31302Y166402D01*
X32715Y168109D01*
X32916Y168320D01*
X34907Y170310D01*
X34907Y170310D01*
X35172Y170707D01*
X35670Y170553D01*
D02*
G37*
G36*
X31323Y173984D02*
X31303Y174174D01*
X31243Y174344D01*
X31142Y174494D01*
X31001Y174624D01*
X30820Y174734D01*
X30599Y174824D01*
X30337Y174894D01*
X30036Y174944D01*
X29694Y174974D01*
X29311Y174984D01*
Y176984D01*
X29694Y176994D01*
X30036Y177024D01*
X30337Y177074D01*
X30599Y177144D01*
X30820Y177234D01*
X31001Y177344D01*
X31142Y177474D01*
X31243Y177624D01*
X31303Y177794D01*
X31323Y177984D01*
Y173984D01*
D02*
G37*
G36*
X11473Y187033D02*
X11929Y186561D01*
X12156Y186298D01*
X12251Y185824D01*
X12265Y185679D01*
X12102Y185285D01*
X11665Y185198D01*
X11064Y184796D01*
X11033Y184781D01*
X10973Y184736D01*
X10882Y184675D01*
X10847Y184655D01*
X10727Y184601D01*
X10566Y184547D01*
X10366Y184495D01*
X10128Y184450D01*
X9864Y184415D01*
X9252Y184373D01*
X8735D01*
X3503Y189604D01*
X3540Y190137D01*
X3576Y190401D01*
X3621Y190638D01*
X3672Y190838D01*
X3726Y190999D01*
X3780Y191120D01*
X3800Y191155D01*
X3861Y191246D01*
X3906Y191306D01*
X3921Y191336D01*
X4323Y191938D01*
X4518Y192913D01*
X4426Y193373D01*
X4887Y193619D01*
X11473Y187033D01*
D02*
G37*
G36*
X14706Y188277D02*
X13113Y186684D01*
X13093Y186737D01*
X13041Y186820D01*
X12955Y186933D01*
X12682Y187249D01*
X11415Y188561D01*
X12829Y189975D01*
X14706Y188277D01*
D02*
G37*
G36*
X27849Y188322D02*
X28229Y188247D01*
X29596Y187010D01*
X30009Y186597D01*
X30299Y186236D01*
X30299D01*
X30299Y186236D01*
Y179906D01*
X35670D01*
Y179150D01*
X30299D01*
Y178123D01*
X30274Y178113D01*
X30122Y178072D01*
X29908Y178037D01*
X29758Y178024D01*
X27349D01*
Y188056D01*
X27759Y188336D01*
X27849Y188322D01*
D02*
G37*
G36*
X11650Y181717D02*
X11494Y181836D01*
X11310Y181942D01*
X11097Y182036D01*
X10857Y182118D01*
X10588Y182187D01*
X10292Y182243D01*
X9968Y182287D01*
X9235Y182337D01*
X8827Y182343D01*
Y183343D01*
X9235Y183350D01*
X9968Y183400D01*
X10292Y183443D01*
X10588Y183500D01*
X10857Y183569D01*
X11097Y183650D01*
X11310Y183744D01*
X11494Y183851D01*
X11650Y183970D01*
Y181717D01*
D02*
G37*
G36*
X-17049Y223998D02*
X-16996Y223915D01*
X-16910Y223802D01*
X-16637Y223486D01*
X-15370Y222174D01*
X-16784Y220760D01*
X-18661Y222458D01*
X-17068Y224051D01*
X-17049Y223998D01*
D02*
G37*
G36*
X-7846Y250798D02*
X-7743Y249386D01*
X-7653Y248756D01*
X-7538Y248177D01*
X-7397Y247649D01*
X-7231Y247171D01*
X-7039Y246744D01*
X-6821Y246368D01*
X-6577Y246043D01*
X-11139D01*
X-10896Y246368D01*
X-10678Y246744D01*
X-10486Y247171D01*
X-10319Y247649D01*
X-10179Y248177D01*
X-10063Y248756D01*
X-9974Y249386D01*
X-9871Y250798D01*
X-9858Y251580D01*
X-7858D01*
X-7846Y250798D01*
D02*
G37*
G36*
X-17550Y249098D02*
X-16330Y248027D01*
X-16249Y247985D01*
X-16190Y247971D01*
X-17190Y246970D01*
X-17205Y247029D01*
X-17246Y247111D01*
X-17316Y247216D01*
X-17413Y247343D01*
X-17692Y247669D01*
X-18582Y248597D01*
X-17817Y249362D01*
X-17550Y249098D01*
D02*
G37*
G36*
X-29809Y246503D02*
X-29954Y246231D01*
X-30081Y245906D01*
X-30191Y245529D01*
X-30284Y245099D01*
X-30360Y244617D01*
X-30462Y243494D01*
X-30496Y242161D01*
X-32496D01*
X-32505Y242854D01*
X-32632Y244617D01*
X-32708Y245099D01*
X-32801Y245529D01*
X-32912Y245906D01*
X-33039Y246231D01*
X-33183Y246503D01*
X-33344Y246722D01*
X-29648D01*
X-29809Y246503D01*
D02*
G37*
G36*
X-1957Y250044D02*
X-1852Y248424D01*
X-1824Y248337D01*
X-1792Y248285D01*
X-1510Y248006D01*
X-346Y246981D01*
X-241Y246919D01*
X-161Y246888D01*
X-107Y246889D01*
X-1810Y245185D01*
X-1810Y245240D01*
X-1840Y245320D01*
X-1902Y245425D01*
X-1995Y245555D01*
X-2119Y245711D01*
X-2678Y246331D01*
X-3207Y246872D01*
X-1793Y248285D01*
X-3207D01*
X-3176Y248337D01*
X-3148Y248424D01*
X-3123Y248547D01*
X-3101Y248707D01*
X-3068Y249133D01*
X-3041Y250419D01*
X-1959D01*
X-1957Y250044D01*
D02*
G37*
G36*
X-6465Y256854D02*
X-6472Y256776D01*
X-6489Y256316D01*
X-6500Y254790D01*
X-8500D01*
X-8543Y256894D01*
X-6457D01*
X-6465Y256854D01*
D02*
G37*
G36*
X-1640Y256526D02*
X-1706Y256410D01*
X-1766Y256285D01*
X-1817Y256151D01*
X-1860Y256007D01*
X-1896Y255855D01*
X-1923Y255694D01*
X-1943Y255524D01*
X-1959Y255156D01*
X-3041D01*
X-3045Y255345D01*
X-3077Y255694D01*
X-3104Y255855D01*
X-3140Y256007D01*
X-3183Y256151D01*
X-3234Y256285D01*
X-3293Y256410D01*
X-3360Y256526D01*
X-3435Y256633D01*
X-1565D01*
X-1640Y256526D01*
D02*
G37*
G36*
X23511Y257545D02*
X23484Y257445D01*
X23485Y257330D01*
X23516Y257202D01*
X23575Y257059D01*
X23664Y256903D01*
X23782Y256732D01*
X23929Y256547D01*
X24105Y256349D01*
X24310Y256136D01*
X23549Y255366D01*
X23413Y255496D01*
X23144Y255720D01*
X23011Y255814D01*
X22877Y255896D01*
X22745Y255967D01*
X22613Y256025D01*
X22482Y256072D01*
X22351Y256107D01*
X22221Y256130D01*
X23568Y257631D01*
X23511Y257545D01*
D02*
G37*
G36*
X18535Y256854D02*
X18528Y256776D01*
X18511Y256316D01*
X18500Y254790D01*
X16500D01*
X16457Y256894D01*
X18543D01*
X18535Y256854D01*
D02*
G37*
G36*
X-21640Y256526D02*
X-21707Y256410D01*
X-21766Y256285D01*
X-21817Y256151D01*
X-21860Y256007D01*
X-21896Y255855D01*
X-21923Y255694D01*
X-21943Y255524D01*
X-21959Y255156D01*
X-23041D01*
X-23045Y255345D01*
X-23077Y255694D01*
X-23104Y255855D01*
X-23140Y256007D01*
X-23183Y256151D01*
X-23234Y256285D01*
X-23293Y256410D01*
X-23360Y256526D01*
X-23435Y256633D01*
X-21565D01*
X-21640Y256526D01*
D02*
G37*
G36*
X36350Y244098D02*
X37570Y243027D01*
X37652Y242985D01*
X37710Y242971D01*
X36709Y241970D01*
X36696Y242029D01*
X36654Y242111D01*
X36584Y242215D01*
X36487Y242343D01*
X36208Y242669D01*
X35318Y243597D01*
X36083Y244362D01*
X36350Y244098D01*
D02*
G37*
G36*
X-23535Y245798D02*
Y243775D01*
X-23549Y243258D01*
X-23644Y242202D01*
X-23711Y241781D01*
X-23790Y241415D01*
X-23877Y241117D01*
X-23967Y240889D01*
X-24049Y240734D01*
X-24166Y240575D01*
X-24193Y240517D01*
X-24519Y240092D01*
X-24868Y239250D01*
X-24987Y238347D01*
X-24868Y237443D01*
X-24519Y236601D01*
X-23964Y235878D01*
X-23241Y235324D01*
X-22400Y234975D01*
X-21496Y234856D01*
X-20593Y234975D01*
X-19751Y235324D01*
X-19028Y235878D01*
X-18730Y236267D01*
X-18230Y236097D01*
Y233480D01*
X-18075Y232700D01*
X-17730Y232184D01*
X-17933Y231684D01*
X-22210D01*
X-29457Y238931D01*
Y242918D01*
X-29444Y243435D01*
X-29348Y244491D01*
X-29282Y244912D01*
X-29202Y245278D01*
X-29115Y245577D01*
X-29026Y245804D01*
X-28944Y245959D01*
X-28827Y246118D01*
X-28799Y246176D01*
X-28473Y246601D01*
X-28125Y247443D01*
X-28006Y248346D01*
X-28125Y249250D01*
X-28429Y249984D01*
X-28005Y250267D01*
X-23535Y245798D01*
D02*
G37*
G36*
X26972Y235264D02*
X26900Y235250D01*
X26835Y235208D01*
X26778Y235137D01*
X26728Y235039D01*
X26686Y234912D01*
X26652Y234758D01*
X26625Y234575D01*
X26606Y234364D01*
X26591Y233858D01*
X24590D01*
X24587Y234127D01*
X24554Y234580D01*
X24526Y234765D01*
X24489Y234921D01*
X24444Y235048D01*
X24392Y235148D01*
X24331Y235219D01*
X24262Y235261D01*
X24185Y235276D01*
X26972Y235264D01*
D02*
G37*
G36*
X-29161Y228571D02*
X-29217Y228387D01*
Y228175D01*
X-29161Y227934D01*
X-29048Y227666D01*
X-28878Y227369D01*
X-28651Y227043D01*
X-28369Y226690D01*
X-27633Y225898D01*
X-29048Y224484D01*
X-29458Y224880D01*
X-30193Y225502D01*
X-30518Y225728D01*
X-30815Y225898D01*
X-31084Y226011D01*
X-31324Y226068D01*
X-31536D01*
X-31720Y226011D01*
X-31876Y225898D01*
X-29048Y228726D01*
X-29161Y228571D01*
D02*
G37*
G36*
X-13066Y231790D02*
X-12766Y231550D01*
X-12454Y231338D01*
X-12130Y231154D01*
X-11794Y230998D01*
X-11447Y230871D01*
X-11088Y230772D01*
X-10717Y230701D01*
X-10335Y230659D01*
X-9941Y230645D01*
X-12355Y228645D01*
X-16769Y230645D01*
X-16403Y230659D01*
X-16106Y230701D01*
X-15876Y230772D01*
X-15715Y230871D01*
X-15623Y230998D01*
X-15598Y231154D01*
X-15642Y231338D01*
X-15754Y231550D01*
X-15935Y231790D01*
X-16183Y232059D01*
X-13355D01*
X-13066Y231790D01*
D02*
G37*
G36*
X-6082Y237997D02*
X-6043Y237519D01*
X-6010Y237325D01*
X-5966Y237160D01*
X-5913Y237026D01*
X-5851Y236922D01*
X-5779Y236847D01*
X-5697Y236802D01*
X-5605Y236787D01*
X-8568D01*
X-8476Y236802D01*
X-8394Y236847D01*
X-8322Y236922D01*
X-8260Y237026D01*
X-8207Y237160D01*
X-8163Y237325D01*
X-8130Y237519D01*
X-8106Y237743D01*
X-8087Y238280D01*
X-6086D01*
X-6082Y237997D01*
D02*
G37*
G36*
X19118Y241191D02*
X19180Y240551D01*
X19234Y240290D01*
X19304Y240071D01*
X19389Y239891D01*
X19490Y239751D01*
X19606Y239651D01*
X19738Y239591D01*
X19886Y239571D01*
X16110Y239559D01*
X16300Y239579D01*
X16470Y239640D01*
X16620Y239741D01*
X16750Y239882D01*
X16860Y240063D01*
X16950Y240284D01*
X17020Y240546D01*
X17070Y240847D01*
X17100Y241189D01*
X17110Y241571D01*
X19110D01*
X19118Y241191D01*
D02*
G37*
G36*
X-20488Y243839D02*
X-20360Y242076D01*
X-20284Y241594D01*
X-20191Y241164D01*
X-20081Y240787D01*
X-19953Y240462D01*
X-19809Y240191D01*
X-19648Y239971D01*
X-23344D01*
X-23183Y240191D01*
X-23039Y240462D01*
X-22912Y240787D01*
X-22801Y241164D01*
X-22708Y241594D01*
X-22632Y242076D01*
X-22530Y243199D01*
X-22496Y244532D01*
X-20496D01*
X-20488Y243839D01*
D02*
G37*
G36*
X218Y237997D02*
X256Y237519D01*
X290Y237325D01*
X333Y237160D01*
X386Y237026D01*
X448Y236922D01*
X521Y236847D01*
X602Y236802D01*
X694Y236787D01*
X-2269D01*
X-2177Y236802D01*
X-2095Y236847D01*
X-2023Y236922D01*
X-1961Y237026D01*
X-1908Y237160D01*
X-1864Y237325D01*
X-1831Y237519D01*
X-1807Y237743D01*
X-1787Y238280D01*
X213D01*
X218Y237997D01*
D02*
G37*
G36*
X-3918Y266133D02*
X-3952Y266082D01*
X-4072Y265480D01*
Y265405D01*
X-4462Y264821D01*
X-4623Y264008D01*
Y257173D01*
X-4462Y256361D01*
X-4304Y256124D01*
X-4271Y256049D01*
X-4222Y255979D01*
X-4198Y255937D01*
X-4173Y255885D01*
X-4149Y255821D01*
X-4125Y255744D01*
X-4104Y255653D01*
X-4089Y255562D01*
X-4072Y255373D01*
Y249917D01*
X-4087Y249184D01*
X-4115Y248815D01*
X-4124Y248747D01*
X-4384Y248359D01*
X-4539Y247579D01*
X-4384Y246798D01*
X-3942Y246137D01*
X-3269Y245464D01*
X-2921Y245078D01*
X-3050Y244094D01*
X-2913Y243050D01*
X-2510Y242077D01*
X-1869Y241242D01*
X-1514Y240969D01*
X-1481Y240470D01*
X-2229Y239722D01*
X-2671Y239061D01*
X-2826Y238280D01*
Y237811D01*
X-3756D01*
Y237811D01*
X-4118D01*
Y237811D01*
X-5044D01*
X-5047Y237854D01*
Y238280D01*
X-5203Y239061D01*
X-5645Y239722D01*
X-6393Y240471D01*
X-6360Y240969D01*
X-6005Y241242D01*
X-5364Y242077D01*
X-4961Y243050D01*
X-4824Y244094D01*
X-4961Y245139D01*
X-5364Y246112D01*
X-5729Y246587D01*
X-5761Y246654D01*
X-5968Y246931D01*
X-6130Y247210D01*
X-6283Y247549D01*
X-6422Y247949D01*
X-6544Y248408D01*
X-6648Y248928D01*
X-6729Y249495D01*
X-6819Y250736D01*
X-6058Y251497D01*
X-5616Y252158D01*
X-5461Y252939D01*
Y256539D01*
X-5455Y256710D01*
X-5450Y256758D01*
X-5453Y256788D01*
X-5376Y257173D01*
Y264008D01*
X-5538Y264821D01*
X-5698Y265060D01*
X-4306Y266452D01*
X-3918Y266133D01*
D02*
G37*
G36*
X-8583Y383492D02*
X-10669D01*
X-10661Y383532D01*
X-10654Y383610D01*
X-10637Y384070D01*
X-10626Y385596D01*
X-8626D01*
X-8583Y383492D01*
D02*
G37*
G36*
X10919Y385041D02*
X10951Y384692D01*
X10978Y384531D01*
X11014Y384379D01*
X11057Y384235D01*
X11108Y384101D01*
X11168Y383976D01*
X11234Y383860D01*
X11309Y383753D01*
X9439D01*
X9514Y383860D01*
X9581Y383976D01*
X9640Y384101D01*
X9691Y384235D01*
X9734Y384379D01*
X9770Y384531D01*
X9797Y384692D01*
X9817Y384862D01*
X9833Y385229D01*
X10915D01*
X10919Y385041D01*
D02*
G37*
G36*
X24054Y380656D02*
X24453Y380317D01*
X24630Y380193D01*
X24791Y380100D01*
X24936Y380038D01*
X25066Y380006D01*
X25180Y380005D01*
X25279Y380034D01*
X25362Y380094D01*
X23843Y378575D01*
X23903Y378658D01*
X23932Y378757D01*
X23931Y378871D01*
X23899Y379001D01*
X23837Y379146D01*
X23744Y379307D01*
X23620Y379483D01*
X23466Y379675D01*
X23065Y380106D01*
X23831Y380872D01*
X24054Y380656D01*
D02*
G37*
G36*
X6751Y386098D02*
X6592Y385925D01*
X6450Y385729D01*
X6325Y385509D01*
X6216Y385264D01*
X6124Y384996D01*
X6049Y384704D01*
X6000Y384438D01*
X6014Y384379D01*
X6057Y384235D01*
X6108Y384101D01*
X6168Y383976D01*
X6234Y383860D01*
X6309Y383753D01*
X5929D01*
X5924Y383682D01*
X5915Y383294D01*
X4833Y383566D01*
X4831Y383753D01*
X4439D01*
X4514Y383860D01*
X4581Y383976D01*
X4640Y384101D01*
X4691Y384235D01*
X4734Y384379D01*
X4770Y384531D01*
X4786Y384624D01*
X4714Y385641D01*
X4671Y385859D01*
X4621Y386041D01*
X4565Y386186D01*
X4502Y386295D01*
X6751Y386098D01*
D02*
G37*
G36*
X-2376Y385308D02*
X-2534Y385325D01*
X-2698Y385318D01*
X-2868Y385285D01*
X-3045Y385228D01*
X-3229Y385146D01*
X-3419Y385039D01*
X-3615Y384907D01*
X-3818Y384750D01*
X-4027Y384569D01*
X-4243Y384362D01*
X-5009Y385128D01*
X-4760Y385381D01*
X-3995Y386274D01*
X-3861Y386466D01*
X-3750Y386647D01*
X-3661Y386815D01*
X-3596Y386971D01*
X-3553Y387114D01*
X-2376Y385308D01*
D02*
G37*
G36*
X29355Y390520D02*
X29335Y390710D01*
X29274Y390880D01*
X29174Y391030D01*
X29033Y391160D01*
X28852Y391270D01*
X28630Y391360D01*
X28369Y391430D01*
X28067Y391480D01*
X27725Y391510D01*
X27343Y391520D01*
Y393520D01*
X27725Y393530D01*
X28067Y393560D01*
X28369Y393610D01*
X28630Y393680D01*
X28852Y393770D01*
X29033Y393880D01*
X29174Y394010D01*
X29274Y394160D01*
X29335Y394330D01*
X29355Y394520D01*
Y390520D01*
D02*
G37*
G36*
X-14346Y391335D02*
X-14476Y391312D01*
X-14605Y391277D01*
X-14736Y391230D01*
X-14867Y391172D01*
X-14999Y391101D01*
X-15132Y391019D01*
X-15266Y390924D01*
X-15400Y390818D01*
X-15671Y390569D01*
X-16435Y391337D01*
X-16230Y391549D01*
X-15907Y391933D01*
X-15789Y392103D01*
X-15701Y392260D01*
X-15641Y392402D01*
X-15611Y392530D01*
X-15609Y392645D01*
X-15637Y392745D01*
X-15694Y392831D01*
X-14346Y391335D01*
D02*
G37*
G36*
X11234Y391731D02*
X11168Y391615D01*
X11108Y391490D01*
X11057Y391355D01*
X11014Y391212D01*
X10978Y391060D01*
X10951Y390899D01*
X10931Y390728D01*
X10921Y390480D01*
X10923Y390409D01*
X10946Y390202D01*
X10984Y390002D01*
X11038Y389807D01*
X11107Y389619D01*
X11191Y389438D01*
X11291Y389262D01*
X11405Y389093D01*
X11535Y388931D01*
X11681Y388774D01*
X11027Y387897D01*
X11005Y387908D01*
X10987Y387894D01*
X10970Y387857D01*
X10955Y387795D01*
X10916Y387131D01*
X10915Y386926D01*
X9833Y389316D01*
X10699Y390361D01*
X9833D01*
X9829Y390549D01*
X9797Y390899D01*
X9770Y391060D01*
X9734Y391212D01*
X9691Y391355D01*
X9640Y391490D01*
X9581Y391615D01*
X9514Y391731D01*
X9439Y391838D01*
X11309D01*
X11234Y391731D01*
D02*
G37*
G36*
X-8591Y392059D02*
X-8598Y391981D01*
X-8615Y391520D01*
X-8626Y389994D01*
X-10626D01*
X-10669Y392098D01*
X-8583D01*
X-8591Y392059D01*
D02*
G37*
G36*
X-3081Y365154D02*
X-3132Y365178D01*
X-3228Y365199D01*
X-3369Y365218D01*
X-3785Y365249D01*
X-5609Y365280D01*
Y367280D01*
X-3081Y367407D01*
Y365154D01*
D02*
G37*
G36*
X15917Y368201D02*
X16015Y366609D01*
X16041Y366525D01*
X16070Y366476D01*
X14678D01*
X14707Y366525D01*
X14733Y366609D01*
X14757Y366730D01*
X14777Y366886D01*
X14808Y367305D01*
X14833Y368571D01*
X15915D01*
X15917Y368201D01*
D02*
G37*
G36*
X-35174Y368230D02*
X-35122Y368147D01*
X-35036Y368034D01*
X-34763Y367718D01*
X-34320Y367260D01*
X-33683Y366719D01*
X-33357Y366492D01*
X-33060Y366321D01*
X-32791Y366206D01*
X-32551Y366148D01*
X-32340Y366147D01*
X-32157Y366203D01*
X-32002Y366315D01*
X-34143Y364173D01*
X-32002Y362032D01*
X-32157Y362144D01*
X-32340Y362199D01*
X-32551Y362198D01*
X-32791Y362140D01*
X-33060Y362026D01*
X-33357Y361855D01*
X-33683Y361628D01*
X-34037Y361344D01*
X-34830Y360606D01*
X-36245Y362020D01*
X-35847Y362431D01*
X-35223Y363168D01*
X-34995Y363494D01*
X-34824Y363791D01*
X-34710Y364059D01*
X-34683Y364173D01*
X-34710Y364287D01*
X-34824Y364556D01*
X-34995Y364853D01*
X-35223Y365179D01*
X-35505Y365530D01*
X-36787Y366690D01*
X-35194Y368283D01*
X-35174Y368230D01*
D02*
G37*
G36*
X-23424Y365460D02*
X-23383Y365400D01*
X-23315Y365347D01*
X-23221Y365301D01*
X-23099Y365262D01*
X-22950Y365230D01*
X-22774Y365205D01*
X-22571Y365188D01*
X-22084Y365173D01*
Y363173D01*
X-22341Y363170D01*
X-22950Y363117D01*
X-23099Y363085D01*
X-23221Y363046D01*
X-23315Y363000D01*
X-23383Y362947D01*
X-23424Y362887D01*
X-23437Y362820D01*
Y365527D01*
X-23424Y365460D01*
D02*
G37*
G36*
X14911Y375692D02*
X16182D01*
X16132Y375680D01*
X16086Y375644D01*
X16046Y375583D01*
X16012Y375498D01*
X15982Y375389D01*
X15958Y375256D01*
X15939Y375098D01*
X15918Y374711D01*
X15915Y374480D01*
X14833Y372091D01*
X14829Y372293D01*
X14818Y372465D01*
X14799Y372609D01*
X14773Y372724D01*
X14739Y372809D01*
X14697Y372865D01*
X14649Y372892D01*
X14592Y372889D01*
X14528Y372858D01*
X14457Y372797D01*
X14067Y373939D01*
X14213Y374095D01*
X14343Y374258D01*
X14458Y374427D01*
X14557Y374602D01*
X14641Y374784D01*
X14710Y374972D01*
X14764Y375166D01*
X14786Y375280D01*
X14766Y375389D01*
X14737Y375498D01*
X14702Y375583D01*
X14662Y375644D01*
X14616Y375680D01*
X14566Y375692D01*
X14829D01*
X14833Y375787D01*
X14911Y375692D01*
D02*
G37*
G36*
X-11749Y393371D02*
Y392378D01*
X-11688Y392071D01*
X-11665Y390940D01*
Y383847D01*
X-11671Y383676D01*
X-11676Y383628D01*
X-11673Y383597D01*
X-11749Y383213D01*
Y376378D01*
X-11588Y375565D01*
X-11378Y375252D01*
X-11646Y374752D01*
X-12310D01*
X-12848Y375290D01*
X-12664Y375565D01*
X-12503Y376378D01*
Y383213D01*
X-12664Y384025D01*
X-13124Y384714D01*
X-13813Y385174D01*
X-14626Y385336D01*
X-15439Y385174D01*
X-15719Y384987D01*
X-16219Y385254D01*
Y388565D01*
X-14788Y389996D01*
X-14738Y390041D01*
X-14655Y390108D01*
X-14568Y390169D01*
X-14490Y390217D01*
X-14419Y390255D01*
X-14356Y390284D01*
X-14301Y390303D01*
X-14254Y390316D01*
X-14168Y390331D01*
X-14092Y390361D01*
X-14081Y390363D01*
X-14006Y390374D01*
X-13996Y390380D01*
X-13813Y390416D01*
X-13124Y390877D01*
X-12664Y391565D01*
X-12503Y392378D01*
Y393371D01*
X-12126Y393595D01*
X-11749Y393371D01*
D02*
G37*
G36*
X45719Y465994D02*
Y286932D01*
X45219Y286883D01*
X45164Y287156D01*
X44612Y287983D01*
X43785Y288535D01*
X42809Y288729D01*
X42240Y288616D01*
X41690Y288976D01*
X41676Y289014D01*
X41657Y289144D01*
X44551Y292038D01*
X44993Y292700D01*
X45149Y293480D01*
Y349480D01*
X45149Y349480D01*
X44993Y350261D01*
X44551Y350922D01*
X37339Y358135D01*
X36677Y358577D01*
X35897Y358732D01*
X35816Y358716D01*
X31635D01*
X31493Y358728D01*
X31285Y358763D01*
X31138Y358802D01*
X31118Y358810D01*
Y359661D01*
X30144D01*
X30106Y359669D01*
X30068Y359661D01*
X30018D01*
X29998Y359663D01*
X29992Y359661D01*
X24354D01*
X17012Y367003D01*
X16946Y368084D01*
Y374480D01*
X16946Y374480D01*
X16946Y374480D01*
Y374827D01*
X16955Y374995D01*
X17336Y375565D01*
X17497Y376378D01*
Y383213D01*
X17424Y383584D01*
X17885Y383830D01*
X22531Y379184D01*
X22694Y379008D01*
X22804Y378871D01*
X22819Y378850D01*
Y374787D01*
X29150D01*
Y381118D01*
X25087D01*
X25078Y381125D01*
X24795Y381364D01*
X16768Y389392D01*
X16258Y389732D01*
X15785Y389826D01*
Y390336D01*
X16187Y390416D01*
X16876Y390877D01*
X17336Y391565D01*
X17497Y392378D01*
Y398601D01*
X17998Y398808D01*
X25728Y391078D01*
X26390Y390636D01*
X27170Y390480D01*
X27790D01*
X27939Y390467D01*
X28153Y390432D01*
X28305Y390391D01*
X28331Y390381D01*
Y389354D01*
X30996D01*
Y392520D01*
X31996D01*
Y389354D01*
X33670D01*
Y381436D01*
X33352Y381118D01*
X29906D01*
Y374787D01*
X36236D01*
Y378234D01*
X37151Y379149D01*
X37593Y379811D01*
X37749Y380591D01*
Y418080D01*
X37593Y418861D01*
X37151Y419522D01*
X32851Y423822D01*
X32190Y424264D01*
X31409Y424419D01*
X-4785D01*
X-5566Y424264D01*
X-6227Y423822D01*
X-6758Y423291D01*
X-7628Y422552D01*
X-8052Y422242D01*
X-8467Y421974D01*
X-8862Y421755D01*
X-9234Y421584D01*
X-9584Y421457D01*
X-9910Y421373D01*
X-10270Y421319D01*
X-10346Y421291D01*
X-10887Y421220D01*
X-11860Y420817D01*
X-12695Y420176D01*
X-13337Y419340D01*
X-13740Y418367D01*
X-13877Y417323D01*
X-13740Y416279D01*
X-13337Y415306D01*
X-12695Y414470D01*
X-11860Y413829D01*
X-10887Y413426D01*
X-9843Y413289D01*
X-8798Y413426D01*
X-7825Y413829D01*
X-6990Y414470D01*
X-6349Y415306D01*
X-5945Y416279D01*
X-5874Y416819D01*
X-5847Y416896D01*
X-5793Y417256D01*
X-5709Y417582D01*
X-5582Y417931D01*
X-5410Y418304D01*
X-5191Y418698D01*
X-4924Y419113D01*
X-4614Y419538D01*
X-3931Y420341D01*
X-3356D01*
X-3110Y419841D01*
X-3494Y419340D01*
X-3897Y418367D01*
X-3983Y417714D01*
X-4004Y417653D01*
X-4048Y417327D01*
X-4128Y417031D01*
X-4259Y416691D01*
X-4447Y416312D01*
X-4693Y415896D01*
X-4998Y415446D01*
X-5358Y414974D01*
X-6210Y413997D01*
X-10704Y409503D01*
X-22105D01*
X-22251Y409516D01*
X-22460Y409551D01*
X-22608Y409590D01*
X-22622Y409596D01*
Y411039D01*
X-28421D01*
X-28559Y411039D01*
Y411039D01*
X-28921D01*
Y411039D01*
X-34858D01*
Y403921D01*
X-34615D01*
X-34407Y403421D01*
X-34907Y402922D01*
X-35348Y402261D01*
X-35504Y401480D01*
Y400950D01*
X-35517Y400801D01*
X-35552Y400587D01*
X-35593Y400435D01*
X-35603Y400410D01*
X-36630D01*
Y394079D01*
X-30299D01*
Y397352D01*
X-30285Y397377D01*
X-30110Y397626D01*
X-29620Y398205D01*
X-27084Y400741D01*
X-16711D01*
X-16443Y400241D01*
X-16588Y400025D01*
X-16749Y399213D01*
Y392515D01*
X-16942Y392287D01*
X-18902Y390327D01*
X-19242Y389817D01*
X-19362Y389216D01*
Y375018D01*
X-19377Y374285D01*
X-19406Y373917D01*
X-19415Y373849D01*
X-19674Y373461D01*
X-19830Y372680D01*
X-19674Y371900D01*
X-19232Y371238D01*
X-17191Y369197D01*
X-17191Y369197D01*
X-16626Y368819D01*
X-16707Y368324D01*
X-16709Y368320D01*
X-18769D01*
X-26301Y375851D01*
X-26962Y376293D01*
X-27743Y376449D01*
X-29758D01*
X-29908Y376462D01*
X-30122Y376497D01*
X-30274Y376538D01*
X-30299Y376548D01*
Y377575D01*
X-36630D01*
Y371244D01*
X-30299D01*
Y372271D01*
X-30274Y372281D01*
X-30122Y372322D01*
X-29907Y372357D01*
X-29758Y372370D01*
X-28587D01*
X-24018Y367801D01*
X-24209Y367339D01*
X-28756D01*
Y361008D01*
X-22425D01*
Y361008D01*
X-21925Y361200D01*
X-21513Y360925D01*
X-21484Y360829D01*
X-21475Y360746D01*
X-21484Y360389D01*
X-22032Y360022D01*
X-30233Y351822D01*
X-30674Y351161D01*
X-30830Y350380D01*
Y330380D01*
X-30674Y329600D01*
X-30233Y328938D01*
X-23032Y321738D01*
X-22371Y321296D01*
X-21590Y321141D01*
X-14970D01*
X-6210Y312382D01*
X-5358Y311404D01*
X-4998Y310932D01*
X-4693Y310483D01*
X-4447Y310066D01*
X-4259Y309687D01*
X-4128Y309347D01*
X-4048Y309051D01*
X-4004Y308725D01*
X-3983Y308664D01*
X-3897Y308011D01*
X-3494Y307038D01*
X-2853Y306202D01*
X-2017Y305561D01*
X-1044Y305158D01*
X0Y305021D01*
X1044Y305158D01*
X2017Y305561D01*
X2853Y306202D01*
X3494Y307038D01*
X3897Y308011D01*
X4035Y309055D01*
X3897Y310099D01*
X3494Y311072D01*
X2853Y311908D01*
X2017Y312549D01*
X1044Y312952D01*
X391Y313038D01*
X330Y313059D01*
X4Y313104D01*
X-292Y313183D01*
X-632Y313314D01*
X-1011Y313502D01*
X-1427Y313748D01*
X-1877Y314054D01*
X-2349Y314413D01*
X-3326Y315265D01*
X-12683Y324622D01*
X-13345Y325064D01*
X-14125Y325219D01*
X-20746D01*
X-26751Y331225D01*
Y332112D01*
X-26251Y332291D01*
X-25773Y331708D01*
X-24721Y330845D01*
X-23522Y330203D01*
X-22220Y329808D01*
X-20866Y329675D01*
X-19512Y329808D01*
X-18211Y330203D01*
X-17011Y330845D01*
X-15960Y331708D01*
X-15097Y332759D01*
X-14455Y333959D01*
X-14061Y335260D01*
X-13927Y336614D01*
X-14061Y337968D01*
X-14455Y339269D01*
X-15097Y340469D01*
X-15960Y341521D01*
X-17011Y342384D01*
X-18211Y343025D01*
X-19512Y343420D01*
X-20866Y343553D01*
X-22220Y343420D01*
X-23522Y343025D01*
X-24721Y342384D01*
X-25773Y341521D01*
X-26251Y340937D01*
X-26751Y341116D01*
Y349536D01*
X-20201Y356086D01*
X-19701Y355879D01*
Y348409D01*
X-11795D01*
Y350342D01*
X-11110Y350478D01*
X-10449Y350920D01*
X-9571Y351798D01*
X-9071Y351591D01*
Y351165D01*
X-2740D01*
Y356541D01*
X772D01*
Y350772D01*
X7102D01*
Y351253D01*
X7602Y351460D01*
X8142Y350920D01*
X8804Y350478D01*
X9584Y350323D01*
X9827D01*
Y348889D01*
X7643D01*
X7494Y348903D01*
X7280Y348938D01*
X7128Y348979D01*
X7102Y348989D01*
Y350016D01*
X772D01*
Y344158D01*
X272Y343951D01*
X-1968Y346191D01*
X-2304Y346551D01*
X-2543Y346850D01*
X-2726Y347112D01*
X-2740Y347137D01*
Y350410D01*
X-9071D01*
Y344079D01*
X-5798D01*
X-5773Y344064D01*
X-5523Y343890D01*
X-4945Y343399D01*
X192Y338263D01*
X-127Y337875D01*
X-362Y338032D01*
X-874Y338374D01*
X-1350Y338468D01*
Y336519D01*
X600D01*
X505Y336994D01*
X163Y337506D01*
X6Y337741D01*
X395Y338060D01*
X5707Y332748D01*
X5542Y332206D01*
X5134Y332124D01*
X4307Y331572D01*
X3754Y330745D01*
X3560Y329769D01*
X3754Y328794D01*
X4307Y327967D01*
X5134Y327415D01*
X5529Y327336D01*
X6896Y326099D01*
X16481Y316514D01*
Y309194D01*
X16468Y309052D01*
X16434Y308844D01*
X16395Y308697D01*
X16387Y308677D01*
X15536D01*
Y307703D01*
X15528Y307665D01*
X15536Y307627D01*
Y307578D01*
X15534Y307557D01*
X15536Y307551D01*
Y302687D01*
X15534Y302683D01*
X15536Y302666D01*
Y302609D01*
X15528Y302571D01*
X15536Y302533D01*
Y301559D01*
X16370D01*
X16379Y301537D01*
X16419Y301383D01*
X16453Y301168D01*
X16465Y301027D01*
Y299129D01*
X16058Y298722D01*
X15616Y298061D01*
X15461Y297280D01*
Y294643D01*
X15455Y294471D01*
X15450Y294423D01*
X15453Y294393D01*
X15377Y294008D01*
Y287173D01*
X15538Y286361D01*
X15584Y286293D01*
X15348Y285852D01*
X14652D01*
X14417Y286293D01*
X14462Y286361D01*
X14624Y287173D01*
Y294008D01*
X14462Y294820D01*
X14072Y295405D01*
Y295441D01*
X13952Y296042D01*
X13611Y296552D01*
X13611Y296552D01*
X9625Y300538D01*
X9118Y301067D01*
X8877Y301348D01*
X8836Y301403D01*
X8745Y301861D01*
X8303Y302522D01*
X7641Y302964D01*
X6861Y303119D01*
X-7255D01*
X-8831Y304696D01*
X-8648Y305220D01*
X-7825Y305561D01*
X-6990Y306202D01*
X-6349Y307038D01*
X-5945Y308011D01*
X-5808Y309055D01*
X-5945Y310099D01*
X-6349Y311072D01*
X-6990Y311908D01*
X-7825Y312549D01*
X-8798Y312952D01*
X-9843Y313090D01*
X-10887Y312952D01*
X-11860Y312549D01*
X-12695Y311908D01*
X-13337Y311072D01*
X-13740Y310099D01*
X-13877Y309055D01*
X-13740Y308011D01*
X-13337Y307038D01*
X-13015Y306620D01*
X-13262Y306119D01*
X-14746D01*
X-25654Y317027D01*
X-26110Y317500D01*
X-26338Y317763D01*
X-26436Y318256D01*
X-26988Y319083D01*
X-27815Y319635D01*
X-28791Y319829D01*
X-29766Y319635D01*
X-30593Y319083D01*
X-31146Y318256D01*
X-31339Y317280D01*
X-31146Y316305D01*
X-30593Y315478D01*
X-29766Y314925D01*
X-29371Y314847D01*
X-28004Y313610D01*
X-23942Y309548D01*
X-24178Y309107D01*
X-24291Y309129D01*
X-25266Y308935D01*
X-26093Y308383D01*
X-26645Y307556D01*
X-26840Y306580D01*
X-26645Y305605D01*
X-26093Y304778D01*
X-25266Y304225D01*
X-24871Y304147D01*
X-23504Y302909D01*
X-20233Y299638D01*
X-20233Y299638D01*
X-19571Y299196D01*
X-19216Y299126D01*
X-18986Y298570D01*
X-18996Y298556D01*
X-19190Y297580D01*
X-19045Y296853D01*
X-19072Y296721D01*
Y295799D01*
X-19074Y295738D01*
X-19086Y295632D01*
X-19104Y295528D01*
X-19125Y295437D01*
X-19149Y295360D01*
X-19173Y295296D01*
X-19198Y295244D01*
X-19222Y295202D01*
X-19271Y295132D01*
X-19304Y295057D01*
X-19462Y294820D01*
X-19623Y294008D01*
Y287173D01*
X-19462Y286361D01*
X-19002Y285672D01*
X-18313Y285211D01*
X-17500Y285050D01*
X-16687Y285211D01*
X-15998Y285672D01*
X-15538Y286361D01*
X-15376Y287173D01*
Y294008D01*
X-15538Y294820D01*
X-15652Y294990D01*
X-15643Y295007D01*
X-15545Y295157D01*
X-15432Y295296D01*
X-15301Y295425D01*
X-15112Y295578D01*
X-15081Y295616D01*
X-14838Y295778D01*
X-14286Y296605D01*
X-14107Y297505D01*
X-13657Y297763D01*
X-12495Y296601D01*
X-12694Y296093D01*
X-13313Y295970D01*
X-14002Y295509D01*
X-14462Y294820D01*
X-14623Y294008D01*
Y287173D01*
X-14462Y286361D01*
X-14304Y286124D01*
X-14271Y286050D01*
X-14222Y285979D01*
X-14198Y285937D01*
X-14173Y285885D01*
X-14149Y285821D01*
X-14125Y285744D01*
X-14104Y285653D01*
X-14089Y285562D01*
X-14072Y285373D01*
Y281818D01*
X-14087Y281085D01*
X-14113Y280751D01*
X-14945Y279920D01*
X-30859D01*
X-31284Y280102D01*
X-31284Y280419D01*
Y287878D01*
X-31276Y287925D01*
X-31262Y287983D01*
X-31238Y288049D01*
X-31203Y288125D01*
X-31155Y288211D01*
X-31093Y288306D01*
X-31015Y288409D01*
X-30972Y288459D01*
X-30412Y289019D01*
X-28277D01*
X-27960Y288632D01*
X-28030Y288280D01*
X-27836Y287305D01*
X-27284Y286478D01*
X-26457Y285925D01*
X-26258Y285886D01*
X-24975Y284752D01*
X-24583Y284360D01*
X-24073Y284019D01*
X-23472Y283899D01*
X-22500D01*
X-21899Y284019D01*
X-21389Y284360D01*
X-21048Y284870D01*
X-20928Y285471D01*
Y285776D01*
X-20538Y286361D01*
X-20377Y287173D01*
Y294008D01*
X-20538Y294820D01*
X-20998Y295509D01*
X-21687Y295970D01*
X-22500Y296131D01*
X-23313Y295970D01*
X-24002Y295509D01*
X-24462Y294820D01*
X-24623Y294008D01*
Y292162D01*
X-31063D01*
X-31067Y292161D01*
X-31284Y292339D01*
Y292339D01*
X-39299D01*
Y294276D01*
X-35933D01*
Y300394D01*
Y306512D01*
X-39299D01*
Y354667D01*
X-33731Y360236D01*
X-33370Y360571D01*
X-33071Y360811D01*
X-32810Y360994D01*
X-32785Y361008D01*
X-29512D01*
Y367339D01*
X-32785D01*
X-32810Y367353D01*
X-33059Y367528D01*
X-33622Y368005D01*
X-34010Y368406D01*
X-34238Y368670D01*
X-34336Y369162D01*
X-34888Y369989D01*
X-35715Y370542D01*
X-36691Y370736D01*
X-37666Y370542D01*
X-38493Y369989D01*
X-39046Y369162D01*
X-39239Y368187D01*
X-39046Y367211D01*
X-38493Y366384D01*
X-37666Y365832D01*
X-37271Y365753D01*
X-36249Y364828D01*
X-36039Y364567D01*
X-35857Y364306D01*
X-35842Y364281D01*
Y364066D01*
X-35857Y364041D01*
X-36031Y363791D01*
X-36522Y363212D01*
X-42781Y356954D01*
X-43222Y356292D01*
X-43378Y355512D01*
Y288928D01*
X-43222Y288148D01*
X-42781Y287486D01*
X-42033Y286738D01*
X-41371Y286296D01*
X-40591Y286141D01*
X-40124D01*
X-39974Y286128D01*
X-39760Y286092D01*
X-39608Y286052D01*
X-39583Y286041D01*
Y280102D01*
X-36165D01*
X-36013Y279602D01*
X-36432Y279322D01*
X-40538Y275217D01*
X-41010Y274761D01*
X-41273Y274533D01*
X-41766Y274435D01*
X-42593Y273883D01*
X-43145Y273056D01*
X-43339Y272080D01*
X-43145Y271105D01*
X-42593Y270278D01*
X-42535Y270239D01*
Y264158D01*
X-36205D01*
Y265284D01*
X-35203D01*
X-35053Y265271D01*
X-34839Y265235D01*
X-34687Y265194D01*
X-34661Y265184D01*
Y264158D01*
X-30607D01*
X-30421Y263670D01*
X-30688Y263402D01*
X-30836D01*
X-30874Y263409D01*
X-30912Y263402D01*
X-30996D01*
Y260736D01*
X-28331D01*
Y260820D01*
X-28323Y260858D01*
X-28331Y260897D01*
Y261131D01*
X-28319Y261148D01*
X-28081Y261429D01*
X-25042Y264468D01*
X-24581Y264222D01*
X-24623Y264008D01*
Y257173D01*
X-24462Y256361D01*
X-24304Y256124D01*
X-24271Y256049D01*
X-24222Y255979D01*
X-24198Y255937D01*
X-24173Y255885D01*
X-24149Y255821D01*
X-24125Y255744D01*
X-24104Y255653D01*
X-24089Y255562D01*
X-24071Y255373D01*
Y253280D01*
X-23952Y252679D01*
X-24361Y252391D01*
X-27851Y255881D01*
X-28513Y256323D01*
X-29293Y256478D01*
X-32372D01*
X-32434Y256571D01*
X-32167Y257071D01*
X-31996D01*
Y259736D01*
X-34661D01*
Y259065D01*
X-35123Y258873D01*
X-35433Y259183D01*
X-35768Y259544D01*
X-36008Y259842D01*
X-36190Y260104D01*
X-36205Y260129D01*
Y263402D01*
X-42535D01*
Y257071D01*
X-39263D01*
X-39238Y257056D01*
X-38988Y256882D01*
X-38409Y256392D01*
X-35015Y252997D01*
X-34353Y252555D01*
X-33573Y252400D01*
X-30138D01*
X-29576Y251838D01*
X-29859Y251414D01*
X-30593Y251718D01*
X-31496Y251837D01*
X-32400Y251718D01*
X-33241Y251369D01*
X-33964Y250815D01*
X-34519Y250092D01*
X-34868Y249250D01*
X-34987Y248346D01*
X-34868Y247443D01*
X-34519Y246601D01*
X-34193Y246176D01*
X-34166Y246118D01*
X-34049Y245959D01*
X-33967Y245805D01*
X-33878Y245577D01*
X-33790Y245278D01*
X-33711Y244912D01*
X-33646Y244500D01*
X-33535Y242971D01*
Y238086D01*
X-33380Y237305D01*
X-32938Y236644D01*
X-28563Y232269D01*
X-28754Y231807D01*
X-34957D01*
Y224886D01*
X-31914D01*
X-31876Y224878D01*
X-31838Y224886D01*
X-31099D01*
X-31063Y224865D01*
X-30815Y224693D01*
X-30237Y224203D01*
X-14437Y208404D01*
X-13776Y207962D01*
X-12995Y207806D01*
X-9301D01*
X2674Y195832D01*
X2428Y195371D01*
X1969Y195462D01*
X993Y195268D01*
X166Y194716D01*
X-387Y193889D01*
X-581Y192913D01*
X-387Y191938D01*
X16Y191336D01*
X30Y191306D01*
X76Y191246D01*
X137Y191155D01*
X157Y191120D01*
X210Y190999D01*
X265Y190838D01*
X316Y190638D01*
X362Y190401D01*
X397Y190137D01*
X439Y189524D01*
Y188976D01*
X488Y188732D01*
X17Y188537D01*
X-166Y188810D01*
X-993Y189363D01*
X-1469Y189457D01*
Y187508D01*
X515D01*
X867Y187857D01*
X920Y187862D01*
X7020Y181762D01*
X7516Y181430D01*
X8102Y181314D01*
X9252D01*
X9864Y181272D01*
X10128Y181236D01*
X10366Y181191D01*
X10566Y181140D01*
X10727Y181085D01*
X10847Y181032D01*
X10882Y181012D01*
X10973Y180951D01*
X11033Y180905D01*
X11064Y180890D01*
X11665Y180488D01*
X12641Y180294D01*
X13616Y180488D01*
X14443Y181041D01*
X14996Y181868D01*
X15190Y182843D01*
X14996Y183819D01*
X14957Y183877D01*
X15149Y184339D01*
X15570Y184423D01*
X15660Y184436D01*
X16070Y184156D01*
Y178403D01*
X14903Y177236D01*
X845D01*
X-527Y178607D01*
X-20541Y198622D01*
X-21203Y199064D01*
X-21983Y199220D01*
X-38393D01*
X-39050Y199231D01*
X-39397Y199256D01*
X-39815Y199535D01*
X-40791Y199729D01*
X-41766Y199535D01*
X-42593Y198983D01*
X-43145Y198156D01*
X-43339Y197180D01*
X-43145Y196205D01*
X-42593Y195378D01*
X-41766Y194825D01*
X-40791Y194631D01*
X-39815Y194825D01*
X-39481Y195049D01*
X-37638Y195141D01*
X-22828D01*
X-3410Y175723D01*
X-1442Y173755D01*
X-780Y173313D01*
X-0Y173158D01*
X15748D01*
X16528Y173313D01*
X17190Y173755D01*
X19551Y176116D01*
X19993Y176778D01*
X20149Y177558D01*
Y208080D01*
X19993Y208861D01*
X19551Y209522D01*
X16349Y212725D01*
Y218956D01*
X16759Y219236D01*
X16849Y219222D01*
X17229Y219147D01*
X18596Y217910D01*
X23270Y213236D01*
Y176580D01*
X23426Y175800D01*
X23867Y175138D01*
X24464Y174542D01*
X25125Y174100D01*
X25905Y173945D01*
X29758D01*
X29908Y173932D01*
X30122Y173897D01*
X30274Y173856D01*
X30299Y173846D01*
Y172819D01*
X30941D01*
X31148Y172319D01*
X30368Y171540D01*
X28952Y170244D01*
X28126Y169597D01*
X27306Y169028D01*
X26502Y168544D01*
X25717Y168144D01*
X24949Y167827D01*
X24199Y167589D01*
X23466Y167430D01*
X22697Y167341D01*
X22563Y167298D01*
X22424Y167270D01*
X22375Y167237D01*
X22318Y167219D01*
X22211Y167128D01*
X22093Y167049D01*
X22060Y167000D01*
X22015Y166962D01*
X21951Y166836D01*
X21872Y166719D01*
X21861Y166660D01*
X21834Y166608D01*
X21822Y166467D01*
X21795Y166328D01*
X21806Y166270D01*
X21801Y166211D01*
X21845Y166077D01*
X21857Y166014D01*
X21383Y165624D01*
X20643Y164723D01*
X20094Y163694D01*
X19755Y162578D01*
X19641Y161417D01*
X19755Y160257D01*
X20094Y159140D01*
X20643Y158112D01*
X21383Y157210D01*
X22285Y156470D01*
X23010Y156082D01*
X22885Y155582D01*
X3706D01*
X3557Y155596D01*
X3343Y155631D01*
X3191Y155672D01*
X3165Y155682D01*
Y156709D01*
X-3165D01*
Y150378D01*
X3165D01*
Y151405D01*
X3191Y151415D01*
X3343Y151455D01*
X3557Y151491D01*
X3706Y151504D01*
X30872D01*
X31653Y151659D01*
X32314Y152101D01*
X39151Y158938D01*
X39593Y159600D01*
X39749Y160380D01*
Y241971D01*
X39593Y242751D01*
X39151Y243413D01*
X38490Y243855D01*
X38079Y243937D01*
X37152Y244751D01*
X24789Y257114D01*
X24710Y257204D01*
X24623Y257312D01*
Y264008D01*
X24462Y264821D01*
X24136Y265309D01*
X24385Y265809D01*
X39371D01*
X40104Y265794D01*
X40473Y265765D01*
X40541Y265756D01*
X40929Y265496D01*
X41709Y265341D01*
X42490Y265496D01*
X43151Y265938D01*
X44251Y267038D01*
X44251Y267038D01*
X44693Y267700D01*
X44849Y268480D01*
Y283783D01*
X44860Y284440D01*
X44885Y284787D01*
X45164Y285205D01*
X45219Y285478D01*
X45719Y285429D01*
X45719Y101011D01*
X45488Y100606D01*
X45219Y100606D01*
X39870D01*
Y96457D01*
Y92307D01*
X45219D01*
X45719Y91903D01*
Y16365D01*
X45488Y15961D01*
X45219Y15961D01*
X39870D01*
Y11811D01*
Y7661D01*
X45219D01*
X45719Y7257D01*
Y541D01*
X-45719D01*
Y361965D01*
X-45219Y362117D01*
X-44991Y361776D01*
X-44164Y361223D01*
X-43688Y361128D01*
Y363578D01*
Y366027D01*
X-44164Y365933D01*
X-44991Y365380D01*
X-45219Y365039D01*
X-45719Y365191D01*
Y465994D01*
X45719Y465994D01*
D02*
G37*
G36*
X-31303Y376220D02*
X-31243Y376049D01*
X-31142Y375900D01*
X-31001Y375769D01*
X-30820Y375659D01*
X-30599Y375570D01*
X-30337Y375500D01*
X-30035Y375449D01*
X-29693Y375419D01*
X-29311Y375410D01*
Y373410D01*
X-29693Y373399D01*
X-30035Y373370D01*
X-30337Y373320D01*
X-30599Y373250D01*
X-30820Y373160D01*
X-31001Y373049D01*
X-31142Y372920D01*
X-31243Y372769D01*
X-31303Y372600D01*
X-31323Y372410D01*
Y376410D01*
X-31303Y376220D01*
D02*
G37*
G36*
X-17248Y375146D02*
X-17143Y373526D01*
X-17115Y373438D01*
X-17083Y373387D01*
X-18498D01*
X-18466Y373438D01*
X-18438Y373526D01*
X-18413Y373649D01*
X-18392Y373808D01*
X-18359Y374235D01*
X-18332Y375521D01*
X-17249D01*
X-17248Y375146D01*
D02*
G37*
G36*
X31762Y404935D02*
X31751Y404902D01*
X31741Y404848D01*
X31732Y404773D01*
X31715Y404417D01*
X31709Y403868D01*
X29709D01*
X29708Y404072D01*
X29656Y404935D01*
X29643Y404945D01*
X31774D01*
X31762Y404935D01*
D02*
G37*
G36*
X-2481Y411708D02*
X-2098Y411521D01*
X-1974Y410900D01*
X-1532Y410238D01*
X2668Y406038D01*
X3329Y405596D01*
X4109Y405441D01*
X4190Y405457D01*
X20921D01*
X21064Y405444D01*
X21271Y405410D01*
X21418Y405371D01*
X21441Y405361D01*
Y403921D01*
X27378D01*
Y403921D01*
X27740D01*
Y403921D01*
X28670D01*
Y403868D01*
X28788Y403272D01*
X28480Y402772D01*
X28331D01*
Y401745D01*
X28305Y401735D01*
X28153Y401694D01*
X27939Y401659D01*
X27813Y401648D01*
X27276Y401657D01*
X26928Y401682D01*
X26511Y401961D01*
X25536Y402155D01*
X24560Y401961D01*
X23733Y401409D01*
X23180Y400582D01*
X23101Y400180D01*
X22558Y400015D01*
X19251Y403322D01*
X18590Y403764D01*
X17809Y403920D01*
X17029Y403764D01*
X16681Y403531D01*
X15450Y403452D01*
X6409D01*
X6409Y403452D01*
X5808Y403332D01*
X5298Y402992D01*
X5298Y402991D01*
X4263Y401956D01*
X3922Y401446D01*
X3802Y400845D01*
Y400609D01*
X3412Y400025D01*
X3251Y399213D01*
Y396295D01*
X5374D01*
X7497D01*
Y399213D01*
X7391Y399745D01*
X7702Y400157D01*
X8046D01*
X8357Y399745D01*
X8251Y399213D01*
Y392378D01*
X8412Y391565D01*
X8570Y391329D01*
X8603Y391254D01*
X8652Y391183D01*
X8676Y391142D01*
X8701Y391090D01*
X8725Y391026D01*
X8749Y390949D01*
X8770Y390858D01*
X8785Y390767D01*
X8803Y390577D01*
Y385004D01*
X8800Y384943D01*
X8788Y384837D01*
X8770Y384733D01*
X8749Y384642D01*
X8725Y384565D01*
X8701Y384501D01*
X8676Y384449D01*
X8652Y384407D01*
X8603Y384336D01*
X8570Y384261D01*
X8412Y384025D01*
X8251Y383213D01*
Y376378D01*
X8412Y375565D01*
X8622Y375252D01*
X8354Y374752D01*
X7394D01*
X7126Y375252D01*
X7336Y375565D01*
X7497Y376378D01*
Y383213D01*
X7336Y384025D01*
X7178Y384261D01*
X7145Y384336D01*
X7096Y384407D01*
X7072Y384449D01*
X7049Y384497D01*
X7102Y384703D01*
X7166Y384891D01*
X7236Y385049D01*
X7309Y385176D01*
X7383Y385279D01*
X7408Y385307D01*
X7515Y385378D01*
X8068Y386205D01*
X8262Y387180D01*
X8068Y388156D01*
X7515Y388983D01*
X6688Y389535D01*
X5713Y389729D01*
X4737Y389535D01*
X3911Y388983D01*
X3358Y388156D01*
X3164Y387180D01*
X3358Y386205D01*
X3599Y385843D01*
X3619Y385785D01*
X3643Y385744D01*
X3651Y385722D01*
X3678Y385626D01*
X3701Y385506D01*
X3759Y384686D01*
X3749Y384642D01*
X3726Y384565D01*
X3701Y384501D01*
X3676Y384449D01*
X3652Y384407D01*
X3603Y384336D01*
X3570Y384261D01*
X3412Y384025D01*
X3251Y383213D01*
Y376378D01*
X3412Y375565D01*
X3622Y375252D01*
X3354Y374752D01*
X2394D01*
X2126Y375252D01*
X2336Y375565D01*
X2497Y376378D01*
Y383213D01*
X2336Y384025D01*
X1876Y384714D01*
X1187Y385174D01*
X532Y385305D01*
X249Y385782D01*
X264Y385805D01*
X458Y386780D01*
X264Y387756D01*
X-288Y388583D01*
X-1115Y389135D01*
X-2090Y389329D01*
X-3066Y389135D01*
X-3893Y388583D01*
X-4445Y387756D01*
X-4506Y387451D01*
X-4530Y387406D01*
X-4557Y387315D01*
X-4584Y387251D01*
X-4636Y387152D01*
X-4714Y387026D01*
X-4803Y386898D01*
X-5451Y386143D01*
X-5737Y385856D01*
X-6078Y385346D01*
X-6197Y384745D01*
Y384609D01*
X-6588Y384025D01*
X-6749Y383213D01*
Y376378D01*
X-6588Y375565D01*
X-6378Y375252D01*
X-6646Y374752D01*
X-7606D01*
X-7874Y375252D01*
X-7664Y375565D01*
X-7502Y376378D01*
Y383213D01*
X-7564Y383520D01*
X-7587Y384651D01*
Y391743D01*
X-7581Y391915D01*
X-7576Y391963D01*
X-7579Y391993D01*
X-7502Y392378D01*
Y399213D01*
X-7664Y400025D01*
X-7808Y400241D01*
X-7541Y400741D01*
X-6711D01*
X-6443Y400241D01*
X-6588Y400025D01*
X-6749Y399213D01*
Y396295D01*
X-4626D01*
X-2503D01*
Y399213D01*
X-2664Y400025D01*
X-2309Y400394D01*
X-2093Y400443D01*
X-2066Y400425D01*
X-1726Y400358D01*
X-1588Y400025D01*
X-1749Y399213D01*
Y396295D01*
X374D01*
X2497D01*
Y399213D01*
X2336Y400025D01*
X1876Y400714D01*
X1187Y401174D01*
X1055Y401492D01*
X1264Y401805D01*
X1458Y402780D01*
X1264Y403756D01*
X712Y404583D01*
X-115Y405135D01*
X-1091Y405329D01*
X-2066Y405135D01*
X-2401Y404912D01*
X-4243Y404819D01*
X-22622D01*
Y405364D01*
X-22608Y405370D01*
X-22460Y405410D01*
X-22251Y405444D01*
X-22105Y405457D01*
X-9923D01*
X-9843Y405441D01*
X-9062Y405596D01*
X-8401Y406038D01*
X-3326Y411113D01*
X-2630Y411720D01*
X-2481Y411708D01*
D02*
G37*
G36*
X32499Y402827D02*
X32547Y402227D01*
X32576Y402081D01*
X32612Y401961D01*
X32653Y401868D01*
X32701Y401801D01*
X32756Y401761D01*
X32817Y401748D01*
X30175D01*
X30236Y401761D01*
X30291Y401801D01*
X30339Y401868D01*
X30381Y401961D01*
X30416Y402081D01*
X30445Y402227D01*
X30467Y402401D01*
X30493Y402827D01*
X30496Y403080D01*
X32496D01*
X32499Y402827D01*
D02*
G37*
G36*
X-30178Y404926D02*
X-30328Y404870D01*
X-30459Y404775D01*
X-30574Y404643D01*
X-30670Y404473D01*
X-30749Y404265D01*
X-30811Y404019D01*
X-30855Y403736D01*
X-30881Y403414D01*
X-30890Y403055D01*
X-32890D01*
X-32899Y403414D01*
X-32925Y403736D01*
X-32969Y404019D01*
X-33030Y404265D01*
X-33109Y404473D01*
X-33206Y404643D01*
X-33320Y404775D01*
X-33452Y404870D01*
X-33601Y404926D01*
X-33768Y404945D01*
X-30012D01*
X-30178Y404926D01*
D02*
G37*
G36*
X-23626Y409262D02*
X-23567Y409094D01*
X-23468Y408947D01*
X-23329Y408819D01*
X-23151Y408711D01*
X-22933Y408622D01*
X-22676Y408553D01*
X-22378Y408504D01*
X-22042Y408474D01*
X-21666Y408465D01*
Y406496D01*
X-22042Y406486D01*
X-22378Y406457D01*
X-22676Y406407D01*
X-22933Y406339D01*
X-23151Y406250D01*
X-23329Y406142D01*
X-23468Y406014D01*
X-23567Y405866D01*
X-23626Y405699D01*
X-23646Y405512D01*
Y409449D01*
X-23626Y409262D01*
D02*
G37*
G36*
X33670Y417236D02*
Y411039D01*
X27740D01*
Y411039D01*
X27378D01*
Y411039D01*
X21441D01*
Y409600D01*
X21417Y409590D01*
X21271Y409551D01*
X21064Y409516D01*
X20921Y409503D01*
X4970D01*
X1957Y412517D01*
X1985Y412990D01*
X2025Y413307D01*
X2073Y413575D01*
X2125Y413779D01*
X2174Y413913D01*
X2199Y413962D01*
X2227Y413986D01*
X2236Y413997D01*
X2853Y414470D01*
X3494Y415306D01*
X3897Y416279D01*
X4035Y417323D01*
X3897Y418367D01*
X3494Y419340D01*
X3110Y419841D01*
X3356Y420341D01*
X6486D01*
X6733Y419841D01*
X6348Y419340D01*
X5945Y418367D01*
X5808Y417323D01*
X5945Y416279D01*
X6348Y415306D01*
X6990Y414470D01*
X7825Y413829D01*
X8798Y413426D01*
X9842Y413289D01*
X10887Y413426D01*
X11860Y413829D01*
X12695Y414470D01*
X13336Y415306D01*
X13739Y416279D01*
X13877Y417323D01*
X13739Y418367D01*
X13336Y419340D01*
X12952Y419841D01*
X13199Y420341D01*
X30565D01*
X33670Y417236D01*
D02*
G37*
G36*
X-4078Y421673D02*
X-4572Y421161D01*
X-5415Y420170D01*
X-5765Y419691D01*
X-6067Y419222D01*
X-6320Y418765D01*
X-6526Y418319D01*
X-6684Y417884D01*
X-6794Y417460D01*
X-6855Y417046D01*
X-10119Y420310D01*
X-9706Y420372D01*
X-9282Y420482D01*
X-8847Y420640D01*
X-8400Y420845D01*
X-7943Y421099D01*
X-7475Y421401D01*
X-6996Y421750D01*
X-6005Y422594D01*
X-5492Y423087D01*
X-4078Y421673D01*
D02*
G37*
G36*
X22453Y405512D02*
X22433Y405699D01*
X22374Y405866D01*
X22276Y406014D01*
X22138Y406142D01*
X21961Y406250D01*
X21744Y406339D01*
X21488Y406407D01*
X21193Y406457D01*
X20858Y406486D01*
X20484Y406496D01*
Y408465D01*
X20858Y408474D01*
X21193Y408504D01*
X21488Y408553D01*
X21744Y408622D01*
X21961Y408711D01*
X22138Y408819D01*
X22276Y408947D01*
X22374Y409094D01*
X22433Y409262D01*
X22453Y409449D01*
Y405512D01*
D02*
G37*
G36*
X-306Y414827D02*
X1576Y414771D01*
X1450Y414666D01*
X1336Y414515D01*
X1236Y414320D01*
X1149Y414079D01*
X1076Y413792D01*
X1016Y413460D01*
X970Y413083D01*
X916Y412193D01*
X910Y411680D01*
X-1091D01*
X-1097Y412206D01*
X-1192Y413507D01*
X-1250Y413849D01*
X-1260Y413891D01*
X-1497Y413774D01*
X-1974Y413492D01*
X-2473Y413152D01*
X-2994Y412756D01*
X-4101Y411790D01*
X-4687Y411222D01*
X-6101Y412636D01*
X-5533Y413222D01*
X-4567Y414329D01*
X-4171Y414850D01*
X-3831Y415349D01*
X-3549Y415826D01*
X-3325Y416281D01*
X-3157Y416714D01*
X-3047Y417126D01*
X-2994Y417516D01*
X-306Y414827D01*
D02*
G37*
G36*
X-32455Y401015D02*
X-32425Y400673D01*
X-32375Y400371D01*
X-32305Y400110D01*
X-32245Y399962D01*
X-32105Y400074D01*
X-31311Y400812D01*
X-29897Y399397D01*
X-30294Y398986D01*
X-30919Y398249D01*
X-31146Y397924D01*
X-31317Y397627D01*
X-31431Y397358D01*
X-31489Y397118D01*
X-31490Y396906D01*
X-31435Y396724D01*
X-31323Y396569D01*
X-34140Y399385D01*
X-35465D01*
X-35274Y399406D01*
X-35105Y399466D01*
X-34955Y399567D01*
X-34824Y399707D01*
X-34715Y399888D01*
X-34624Y400110D01*
X-34555Y400371D01*
X-34505Y400673D01*
X-34475Y401015D01*
X-34465Y401398D01*
X-32465D01*
X-32455Y401015D01*
D02*
G37*
G36*
X-10694Y393795D02*
X-10714Y393985D01*
X-10774Y394155D01*
X-10875Y394305D01*
X-11016Y394435D01*
X-11197Y394545D01*
X-11418Y394635D01*
X-11680Y394705D01*
X-11981Y394755D01*
X-12126Y394768D01*
X-12270Y394755D01*
X-12572Y394705D01*
X-12834Y394635D01*
X-13055Y394545D01*
X-13236Y394435D01*
X-13377Y394305D01*
X-13478Y394155D01*
X-13538Y393985D01*
X-13558Y393795D01*
Y397795D01*
X-13538Y397605D01*
X-13478Y397435D01*
X-13377Y397285D01*
X-13236Y397155D01*
X-13055Y397045D01*
X-12834Y396955D01*
X-12572Y396885D01*
X-12270Y396835D01*
X-12126Y396823D01*
X-11981Y396835D01*
X-11680Y396885D01*
X-11418Y396955D01*
X-11197Y397045D01*
X-11016Y397155D01*
X-10875Y397285D01*
X-10774Y397435D01*
X-10714Y397605D01*
X-10694Y397795D01*
Y393795D01*
D02*
G37*
G36*
X-13950Y395037D02*
X-13978Y394950D01*
X-14003Y394827D01*
X-14025Y394667D01*
X-14058Y394240D01*
X-14085Y392954D01*
X-15167D01*
X-15169Y393330D01*
X-15274Y394950D01*
X-15302Y395037D01*
X-15334Y395089D01*
X-13918D01*
X-13950Y395037D01*
D02*
G37*
G36*
X11050D02*
X11022Y394950D01*
X10997Y394827D01*
X10975Y394667D01*
X10942Y394240D01*
X10915Y392954D01*
X9833D01*
X9831Y393330D01*
X9726Y394950D01*
X9698Y395037D01*
X9667Y395089D01*
X11082D01*
X11050Y395037D01*
D02*
G37*
G36*
X14306Y393795D02*
X14286Y393985D01*
X14226Y394155D01*
X14125Y394305D01*
X13984Y394435D01*
X13803Y394545D01*
X13582Y394635D01*
X13320Y394705D01*
X13018Y394755D01*
X12874Y394768D01*
X12730Y394755D01*
X12428Y394705D01*
X12166Y394635D01*
X11945Y394545D01*
X11764Y394435D01*
X11623Y394305D01*
X11522Y394155D01*
X11462Y393985D01*
X11442Y393795D01*
Y397795D01*
X11462Y397605D01*
X11522Y397435D01*
X11623Y397285D01*
X11764Y397155D01*
X11945Y397045D01*
X12166Y396955D01*
X12428Y396885D01*
X12730Y396835D01*
X12874Y396823D01*
X13018Y396835D01*
X13320Y396885D01*
X13582Y396955D01*
X13803Y397045D01*
X13984Y397155D01*
X14125Y397285D01*
X14226Y397435D01*
X14286Y397605D01*
X14306Y397795D01*
Y393795D01*
D02*
G37*
G36*
X17103Y401173D02*
X17052Y401204D01*
X16964Y401233D01*
X16841Y401258D01*
X16681Y401279D01*
X16255Y401312D01*
X14969Y401339D01*
Y402422D01*
X15344Y402423D01*
X16964Y402528D01*
X17052Y402556D01*
X17103Y402588D01*
Y401173D01*
D02*
G37*
G36*
X-2081Y401654D02*
X-2132Y401678D01*
X-2228Y401699D01*
X-2369Y401718D01*
X-2785Y401749D01*
X-4609Y401780D01*
Y403780D01*
X-2081Y403907D01*
Y401654D01*
D02*
G37*
G36*
X5919Y400129D02*
X4829D01*
X4830Y400136D01*
X4830Y400157D01*
X4833Y400845D01*
X5915D01*
X5919Y400129D01*
D02*
G37*
G36*
X29355Y397606D02*
X29335Y397796D01*
X29274Y397966D01*
X29174Y398116D01*
X29033Y398246D01*
X28852Y398356D01*
X28630Y398446D01*
X28369Y398516D01*
X28110Y398559D01*
X26526Y398480D01*
Y400733D01*
X26577Y400709D01*
X26673Y400687D01*
X26814Y400668D01*
X27230Y400638D01*
X27849Y400627D01*
X28067Y400646D01*
X28369Y400696D01*
X28630Y400766D01*
X28852Y400856D01*
X29033Y400966D01*
X29174Y401096D01*
X29274Y401246D01*
X29335Y401416D01*
X29355Y401606D01*
Y397606D01*
D02*
G37*
G36*
X-3876Y347765D02*
X-3932Y347582D01*
X-3930Y347370D01*
X-3872Y347130D01*
X-3758Y346862D01*
X-3587Y346564D01*
X-3360Y346239D01*
X-3076Y345885D01*
X-2338Y345091D01*
X-3752Y343676D01*
X-4163Y344074D01*
X-4900Y344698D01*
X-5226Y344926D01*
X-5523Y345097D01*
X-5792Y345211D01*
X-6032Y345269D01*
X-6243Y345270D01*
X-6426Y345215D01*
X-6581Y345103D01*
X-3764Y347919D01*
X-3876Y347765D01*
D02*
G37*
G36*
X-8047Y352468D02*
X-8066Y352632D01*
X-8122Y352778D01*
X-8216Y352908D01*
X-8347Y353020D01*
X-8516Y353115D01*
X-8722Y353193D01*
X-8966Y353253D01*
X-9247Y353296D01*
X-9566Y353322D01*
X-9922Y353331D01*
Y355331D01*
X-9566Y355339D01*
X-9247Y355365D01*
X-8966Y355408D01*
X-8722Y355469D01*
X-8516Y355546D01*
X-8347Y355641D01*
X-8216Y355754D01*
X-8122Y355883D01*
X-8066Y356030D01*
X-8047Y356194D01*
Y352468D01*
D02*
G37*
G36*
X41070Y348636D02*
Y332757D01*
X40608Y332565D01*
X26210Y346963D01*
X26402Y347425D01*
X31118D01*
Y353362D01*
X31118Y353362D01*
Y353724D01*
X31118D01*
X31118Y353862D01*
Y354576D01*
X31138Y354584D01*
X31285Y354623D01*
X31493Y354657D01*
X31635Y354670D01*
X35036D01*
X41070Y348636D01*
D02*
G37*
G36*
X6098Y355681D02*
X6156Y355525D01*
X6252Y355387D01*
X6387Y355268D01*
X6561Y355167D01*
X6774Y355084D01*
X7025Y355020D01*
X7314Y354974D01*
X7643Y354946D01*
X8009Y354937D01*
Y352937D01*
X7643Y352928D01*
X7314Y352900D01*
X7025Y352854D01*
X6774Y352790D01*
X6561Y352707D01*
X6387Y352606D01*
X6252Y352487D01*
X6156Y352349D01*
X6098Y352192D01*
X6078Y352018D01*
Y355856D01*
X6098Y355681D01*
D02*
G37*
G36*
X6098Y348660D02*
X6159Y348490D01*
X6260Y348340D01*
X6400Y348210D01*
X6581Y348100D01*
X6803Y348010D01*
X7064Y347940D01*
X7366Y347890D01*
X7708Y347860D01*
X8090Y347850D01*
Y345850D01*
X7708Y345840D01*
X7366Y345810D01*
X7064Y345760D01*
X6803Y345690D01*
X6581Y345600D01*
X6400Y345490D01*
X6260Y345360D01*
X6159Y345210D01*
X6098Y345040D01*
X6078Y344850D01*
Y348850D01*
X6098Y348660D01*
D02*
G37*
G36*
X7626Y329813D02*
X7678Y329730D01*
X7764Y329616D01*
X8037Y329301D01*
X9304Y327989D01*
X7890Y326575D01*
X6013Y328273D01*
X7606Y329866D01*
X7626Y329813D01*
D02*
G37*
G36*
X10851Y351108D02*
X10838Y351156D01*
X10800Y351199D01*
X10737Y351237D01*
X10648Y351271D01*
X10534Y351298D01*
X10395Y351321D01*
X10230Y351339D01*
X9825Y351360D01*
X9584Y351362D01*
Y353362D01*
X9825Y353365D01*
X10395Y353403D01*
X10534Y353426D01*
X10648Y353454D01*
X10737Y353487D01*
X10800Y353525D01*
X10838Y353568D01*
X10851Y353617D01*
Y351108D01*
D02*
G37*
G36*
X30126Y358465D02*
X30185Y358299D01*
X30283Y358154D01*
X30421Y358027D01*
X30598Y357920D01*
X30815Y357833D01*
X31071Y357765D01*
X31366Y357716D01*
X31701Y357687D01*
X32075Y357677D01*
Y355709D01*
X31701Y355699D01*
X31366Y355670D01*
X31071Y355621D01*
X30815Y355553D01*
X30598Y355466D01*
X30421Y355359D01*
X30283Y355232D01*
X30185Y355086D01*
X30126Y354921D01*
X30106Y354736D01*
Y358649D01*
X30126Y358465D01*
D02*
G37*
G36*
X13803Y368039D02*
X13789Y367352D01*
X13762Y366989D01*
X13754Y366928D01*
X13505Y366554D01*
X13351Y365780D01*
X13505Y365006D01*
X13943Y364350D01*
X17277Y361016D01*
X17030Y360556D01*
X16710Y360619D01*
X4675D01*
X4524Y361120D01*
X4851Y361338D01*
X5951Y362438D01*
X5951Y362438D01*
X6393Y363100D01*
X6549Y363880D01*
Y369939D01*
X6393Y370719D01*
X6133Y371109D01*
X6400Y371609D01*
X13803D01*
Y368039D01*
D02*
G37*
G36*
X24150Y343256D02*
X23849Y342850D01*
X23521Y343025D01*
X22220Y343420D01*
X20866Y343553D01*
X19512Y343420D01*
X18211Y343025D01*
X17011Y342384D01*
X15959Y341521D01*
X15097Y340469D01*
X14455Y339269D01*
X14061Y337968D01*
X13927Y336614D01*
X14061Y335260D01*
X14455Y333959D01*
X15097Y332759D01*
X15959Y331708D01*
X17011Y330845D01*
X18211Y330203D01*
X19512Y329808D01*
X20866Y329675D01*
X22220Y329808D01*
X23521Y330203D01*
X24721Y330845D01*
X25773Y331708D01*
X26636Y332759D01*
X27277Y333959D01*
X27672Y335260D01*
X27805Y336614D01*
X27672Y337968D01*
X27277Y339269D01*
X27102Y339597D01*
X27508Y339898D01*
X38070Y329336D01*
Y323735D01*
X37608Y323543D01*
X32938Y328214D01*
X32276Y328656D01*
X31496Y328811D01*
X15412D01*
X1037Y343185D01*
X1245Y343685D01*
X7102D01*
Y344711D01*
X7128Y344722D01*
X7280Y344763D01*
X7494Y344798D01*
X7643Y344811D01*
X22595D01*
X24150Y343256D01*
D02*
G37*
G36*
X-27274Y317323D02*
X-27222Y317240D01*
X-27136Y317127D01*
X-26863Y316812D01*
X-25596Y315500D01*
X-27010Y314086D01*
X-28887Y315783D01*
X-27294Y317376D01*
X-27274Y317323D01*
D02*
G37*
%LPC*%
G36*
X-13000Y266032D02*
X-13313Y265970D01*
X-14002Y265509D01*
X-14462Y264821D01*
X-14623Y264008D01*
Y261090D01*
X-13000D01*
Y266032D01*
D02*
G37*
G36*
X-12000D02*
Y261090D01*
X-10377D01*
Y264008D01*
X-10538Y264821D01*
X-10998Y265509D01*
X-11687Y265970D01*
X-12000Y266032D01*
D02*
G37*
G36*
X-13000Y260090D02*
X-14623D01*
Y257173D01*
X-14462Y256361D01*
X-14002Y255672D01*
X-13313Y255211D01*
X-13000Y255149D01*
Y260090D01*
D02*
G37*
G36*
X-15376D02*
X-17000D01*
Y255149D01*
X-16687Y255211D01*
X-15998Y255672D01*
X-15538Y256361D01*
X-15376Y257173D01*
Y260090D01*
D02*
G37*
G36*
X-18000D02*
X-19623D01*
Y257173D01*
X-19462Y256361D01*
X-19002Y255672D01*
X-18313Y255211D01*
X-18000Y255149D01*
Y260090D01*
D02*
G37*
G36*
X-10377D02*
X-12000D01*
Y255149D01*
X-11687Y255211D01*
X-10998Y255672D01*
X-10538Y256361D01*
X-10377Y257173D01*
Y260090D01*
D02*
G37*
G36*
X11430Y239062D02*
X9480D01*
X9575Y238587D01*
X10127Y237760D01*
X10954Y237207D01*
X11430Y237113D01*
Y239062D01*
D02*
G37*
G36*
Y242012D02*
X10954Y241917D01*
X10127Y241365D01*
X9575Y240538D01*
X9480Y240062D01*
X11430D01*
Y242012D01*
D02*
G37*
G36*
X29147Y319771D02*
X27197D01*
X27292Y319295D01*
X27844Y318468D01*
X28671Y317916D01*
X29147Y317821D01*
Y319771D01*
D02*
G37*
G36*
X32096D02*
X30147D01*
Y317821D01*
X30622Y317916D01*
X31449Y318468D01*
X32001Y319295D01*
X32096Y319771D01*
D02*
G37*
G36*
X29147Y322720D02*
X28671Y322626D01*
X27844Y322073D01*
X27292Y321246D01*
X27197Y320771D01*
X29147D01*
Y322720D01*
D02*
G37*
G36*
X30147D02*
Y320771D01*
X32096D01*
X32001Y321246D01*
X31449Y322073D01*
X30622Y322626D01*
X30147Y322720D01*
D02*
G37*
G36*
X5000Y222538D02*
X3956Y222401D01*
X2983Y221998D01*
X2147Y221357D01*
X1506Y220521D01*
X1103Y219548D01*
X965Y218504D01*
X1103Y217460D01*
X1506Y216487D01*
X2147Y215651D01*
X2983Y215010D01*
X3956Y214607D01*
X5000Y214469D01*
X6044Y214607D01*
X7017Y215010D01*
X7853Y215651D01*
X8494Y216487D01*
X8897Y217460D01*
X9035Y218504D01*
X8897Y219548D01*
X8494Y220521D01*
X7853Y221357D01*
X7017Y221998D01*
X6044Y222401D01*
X5000Y222538D01*
D02*
G37*
G36*
X7768Y86114D02*
X5102D01*
Y83449D01*
X7768D01*
Y86114D01*
D02*
G37*
G36*
X11433Y89780D02*
X8768D01*
Y87114D01*
X11433D01*
Y89780D01*
D02*
G37*
G36*
X27059Y67071D02*
X26527Y67001D01*
X25566Y66602D01*
X24740Y65969D01*
X24106Y65143D01*
X23708Y64182D01*
X23638Y63650D01*
X27059D01*
Y67071D01*
D02*
G37*
G36*
X7768Y89780D02*
X5102D01*
Y87114D01*
X7768D01*
Y89780D01*
D02*
G37*
G36*
X11433Y86114D02*
X8768D01*
Y83449D01*
X11433D01*
Y86114D01*
D02*
G37*
G36*
X38059Y67071D02*
Y63650D01*
X41480D01*
X41410Y64182D01*
X41012Y65143D01*
X40378Y65969D01*
X39553Y66602D01*
X38591Y67001D01*
X38059Y67071D01*
D02*
G37*
G36*
X37559Y77137D02*
X36527Y77001D01*
X35566Y76602D01*
X35051Y76208D01*
X34993Y76179D01*
X34740Y75987D01*
X34484Y75841D01*
X34160Y75698D01*
X33768Y75567D01*
X33309Y75450D01*
X32807Y75356D01*
X32502Y75329D01*
X32334Y75352D01*
X31809Y75450D01*
X31350Y75567D01*
X30958Y75698D01*
X30634Y75841D01*
X30378Y75987D01*
X30125Y76179D01*
X30067Y76208D01*
X29553Y76602D01*
X28591Y77001D01*
X27559Y77137D01*
X26527Y77001D01*
X25566Y76602D01*
X24740Y75969D01*
X24106Y75143D01*
X23708Y74182D01*
X23572Y73150D01*
X23708Y72118D01*
X24106Y71156D01*
X24740Y70331D01*
X25566Y69697D01*
X26527Y69299D01*
X27559Y69163D01*
X28591Y69299D01*
X29553Y69697D01*
X30067Y70092D01*
X30125Y70120D01*
X30378Y70312D01*
X30634Y70459D01*
X30958Y70601D01*
X31350Y70733D01*
X31809Y70849D01*
X32311Y70944D01*
X32616Y70970D01*
X32784Y70948D01*
X33309Y70849D01*
X33768Y70733D01*
X34160Y70601D01*
X34484Y70459D01*
X34740Y70312D01*
X34993Y70120D01*
X35051Y70092D01*
X35566Y69697D01*
X36527Y69299D01*
X37559Y69163D01*
X38591Y69299D01*
X39553Y69697D01*
X40378Y70331D01*
X41012Y71156D01*
X41410Y72118D01*
X41546Y73150D01*
X41410Y74182D01*
X41012Y75143D01*
X40378Y75969D01*
X39553Y76602D01*
X38591Y77001D01*
X37559Y77137D01*
D02*
G37*
G36*
X3165Y149622D02*
X-3165D01*
Y143291D01*
X-2142D01*
X-2128Y143256D01*
X-2087Y143106D01*
X-2052Y142894D01*
X-2039Y142747D01*
Y112065D01*
X-22264Y91840D01*
X-23241Y90988D01*
X-23713Y90628D01*
X-24163Y90323D01*
X-24579Y90077D01*
X-24959Y89889D01*
X-25299Y89758D01*
X-25595Y89678D01*
X-25920Y89634D01*
X-25982Y89613D01*
X-26635Y89527D01*
X-27608Y89124D01*
X-28443Y88483D01*
X-29085Y87647D01*
X-29488Y86674D01*
X-29625Y85630D01*
X-29488Y84586D01*
X-29085Y83613D01*
X-28443Y82777D01*
X-27608Y82136D01*
X-26635Y81733D01*
X-25591Y81595D01*
X-24546Y81733D01*
X-23573Y82136D01*
X-22738Y82777D01*
X-22096Y83613D01*
X-21693Y84586D01*
X-21608Y85239D01*
X-21586Y85300D01*
X-21542Y85626D01*
X-21463Y85922D01*
X-21331Y86262D01*
X-21144Y86641D01*
X-20898Y87057D01*
X-20592Y87507D01*
X-20232Y87979D01*
X-19380Y88956D01*
X1442Y109779D01*
X1884Y110440D01*
X2039Y111221D01*
Y142747D01*
X2052Y142894D01*
X2088Y143106D01*
X2128Y143256D01*
X2142Y143291D01*
X3165D01*
Y149622D01*
D02*
G37*
G36*
X37059Y67071D02*
X36527Y67001D01*
X35566Y66602D01*
X34740Y65969D01*
X34106Y65143D01*
X33708Y64182D01*
X33638Y63650D01*
X37059D01*
Y67071D01*
D02*
G37*
G36*
X28059D02*
Y63650D01*
X31480D01*
X31410Y64182D01*
X31012Y65143D01*
X30378Y65969D01*
X29553Y66602D01*
X28591Y67001D01*
X28059Y67071D01*
D02*
G37*
G36*
X-25591Y167052D02*
X-26751Y166938D01*
X-27867Y166599D01*
X-28896Y166050D01*
X-29798Y165310D01*
X-30538Y164408D01*
X-31087Y163379D01*
X-31426Y162263D01*
X-31541Y161102D01*
X-31426Y159941D01*
X-31087Y158825D01*
X-30538Y157797D01*
X-29798Y156895D01*
X-28896Y156155D01*
X-27867Y155605D01*
X-26751Y155267D01*
X-25591Y155152D01*
X-24430Y155267D01*
X-23314Y155605D01*
X-22285Y156155D01*
X-21383Y156895D01*
X-20643Y157797D01*
X-20094Y158825D01*
X-19755Y159941D01*
X-19641Y161102D01*
X-19755Y162263D01*
X-20094Y163379D01*
X-20643Y164408D01*
X-21383Y165310D01*
X-22285Y166050D01*
X-23314Y166599D01*
X-24430Y166938D01*
X-25591Y167052D01*
D02*
G37*
G36*
X20866Y451821D02*
X19512Y451688D01*
X18211Y451293D01*
X17011Y450652D01*
X15959Y449789D01*
X15097Y448737D01*
X14455Y447538D01*
X14061Y446236D01*
X13927Y444882D01*
X14061Y443528D01*
X14455Y442227D01*
X15097Y441027D01*
X15959Y439976D01*
X17011Y439113D01*
X18211Y438471D01*
X19512Y438076D01*
X20866Y437943D01*
X22220Y438076D01*
X23521Y438471D01*
X24721Y439113D01*
X25773Y439976D01*
X26636Y441027D01*
X27277Y442227D01*
X27672Y443528D01*
X27805Y444882D01*
X27672Y446236D01*
X27277Y447538D01*
X26636Y448737D01*
X25773Y449789D01*
X24721Y450652D01*
X23521Y451293D01*
X22220Y451688D01*
X20866Y451821D01*
D02*
G37*
G36*
X25591Y148986D02*
X24237Y148853D01*
X22935Y148458D01*
X21735Y147817D01*
X20684Y146954D01*
X19821Y145902D01*
X19180Y144702D01*
X18785Y143401D01*
X18652Y142047D01*
X18785Y140693D01*
X19180Y139392D01*
X19821Y138192D01*
X20684Y137141D01*
X21735Y136278D01*
X22935Y135636D01*
X24237Y135241D01*
X25163Y135150D01*
Y134648D01*
X24430Y134576D01*
X23314Y134237D01*
X22285Y133687D01*
X21383Y132947D01*
X20643Y132046D01*
X20094Y131017D01*
X19755Y129901D01*
X19641Y128740D01*
X19755Y127579D01*
X20094Y126463D01*
X20643Y125435D01*
X21383Y124533D01*
X22285Y123793D01*
X23314Y123243D01*
X24430Y122905D01*
X24588Y122889D01*
Y122387D01*
X24430Y122371D01*
X23314Y122032D01*
X22285Y121483D01*
X21383Y120742D01*
X20643Y119841D01*
X20094Y118812D01*
X19755Y117696D01*
X19690Y117035D01*
X31491D01*
X31426Y117696D01*
X31087Y118812D01*
X30538Y119841D01*
X29798Y120742D01*
X28896Y121483D01*
X27867Y122032D01*
X26751Y122371D01*
X26593Y122387D01*
Y122889D01*
X26751Y122905D01*
X27867Y123243D01*
X28896Y123793D01*
X29798Y124533D01*
X30538Y125435D01*
X31087Y126463D01*
X31426Y127579D01*
X31541Y128740D01*
X31426Y129901D01*
X31087Y131017D01*
X30538Y132046D01*
X29798Y132947D01*
X28896Y133687D01*
X27867Y134237D01*
X26751Y134576D01*
X26018Y134648D01*
Y135150D01*
X26944Y135241D01*
X28246Y135636D01*
X29446Y136278D01*
X30497Y137141D01*
X31360Y138192D01*
X32001Y139392D01*
X32396Y140693D01*
X32530Y142047D01*
X32396Y143401D01*
X32001Y144702D01*
X31360Y145902D01*
X30497Y146954D01*
X29446Y147817D01*
X28246Y148458D01*
X26944Y148853D01*
X25591Y148986D01*
D02*
G37*
G36*
X-20866Y451821D02*
X-22220Y451688D01*
X-23522Y451293D01*
X-24721Y450652D01*
X-25773Y449789D01*
X-26636Y448737D01*
X-27277Y447538D01*
X-27672Y446236D01*
X-27805Y444882D01*
X-27672Y443528D01*
X-27277Y442227D01*
X-26636Y441027D01*
X-25773Y439976D01*
X-24721Y439113D01*
X-23522Y438471D01*
X-22220Y438076D01*
X-20866Y437943D01*
X-19512Y438076D01*
X-18211Y438471D01*
X-17011Y439113D01*
X-15960Y439976D01*
X-15097Y441027D01*
X-14455Y442227D01*
X-14061Y443528D01*
X-13927Y444882D01*
X-14061Y446236D01*
X-14455Y447538D01*
X-15097Y448737D01*
X-15960Y449789D01*
X-17011Y450652D01*
X-18211Y451293D01*
X-19512Y451688D01*
X-20866Y451821D01*
D02*
G37*
G36*
X-1488Y168791D02*
X-3437D01*
Y166842D01*
X-2962Y166936D01*
X-2135Y167489D01*
X-1582Y168316D01*
X-1488Y168791D01*
D02*
G37*
G36*
X-4437D02*
X-6386D01*
X-6292Y168316D01*
X-5739Y167489D01*
X-4913Y166936D01*
X-4437Y166842D01*
Y168791D01*
D02*
G37*
G36*
X-15148Y315834D02*
X-17098D01*
Y313884D01*
X-16622Y313979D01*
X-15795Y314531D01*
X-15243Y315358D01*
X-15148Y315834D01*
D02*
G37*
G36*
X-25591Y148671D02*
X-26944Y148538D01*
X-28246Y148143D01*
X-29446Y147502D01*
X-30497Y146639D01*
X-31360Y145587D01*
X-32001Y144388D01*
X-32396Y143086D01*
X-32530Y141732D01*
X-32396Y140379D01*
X-32001Y139077D01*
X-31360Y137877D01*
X-30497Y136826D01*
X-29446Y135963D01*
X-28246Y135322D01*
X-26944Y134927D01*
X-26017Y134835D01*
Y134333D01*
X-26751Y134261D01*
X-27867Y133922D01*
X-28896Y133372D01*
X-29798Y132632D01*
X-30538Y131731D01*
X-31087Y130702D01*
X-31426Y129586D01*
X-31541Y128425D01*
X-31426Y127264D01*
X-31087Y126148D01*
X-30538Y125119D01*
X-29798Y124218D01*
X-28896Y123478D01*
X-27867Y122928D01*
X-26751Y122590D01*
X-26594Y122574D01*
Y122072D01*
X-26751Y122056D01*
X-27867Y121718D01*
X-28896Y121168D01*
X-29798Y120428D01*
X-30538Y119526D01*
X-31087Y118497D01*
X-31426Y117381D01*
X-31491Y116720D01*
X-19690D01*
X-19755Y117381D01*
X-20094Y118497D01*
X-20643Y119526D01*
X-21383Y120428D01*
X-22285Y121168D01*
X-23314Y121718D01*
X-24430Y122056D01*
X-24587Y122072D01*
Y122574D01*
X-24430Y122590D01*
X-23314Y122928D01*
X-22285Y123478D01*
X-21383Y124218D01*
X-20643Y125119D01*
X-20094Y126148D01*
X-19755Y127264D01*
X-19641Y128425D01*
X-19755Y129586D01*
X-20094Y130702D01*
X-20643Y131731D01*
X-21383Y132632D01*
X-22285Y133372D01*
X-23314Y133922D01*
X-24430Y134261D01*
X-25164Y134333D01*
Y134835D01*
X-24237Y134927D01*
X-22935Y135322D01*
X-21735Y135963D01*
X-20684Y136826D01*
X-19821Y137877D01*
X-19180Y139077D01*
X-18785Y140379D01*
X-18652Y141732D01*
X-18785Y143086D01*
X-19180Y144388D01*
X-19821Y145587D01*
X-20684Y146639D01*
X-21735Y147502D01*
X-22935Y148143D01*
X-24237Y148538D01*
X-25591Y148671D01*
D02*
G37*
G36*
X38870Y100606D02*
X33252D01*
Y96957D01*
X38870D01*
Y100606D01*
D02*
G37*
G36*
Y95957D02*
X33252D01*
Y92307D01*
X38870D01*
Y95957D01*
D02*
G37*
G36*
X31315Y100606D02*
X19079D01*
Y98430D01*
X18629Y98341D01*
X17967Y97899D01*
X13912Y93843D01*
X13470Y93182D01*
X13315Y92401D01*
Y90320D01*
X13302Y90171D01*
X13266Y89957D01*
X13226Y89805D01*
X13216Y89780D01*
X12189D01*
Y83449D01*
X18520D01*
Y84475D01*
X18545Y84486D01*
X18697Y84526D01*
X18911Y84562D01*
X19061Y84575D01*
X31312D01*
X31969Y84563D01*
X32316Y84538D01*
X32734Y84259D01*
X33709Y84065D01*
X34685Y84259D01*
X35512Y84812D01*
X36064Y85639D01*
X36258Y86614D01*
X36064Y87590D01*
X35512Y88416D01*
X34685Y88969D01*
X33709Y89163D01*
X32734Y88969D01*
X32399Y88745D01*
X30557Y88653D01*
X19061D01*
X18911Y88666D01*
X18697Y88702D01*
X18545Y88743D01*
X18520Y88753D01*
Y89780D01*
X17493D01*
X17483Y89805D01*
X17442Y89957D01*
X17406Y90171D01*
X17393Y90320D01*
Y91557D01*
X18617Y92780D01*
X19079Y92589D01*
Y92307D01*
X31315D01*
Y100606D01*
D02*
G37*
G36*
X-26091Y115720D02*
X-31491D01*
X-31426Y115060D01*
X-31087Y113944D01*
X-30538Y112915D01*
X-29798Y112013D01*
X-28896Y111273D01*
X-27867Y110723D01*
X-26751Y110385D01*
X-26091Y110320D01*
Y115720D01*
D02*
G37*
G36*
X31491Y116035D02*
X26091D01*
Y110635D01*
X26751Y110700D01*
X27867Y111038D01*
X28896Y111588D01*
X29798Y112328D01*
X30538Y113230D01*
X31087Y114258D01*
X31426Y115375D01*
X31491Y116035D01*
D02*
G37*
G36*
X25091D02*
X19690D01*
X19755Y115375D01*
X20094Y114258D01*
X20643Y113230D01*
X21383Y112328D01*
X22285Y111588D01*
X23314Y111038D01*
X24430Y110700D01*
X25091Y110635D01*
Y116035D01*
D02*
G37*
G36*
X-19690Y115720D02*
X-25091D01*
Y110320D01*
X-24430Y110385D01*
X-23314Y110723D01*
X-22285Y111273D01*
X-21383Y112013D01*
X-20643Y112915D01*
X-20094Y113944D01*
X-19755Y115060D01*
X-19690Y115720D01*
D02*
G37*
G36*
X31480Y42650D02*
X28059D01*
Y39229D01*
X28591Y39299D01*
X29553Y39697D01*
X30378Y40331D01*
X31012Y41156D01*
X31410Y42118D01*
X31480Y42650D01*
D02*
G37*
G36*
X37059D02*
X33638D01*
X33708Y42118D01*
X34106Y41156D01*
X34740Y40331D01*
X35566Y39697D01*
X36527Y39299D01*
X37059Y39229D01*
Y42650D01*
D02*
G37*
G36*
X27059D02*
X23638D01*
X23708Y42118D01*
X24106Y41156D01*
X24740Y40331D01*
X25566Y39697D01*
X26527Y39299D01*
X27059Y39229D01*
Y42650D01*
D02*
G37*
G36*
X41480D02*
X38059D01*
Y39229D01*
X38591Y39299D01*
X39553Y39697D01*
X40378Y40331D01*
X41012Y41156D01*
X41410Y42118D01*
X41480Y42650D01*
D02*
G37*
G36*
X28059Y47071D02*
Y43650D01*
X31480D01*
X31410Y44182D01*
X31012Y45143D01*
X30378Y45969D01*
X29553Y46602D01*
X28591Y47001D01*
X28059Y47071D01*
D02*
G37*
G36*
X37059D02*
X36527Y47001D01*
X35566Y46602D01*
X34740Y45969D01*
X34106Y45143D01*
X33708Y44182D01*
X33638Y43650D01*
X37059D01*
Y47071D01*
D02*
G37*
G36*
X27059D02*
X26527Y47001D01*
X25566Y46602D01*
X24740Y45969D01*
X24106Y45143D01*
X23708Y44182D01*
X23638Y43650D01*
X27059D01*
Y47071D01*
D02*
G37*
G36*
X-500Y14854D02*
X-5901D01*
X-5835Y14194D01*
X-5497Y13077D01*
X-4947Y12049D01*
X-4207Y11147D01*
X-3306Y10407D01*
X-2277Y9857D01*
X-1161Y9519D01*
X-500Y9454D01*
Y14854D01*
D02*
G37*
G36*
X38870Y11311D02*
X33252D01*
Y7661D01*
X38870D01*
Y11311D01*
D02*
G37*
G36*
X31315Y15961D02*
X19079D01*
Y12356D01*
X18970Y11811D01*
Y8777D01*
X18959Y8120D01*
X18934Y7773D01*
X18654Y7356D01*
X18461Y6380D01*
X18654Y5405D01*
X19207Y4578D01*
X20034Y4025D01*
X21010Y3831D01*
X21985Y4025D01*
X22812Y4578D01*
X23364Y5405D01*
X23558Y6380D01*
X23403Y7162D01*
X23716Y7661D01*
X31315D01*
Y15961D01*
D02*
G37*
G36*
X5901Y14854D02*
X500D01*
Y9454D01*
X1161Y9519D01*
X2277Y9857D01*
X3306Y10407D01*
X4207Y11147D01*
X4947Y12049D01*
X5497Y13077D01*
X5836Y14194D01*
X5901Y14854D01*
D02*
G37*
G36*
X37559Y37137D02*
X36527Y37001D01*
X35566Y36602D01*
X35051Y36208D01*
X34993Y36179D01*
X34740Y35987D01*
X34484Y35840D01*
X34160Y35698D01*
X33768Y35567D01*
X33309Y35450D01*
X32807Y35356D01*
X31881Y35275D01*
X31512Y35612D01*
Y37102D01*
X23606D01*
Y29197D01*
X31512D01*
Y30706D01*
X31877Y31047D01*
X32205Y31025D01*
X32784Y30948D01*
X33309Y30849D01*
X33768Y30733D01*
X34160Y30601D01*
X34484Y30459D01*
X34740Y30312D01*
X34993Y30120D01*
X35051Y30092D01*
X35566Y29697D01*
X36527Y29299D01*
X37559Y29163D01*
X38591Y29299D01*
X39553Y29697D01*
X40378Y30331D01*
X41012Y31156D01*
X41410Y32118D01*
X41546Y33150D01*
X41410Y34182D01*
X41012Y35143D01*
X40378Y35969D01*
X39553Y36602D01*
X38591Y37001D01*
X37559Y37137D01*
D02*
G37*
G36*
X0Y47805D02*
X-1354Y47672D01*
X-2655Y47277D01*
X-3855Y46636D01*
X-4907Y45773D01*
X-5769Y44721D01*
X-6411Y43521D01*
X-6805Y42220D01*
X-6939Y40866D01*
X-6805Y39512D01*
X-6411Y38211D01*
X-5769Y37011D01*
X-4907Y35960D01*
X-3855Y35097D01*
X-2655Y34455D01*
X-1354Y34060D01*
X-428Y33969D01*
Y33467D01*
X-1161Y33395D01*
X-2277Y33056D01*
X-3306Y32506D01*
X-4207Y31766D01*
X-4947Y30865D01*
X-5497Y29836D01*
X-5835Y28720D01*
X-5950Y27559D01*
X-5835Y26398D01*
X-5497Y25282D01*
X-4947Y24253D01*
X-4207Y23352D01*
X-3306Y22612D01*
X-2277Y22062D01*
X-1161Y21723D01*
X-1002Y21708D01*
Y21205D01*
X-1161Y21190D01*
X-2277Y20851D01*
X-3306Y20301D01*
X-4207Y19561D01*
X-4947Y18660D01*
X-5497Y17631D01*
X-5835Y16515D01*
X-5901Y15854D01*
X5901D01*
X5836Y16515D01*
X5497Y17631D01*
X4947Y18660D01*
X4207Y19561D01*
X3306Y20301D01*
X2277Y20851D01*
X1161Y21190D01*
X1002Y21205D01*
Y21708D01*
X1161Y21723D01*
X2277Y22062D01*
X3306Y22612D01*
X4207Y23352D01*
X4947Y24253D01*
X5497Y25282D01*
X5836Y26398D01*
X5950Y27559D01*
X5836Y28720D01*
X5497Y29836D01*
X4947Y30865D01*
X4207Y31766D01*
X3306Y32506D01*
X2277Y33056D01*
X1161Y33395D01*
X428Y33467D01*
Y33969D01*
X1354Y34060D01*
X2655Y34455D01*
X3855Y35097D01*
X4907Y35960D01*
X5770Y37011D01*
X6411Y38211D01*
X6806Y39512D01*
X6939Y40866D01*
X6806Y42220D01*
X6411Y43521D01*
X5770Y44721D01*
X4907Y45773D01*
X3855Y46636D01*
X2655Y47277D01*
X1354Y47672D01*
X0Y47805D01*
D02*
G37*
G36*
X38870Y15961D02*
X33252D01*
Y12311D01*
X38870D01*
Y15961D01*
D02*
G37*
G36*
X38059Y47071D02*
Y43650D01*
X41480D01*
X41410Y44182D01*
X41012Y45143D01*
X40378Y45969D01*
X39553Y46602D01*
X38591Y47001D01*
X38059Y47071D01*
D02*
G37*
G36*
X27059Y62650D02*
X23638D01*
X23708Y62118D01*
X24106Y61156D01*
X24740Y60331D01*
X25566Y59697D01*
X26527Y59299D01*
X27059Y59229D01*
Y62650D01*
D02*
G37*
G36*
X-25591Y79822D02*
X-26635Y79684D01*
X-27608Y79281D01*
X-28443Y78640D01*
X-29085Y77805D01*
X-29488Y76832D01*
X-29625Y75787D01*
X-29488Y74743D01*
X-29085Y73770D01*
X-28683Y73247D01*
X-28655Y73189D01*
X-28456Y72928D01*
X-28303Y72662D01*
X-28155Y72329D01*
X-28020Y71928D01*
X-27899Y71460D01*
X-27798Y70925D01*
X-27718Y70337D01*
X-27630Y69044D01*
Y67574D01*
X-27474Y66794D01*
X-27236Y66437D01*
Y62761D01*
X-27249Y62612D01*
X-27285Y62398D01*
X-27325Y62246D01*
X-27336Y62221D01*
X-28362D01*
Y55890D01*
X-22031D01*
Y62221D01*
X-23058D01*
X-23068Y62246D01*
X-23109Y62398D01*
X-23144Y62612D01*
X-23158Y62761D01*
Y67180D01*
X-23313Y67961D01*
X-23551Y68318D01*
Y69044D01*
X-23463Y70337D01*
X-23383Y70926D01*
X-23282Y71460D01*
X-23162Y71928D01*
X-23026Y72329D01*
X-22878Y72662D01*
X-22725Y72928D01*
X-22526Y73189D01*
X-22498Y73247D01*
X-22096Y73770D01*
X-21693Y74743D01*
X-21556Y75787D01*
X-21693Y76832D01*
X-22096Y77805D01*
X-22738Y78640D01*
X-23573Y79281D01*
X-24546Y79684D01*
X-25591Y79822D01*
D02*
G37*
G36*
X38059Y57071D02*
Y53650D01*
X41480D01*
X41410Y54182D01*
X41012Y55143D01*
X40378Y55969D01*
X39553Y56602D01*
X38591Y57001D01*
X38059Y57071D01*
D02*
G37*
G36*
X37059Y62650D02*
X33638D01*
X33708Y62118D01*
X34106Y61156D01*
X34740Y60331D01*
X35566Y59697D01*
X36527Y59299D01*
X37059Y59229D01*
Y62650D01*
D02*
G37*
G36*
X0Y66186D02*
X-1161Y66072D01*
X-2277Y65733D01*
X-3306Y65184D01*
X-4207Y64443D01*
X-4947Y63542D01*
X-5196Y63077D01*
X-5232Y63041D01*
X-5329Y62892D01*
X-5403Y62819D01*
X-5537Y62726D01*
X-5744Y62624D01*
X-6028Y62524D01*
X-6385Y62433D01*
X-6802Y62360D01*
X-7799Y62275D01*
X-8509D01*
X-9290Y62120D01*
X-9951Y61678D01*
X-10535Y61094D01*
X-14404D01*
X-14553Y61107D01*
X-14767Y61143D01*
X-14919Y61184D01*
X-14945Y61194D01*
Y62221D01*
X-21275D01*
Y55890D01*
X-14945D01*
Y56916D01*
X-14919Y56927D01*
X-14767Y56967D01*
X-14553Y57003D01*
X-14404Y57016D01*
X-9691D01*
X-8910Y57171D01*
X-8249Y57613D01*
X-7678Y58184D01*
X-7303Y58169D01*
X-6815Y58115D01*
X-6385Y58040D01*
X-6027Y57949D01*
X-5744Y57848D01*
X-5537Y57746D01*
X-5403Y57653D01*
X-5329Y57580D01*
X-5232Y57432D01*
X-5196Y57396D01*
X-4947Y56931D01*
X-4207Y56029D01*
X-3306Y55289D01*
X-2277Y54739D01*
X-1161Y54401D01*
X0Y54286D01*
X1161Y54401D01*
X2277Y54739D01*
X3306Y55289D01*
X4207Y56029D01*
X4947Y56931D01*
X5497Y57959D01*
X5836Y59075D01*
X5950Y60236D01*
X5836Y61397D01*
X5497Y62513D01*
X4947Y63542D01*
X4207Y64443D01*
X3306Y65184D01*
X2277Y65733D01*
X1161Y66072D01*
X0Y66186D01*
D02*
G37*
G36*
X41480Y62650D02*
X38059D01*
Y59229D01*
X38591Y59299D01*
X39553Y59697D01*
X40378Y60331D01*
X41012Y61156D01*
X41410Y62118D01*
X41480Y62650D01*
D02*
G37*
G36*
X31480D02*
X28059D01*
Y59229D01*
X28591Y59299D01*
X29553Y59697D01*
X30378Y60331D01*
X31012Y61156D01*
X31410Y62118D01*
X31480Y62650D01*
D02*
G37*
G36*
Y52650D02*
X28059D01*
Y49229D01*
X28591Y49299D01*
X29553Y49697D01*
X30378Y50331D01*
X31012Y51156D01*
X31410Y52118D01*
X31480Y52650D01*
D02*
G37*
G36*
X37059D02*
X33638D01*
X33708Y52118D01*
X34106Y51156D01*
X34740Y50331D01*
X35566Y49697D01*
X36527Y49299D01*
X37059Y49229D01*
Y52650D01*
D02*
G37*
G36*
X27059D02*
X23638D01*
X23708Y52118D01*
X24106Y51156D01*
X24740Y50331D01*
X25566Y49697D01*
X26527Y49299D01*
X27059Y49229D01*
Y52650D01*
D02*
G37*
G36*
X41480D02*
X38059D01*
Y49229D01*
X38591Y49299D01*
X39553Y49697D01*
X40378Y50331D01*
X41012Y51156D01*
X41410Y52118D01*
X41480Y52650D01*
D02*
G37*
G36*
X28059Y57071D02*
Y53650D01*
X31480D01*
X31410Y54182D01*
X31012Y55143D01*
X30378Y55969D01*
X29553Y56602D01*
X28591Y57001D01*
X28059Y57071D01*
D02*
G37*
G36*
X37059D02*
X36527Y57001D01*
X35566Y56602D01*
X34740Y55969D01*
X34106Y55143D01*
X33708Y54182D01*
X33638Y53650D01*
X37059D01*
Y57071D01*
D02*
G37*
G36*
X27059D02*
X26527Y57001D01*
X25566Y56602D01*
X24740Y55969D01*
X24106Y55143D01*
X23708Y54182D01*
X23638Y53650D01*
X27059D01*
Y57071D01*
D02*
G37*
G36*
X-31284Y299894D02*
X-34933D01*
Y294276D01*
X-31284D01*
Y299894D01*
D02*
G37*
G36*
X40839Y359736D02*
X38889D01*
X38984Y359261D01*
X39536Y358434D01*
X40363Y357881D01*
X40839Y357787D01*
Y359736D01*
D02*
G37*
G36*
X43788D02*
X41839D01*
Y357787D01*
X42314Y357881D01*
X43141Y358434D01*
X43694Y359261D01*
X43788Y359736D01*
D02*
G37*
G36*
X-2350Y338468D02*
X-2825Y338374D01*
X-3652Y337821D01*
X-4205Y336994D01*
X-4299Y336519D01*
X-2350D01*
Y338468D01*
D02*
G37*
G36*
X600Y335519D02*
X-1350D01*
Y333569D01*
X-874Y333664D01*
X-47Y334216D01*
X505Y335043D01*
X600Y335519D01*
D02*
G37*
G36*
X-30299Y393323D02*
X-36630D01*
Y386992D01*
X-35607D01*
X-35592Y386957D01*
X-35552Y386807D01*
X-35517Y386595D01*
X-35504Y386448D01*
Y385203D01*
X-35517Y385053D01*
X-35552Y384839D01*
X-35593Y384687D01*
X-35603Y384662D01*
X-36630D01*
Y378331D01*
X-30299D01*
Y378896D01*
X-29799Y379163D01*
X-29766Y379141D01*
X-28791Y378947D01*
X-27815Y379141D01*
X-26988Y379694D01*
X-26436Y380521D01*
X-26242Y381496D01*
X-26436Y382472D01*
X-26988Y383298D01*
X-27815Y383851D01*
X-28791Y384045D01*
X-29766Y383851D01*
X-29799Y383829D01*
X-30292Y384092D01*
X-30299Y384110D01*
Y384662D01*
X-31326D01*
X-31336Y384687D01*
X-31377Y384839D01*
X-31412Y385053D01*
X-31425Y385203D01*
Y386448D01*
X-31412Y386595D01*
X-31377Y386807D01*
X-31337Y386957D01*
X-31322Y386992D01*
X-30299D01*
Y393323D01*
D02*
G37*
G36*
X-23122Y348906D02*
Y346957D01*
X-21172D01*
X-21267Y347432D01*
X-21820Y348259D01*
X-22647Y348812D01*
X-23122Y348906D01*
D02*
G37*
G36*
X-24122D02*
X-24598Y348812D01*
X-25424Y348259D01*
X-25977Y347432D01*
X-26072Y346957D01*
X-24122D01*
Y348906D01*
D02*
G37*
G36*
Y345957D02*
X-26072D01*
X-25977Y345481D01*
X-25424Y344654D01*
X-24598Y344102D01*
X-24122Y344007D01*
Y345957D01*
D02*
G37*
G36*
X-28331Y259736D02*
X-30996D01*
Y257071D01*
X-28331D01*
Y259736D01*
D02*
G37*
G36*
X-21172Y345957D02*
X-23122D01*
Y344007D01*
X-22647Y344102D01*
X-21820Y344654D01*
X-21267Y345481D01*
X-21172Y345957D01*
D02*
G37*
G36*
X-31996Y263402D02*
X-34661D01*
Y260736D01*
X-31996D01*
Y263402D01*
D02*
G37*
G36*
X-2468Y186508D02*
X-4418D01*
X-4324Y186032D01*
X-3771Y185205D01*
X-2944Y184653D01*
X-2468Y184558D01*
Y186508D01*
D02*
G37*
G36*
X-31496Y191042D02*
X-32540Y190905D01*
X-33513Y190502D01*
X-34349Y189861D01*
X-34990Y189025D01*
X-35393Y188052D01*
X-35531Y187008D01*
X-35393Y185964D01*
X-34990Y184991D01*
X-34349Y184155D01*
X-33513Y183514D01*
X-32540Y183111D01*
X-31496Y182973D01*
X-30452Y183111D01*
X-29479Y183514D01*
X-28643Y184155D01*
X-28002Y184991D01*
X-27599Y185964D01*
X-27462Y187008D01*
X-27599Y188052D01*
X-28002Y189025D01*
X-28643Y189861D01*
X-29479Y190502D01*
X-30452Y190905D01*
X-31496Y191042D01*
D02*
G37*
G36*
X9842Y313090D02*
X8798Y312952D01*
X7825Y312549D01*
X6990Y311908D01*
X6348Y311072D01*
X5945Y310099D01*
X5808Y309055D01*
X5945Y308011D01*
X6348Y307038D01*
X6990Y306202D01*
X7825Y305561D01*
X8798Y305158D01*
X9842Y305021D01*
X10314Y305083D01*
X10495Y304602D01*
X10127Y304357D01*
X9575Y303530D01*
X9480Y303054D01*
X14379D01*
X14285Y303530D01*
X13732Y304357D01*
X12905Y304909D01*
X12019Y305086D01*
X11902Y305427D01*
X11888Y305583D01*
X12695Y306202D01*
X13336Y307038D01*
X13739Y308011D01*
X13877Y309055D01*
X13739Y310099D01*
X13336Y311072D01*
X12695Y311908D01*
X11860Y312549D01*
X10887Y312952D01*
X9842Y313090D01*
D02*
G37*
G36*
X481Y186508D02*
X-1469D01*
Y184558D01*
X-993Y184653D01*
X-166Y185205D01*
X386Y186032D01*
X481Y186508D01*
D02*
G37*
G36*
X-40739Y363078D02*
X-42688D01*
Y361128D01*
X-42213Y361223D01*
X-41386Y361776D01*
X-40833Y362602D01*
X-40739Y363078D01*
D02*
G37*
G36*
X-18098Y315834D02*
X-20047D01*
X-19953Y315358D01*
X-19400Y314531D01*
X-18573Y313979D01*
X-18098Y313884D01*
Y315834D01*
D02*
G37*
G36*
X-3437Y171741D02*
Y169791D01*
X-1488D01*
X-1582Y170267D01*
X-2135Y171094D01*
X-2962Y171646D01*
X-3437Y171741D01*
D02*
G37*
G36*
X-4437D02*
X-4913Y171646D01*
X-5739Y171094D01*
X-6292Y170267D01*
X-6386Y169791D01*
X-4437D01*
Y171741D01*
D02*
G37*
G36*
X-17098Y318783D02*
Y316834D01*
X-15148D01*
X-15243Y317309D01*
X-15795Y318136D01*
X-16622Y318689D01*
X-17098Y318783D01*
D02*
G37*
G36*
X-18098D02*
X-18573Y318689D01*
X-19400Y318136D01*
X-19953Y317309D01*
X-20047Y316834D01*
X-18098D01*
Y318783D01*
D02*
G37*
G36*
X-31496Y181200D02*
X-32540Y181062D01*
X-33513Y180659D01*
X-34349Y180018D01*
X-34990Y179183D01*
X-35393Y178209D01*
X-35531Y177165D01*
X-35393Y176121D01*
X-34990Y175148D01*
X-34349Y174312D01*
X-33513Y173671D01*
X-32540Y173268D01*
X-31496Y173131D01*
X-30452Y173268D01*
X-29479Y173671D01*
X-28643Y174312D01*
X-28002Y175148D01*
X-27599Y176121D01*
X-27462Y177165D01*
X-27599Y178209D01*
X-28002Y179183D01*
X-28643Y180018D01*
X-29479Y180659D01*
X-30452Y181062D01*
X-31496Y181200D01*
D02*
G37*
G36*
X-2468Y189457D02*
X-2944Y189363D01*
X-3771Y188810D01*
X-4324Y187983D01*
X-4418Y187508D01*
X-2468D01*
Y189457D01*
D02*
G37*
G36*
X-42688Y366027D02*
Y364078D01*
X-40739D01*
X-40833Y364553D01*
X-41386Y365380D01*
X-42213Y365933D01*
X-42688Y366027D01*
D02*
G37*
G36*
X40839Y362686D02*
X40363Y362591D01*
X39536Y362039D01*
X38984Y361212D01*
X38889Y360736D01*
X40839D01*
Y362686D01*
D02*
G37*
G36*
X11430Y302054D02*
X9480D01*
X9575Y301579D01*
X10127Y300752D01*
X10954Y300199D01*
X11430Y300105D01*
Y302054D01*
D02*
G37*
G36*
X41839Y362686D02*
Y360736D01*
X43788D01*
X43694Y361212D01*
X43141Y362039D01*
X42314Y362591D01*
X41839Y362686D01*
D02*
G37*
G36*
X-31284Y306512D02*
X-34933D01*
Y300894D01*
X-31284D01*
Y306512D01*
D02*
G37*
G36*
X-2350Y335519D02*
X-4299D01*
X-4205Y335043D01*
X-3652Y334216D01*
X-2825Y333664D01*
X-2350Y333569D01*
Y335519D01*
D02*
G37*
G36*
X14379Y302054D02*
X12430D01*
Y300105D01*
X12905Y300199D01*
X13732Y300752D01*
X14285Y301579D01*
X14379Y302054D01*
D02*
G37*
%LPD*%
G36*
X35609Y70932D02*
X35304Y71163D01*
X34944Y71371D01*
X34528Y71553D01*
X34056Y71711D01*
X33529Y71845D01*
X32946Y71955D01*
X32639Y71996D01*
X32173Y71955D01*
X31589Y71845D01*
X31062Y71711D01*
X30590Y71553D01*
X30174Y71371D01*
X29814Y71163D01*
X29509Y70932D01*
Y75367D01*
X29814Y75136D01*
X30174Y74929D01*
X30590Y74746D01*
X31062Y74588D01*
X31589Y74454D01*
X32173Y74344D01*
X32479Y74304D01*
X32946Y74344D01*
X33529Y74454D01*
X34056Y74588D01*
X34528Y74746D01*
X34944Y74929D01*
X35304Y75136D01*
X35609Y75367D01*
Y70932D01*
D02*
G37*
G36*
X-19489Y90317D02*
X-20058Y89731D01*
X-21023Y88624D01*
X-21420Y88103D01*
X-21759Y87604D01*
X-22041Y87127D01*
X-22266Y86672D01*
X-22433Y86239D01*
X-22544Y85827D01*
X-22597Y85438D01*
X-25783Y88624D01*
X-25393Y88677D01*
X-24982Y88787D01*
X-24548Y88955D01*
X-24093Y89179D01*
X-23616Y89461D01*
X-23117Y89801D01*
X-22597Y90197D01*
X-21490Y91163D01*
X-20903Y91731D01*
X-19489Y90317D01*
D02*
G37*
G36*
X1810Y144283D02*
X1640Y144223D01*
X1490Y144123D01*
X1360Y143983D01*
X1250Y143803D01*
X1160Y143583D01*
X1090Y143323D01*
X1040Y143023D01*
X1010Y142683D01*
X1000Y142303D01*
X-1000D01*
X-1010Y142683D01*
X-1040Y143023D01*
X-1090Y143323D01*
X-1160Y143583D01*
X-1250Y143803D01*
X-1360Y143983D01*
X-1490Y144123D01*
X-1640Y144223D01*
X-1810Y144283D01*
X-2000Y144303D01*
X2000D01*
X1810Y144283D01*
D02*
G37*
G36*
X17516Y88424D02*
X17576Y88254D01*
X17677Y88104D01*
X17818Y87974D01*
X17999Y87864D01*
X18220Y87774D01*
X18482Y87704D01*
X18783Y87654D01*
X19125Y87624D01*
X19508Y87614D01*
Y85614D01*
X19125Y85604D01*
X18783Y85574D01*
X18482Y85524D01*
X18220Y85454D01*
X17999Y85364D01*
X17818Y85254D01*
X17677Y85124D01*
X17576Y84974D01*
X17516Y84804D01*
X17496Y84614D01*
Y88614D01*
X17516Y88424D01*
D02*
G37*
G36*
X16364Y90385D02*
X16394Y90043D01*
X16444Y89741D01*
X16514Y89480D01*
X16604Y89258D01*
X16714Y89077D01*
X16844Y88937D01*
X16994Y88836D01*
X17164Y88776D01*
X17354Y88756D01*
X13354D01*
X13544Y88776D01*
X13714Y88836D01*
X13864Y88937D01*
X13994Y89077D01*
X14104Y89258D01*
X14194Y89480D01*
X14264Y89741D01*
X14314Y90043D01*
X14344Y90385D01*
X14354Y90768D01*
X16354D01*
X16364Y90385D01*
D02*
G37*
G36*
X32719Y85488D02*
X32668Y85512D01*
X32572Y85533D01*
X32431Y85552D01*
X32015Y85583D01*
X30191Y85614D01*
Y87614D01*
X32719Y87741D01*
Y85488D01*
D02*
G37*
G36*
X22070Y8682D02*
X23009Y8686D01*
X22819Y8665D01*
X22649Y8604D01*
X22499Y8503D01*
X22369Y8362D01*
X22260Y8180D01*
X22170Y7959D01*
X22116Y7761D01*
X22136Y7371D01*
X22047D01*
X22019Y7055D01*
X22009Y6673D01*
X20009D01*
X20038Y7371D01*
X19883D01*
X19907Y7422D01*
X19929Y7518D01*
X19948Y7659D01*
X19978Y8075D01*
X20009Y9898D01*
X22009D01*
X22070Y8682D01*
D02*
G37*
G36*
X35609Y30932D02*
X35304Y31163D01*
X34944Y31370D01*
X34528Y31553D01*
X34056Y31711D01*
X33529Y31845D01*
X32946Y31955D01*
X32307Y32040D01*
X30862Y32138D01*
X30056Y32150D01*
Y34150D01*
X30862Y34162D01*
X32946Y34345D01*
X33529Y34454D01*
X34056Y34588D01*
X34528Y34746D01*
X34944Y34929D01*
X35304Y35136D01*
X35609Y35367D01*
Y30932D01*
D02*
G37*
G36*
X-23576Y73493D02*
X-23789Y73124D01*
X-23977Y72700D01*
X-24139Y72219D01*
X-24277Y71682D01*
X-24390Y71089D01*
X-24478Y70441D01*
X-24578Y68975D01*
X-24590Y68159D01*
X-26591D01*
X-26603Y68975D01*
X-26703Y70441D01*
X-26791Y71089D01*
X-26904Y71682D01*
X-27042Y72219D01*
X-27204Y72700D01*
X-27393Y73124D01*
X-27606Y73493D01*
X-27843Y73806D01*
X-23338D01*
X-23576Y73493D01*
D02*
G37*
G36*
X-24187Y62826D02*
X-24157Y62484D01*
X-24107Y62182D01*
X-24037Y61921D01*
X-23947Y61699D01*
X-23837Y61518D01*
X-23707Y61378D01*
X-23557Y61277D01*
X-23387Y61217D01*
X-23197Y61197D01*
X-27197D01*
X-27007Y61217D01*
X-26837Y61277D01*
X-26687Y61378D01*
X-26557Y61518D01*
X-26447Y61699D01*
X-26357Y61921D01*
X-26287Y62182D01*
X-26237Y62484D01*
X-26207Y62826D01*
X-26197Y63209D01*
X-24197D01*
X-24187Y62826D01*
D02*
G37*
G36*
X-4380Y57994D02*
X-4536Y58230D01*
X-4749Y58441D01*
X-5019Y58627D01*
X-5347Y58789D01*
X-5731Y58926D01*
X-6172Y59038D01*
X-6671Y59124D01*
X-7226Y59187D01*
X-8509Y59236D01*
Y61236D01*
X-7839Y61249D01*
X-6671Y61348D01*
X-6172Y61435D01*
X-5731Y61547D01*
X-5347Y61684D01*
X-5019Y61845D01*
X-4749Y62032D01*
X-4536Y62243D01*
X-4380Y62479D01*
Y57994D01*
D02*
G37*
G36*
X-15949Y60865D02*
X-15888Y60695D01*
X-15788Y60545D01*
X-15647Y60415D01*
X-15466Y60305D01*
X-15245Y60215D01*
X-14983Y60145D01*
X-14681Y60095D01*
X-14339Y60065D01*
X-13957Y60055D01*
Y58055D01*
X-14339Y58045D01*
X-14681Y58015D01*
X-14983Y57965D01*
X-15245Y57895D01*
X-15466Y57805D01*
X-15647Y57695D01*
X-15788Y57565D01*
X-15888Y57415D01*
X-15949Y57245D01*
X-15969Y57055D01*
Y61055D01*
X-15949Y60865D01*
D02*
G37*
G36*
X-31655Y387984D02*
X-31824Y387924D01*
X-31975Y387824D01*
X-32105Y387684D01*
X-32215Y387504D01*
X-32305Y387284D01*
X-32375Y387024D01*
X-32425Y386724D01*
X-32455Y386384D01*
X-32465Y386004D01*
X-34465D01*
X-34475Y386384D01*
X-34505Y386724D01*
X-34555Y387024D01*
X-34624Y387284D01*
X-34715Y387504D01*
X-34824Y387684D01*
X-34955Y387824D01*
X-35105Y387924D01*
X-35274Y387984D01*
X-35465Y388004D01*
X-31465D01*
X-31655Y387984D01*
D02*
G37*
G36*
X-32455Y385267D02*
X-32425Y384925D01*
X-32375Y384623D01*
X-32305Y384362D01*
X-32215Y384140D01*
X-32105Y383959D01*
X-31975Y383819D01*
X-31824Y383718D01*
X-31655Y383658D01*
X-31465Y383637D01*
X-35465D01*
X-35274Y383658D01*
X-35105Y383718D01*
X-34955Y383819D01*
X-34824Y383959D01*
X-34715Y384140D01*
X-34624Y384362D01*
X-34555Y384623D01*
X-34505Y384925D01*
X-34475Y385267D01*
X-34465Y385649D01*
X-32465D01*
X-32455Y385267D01*
D02*
G37*
G36*
X-31303Y383306D02*
X-31243Y383136D01*
X-31142Y382986D01*
X-31001Y382856D01*
X-30820Y382746D01*
X-30599Y382656D01*
X-30365Y382593D01*
X-29781Y382623D01*
Y382514D01*
X-29693Y382506D01*
X-29311Y382496D01*
Y380496D01*
X-29693Y380486D01*
X-29781Y380478D01*
Y380370D01*
X-29832Y380394D01*
X-29928Y380415D01*
X-30069Y380434D01*
X-30138Y380439D01*
X-30337Y380406D01*
X-30599Y380336D01*
X-30820Y380246D01*
X-31001Y380136D01*
X-31142Y380006D01*
X-31243Y379856D01*
X-31303Y379686D01*
X-31323Y379496D01*
Y380479D01*
X-32309Y380496D01*
Y382496D01*
X-31323Y382545D01*
Y383496D01*
X-31303Y383306D01*
D02*
G37*
%LPC*%
G36*
X4874Y395295D02*
X3251D01*
Y392378D01*
X3412Y391565D01*
X3872Y390877D01*
X4561Y390416D01*
X4874Y390354D01*
Y395295D01*
D02*
G37*
G36*
X-2503D02*
X-4126D01*
Y390354D01*
X-3813Y390416D01*
X-3124Y390877D01*
X-2664Y391565D01*
X-2503Y392378D01*
Y395295D01*
D02*
G37*
G36*
X-126D02*
X-1749D01*
Y392378D01*
X-1588Y391565D01*
X-1127Y390877D01*
X-439Y390416D01*
X-126Y390354D01*
Y395295D01*
D02*
G37*
G36*
X2497D02*
X874D01*
Y390354D01*
X1187Y390416D01*
X1876Y390877D01*
X2336Y391565D01*
X2497Y392378D01*
Y395295D01*
D02*
G37*
G36*
X7497D02*
X5874D01*
Y390354D01*
X6187Y390416D01*
X6876Y390877D01*
X7336Y391565D01*
X7497Y392378D01*
Y395295D01*
D02*
G37*
G36*
X-5126D02*
X-6749D01*
Y392378D01*
X-6588Y391565D01*
X-6128Y390877D01*
X-5439Y390416D01*
X-5126Y390354D01*
Y395295D01*
D02*
G37*
G36*
X-33096Y399385D02*
X-34140D01*
X-33985Y399273D01*
X-33802Y399218D01*
X-33591Y399219D01*
X-33351Y399277D01*
X-33096Y399385D01*
D02*
G37*
%LPD*%
D16*
X-5906Y354331D02*
D03*
Y347244D02*
D03*
X-31496Y267323D02*
D03*
Y260236D02*
D03*
X-39370Y267323D02*
D03*
Y260236D02*
D03*
X3937Y353937D02*
D03*
Y346850D02*
D03*
X33465Y175984D02*
D03*
Y183071D02*
D03*
X-33465Y374410D02*
D03*
Y381496D02*
D03*
Y390158D02*
D03*
Y397244D02*
D03*
X0Y146457D02*
D03*
Y153543D02*
D03*
X31496Y392520D02*
D03*
Y399606D02*
D03*
D19*
X33071Y377953D02*
D03*
X25984D02*
D03*
X-25591Y364173D02*
D03*
X-32677D02*
D03*
X24819Y237417D02*
D03*
X17732D02*
D03*
X-25197Y59055D02*
D03*
X-18110D02*
D03*
X15354Y86614D02*
D03*
X8268D02*
D03*
D20*
X21010Y6380D02*
Y11811D01*
X-40591Y288180D02*
X-35433D01*
X23130Y161417D02*
X33465Y171752D01*
X-91Y417233D02*
Y417323D01*
X18110Y237417D02*
Y247080D01*
X-8509Y60236D02*
X0D01*
X-91Y417323D02*
X0D01*
X-9843D02*
X-4785Y422380D01*
X-41339Y355512D02*
X-32677Y364173D01*
X-41339Y288928D02*
Y355512D01*
Y288928D02*
X-40591Y288180D01*
X-14125Y323180D02*
X0Y309055D01*
X25591Y233858D02*
X34209Y225239D01*
X25591Y233858D02*
Y236646D01*
Y231874D02*
Y233858D01*
X24819Y237417D02*
X25591Y236646D01*
X23361Y229645D02*
X25591Y231874D01*
X23197Y229480D02*
X23361Y229645D01*
X37109Y298680D02*
Y321158D01*
X31496Y326772D02*
X37109Y321158D01*
X14567Y326772D02*
X31496D01*
X-5906Y347244D02*
X14567Y326772D01*
X-21983Y197180D02*
X-1969Y177165D01*
X-40791Y197180D02*
X-21983D01*
X15748Y175197D02*
X18110Y177558D01*
X-1969Y177165D02*
X-0Y175197D01*
X15748D01*
X18110Y177558D02*
Y208080D01*
X-2090Y366280D02*
X1010D01*
X-19614D02*
X-2090D01*
X-91Y411680D02*
Y417233D01*
X0Y417323D01*
X-9843Y407480D02*
X-91Y417233D01*
X-12355Y229645D02*
X-12191Y229480D01*
X-16191Y233480D02*
X-12355Y229645D01*
X23361D01*
X-23055D02*
X-12355D01*
X28809Y190680D02*
X33465Y186025D01*
Y183071D02*
Y186025D01*
X-33465Y381496D02*
X-28791D01*
Y317280D02*
X-15590Y304080D01*
X-11099D01*
X-8099Y301080D01*
X6861D01*
X0Y153543D02*
X30872D01*
X37709Y160380D01*
Y241971D01*
X25536Y399606D02*
X31496D01*
X-24291Y306580D02*
X-18790Y301080D01*
X-14090D01*
X-9691Y296680D01*
X-4591Y213480D02*
X3509Y205380D01*
X-8091Y213480D02*
X-4591D01*
X-18565Y223955D02*
X-8091Y213480D01*
X33465Y171752D02*
Y175984D01*
X4400Y277380D02*
X32609D01*
X36309Y281080D01*
Y291004D01*
X40109Y294804D01*
Y330180D01*
X23439Y346850D02*
X40109Y330180D01*
X3937Y346850D02*
X23439D01*
X-25591Y85630D02*
X0Y111221D01*
Y146457D01*
X34209Y190480D02*
Y225239D01*
X-8456Y209846D02*
X14609Y186780D01*
X-12995Y209846D02*
X-8456D01*
X-31496Y228346D02*
X-12995Y209846D01*
X-2500Y247579D02*
X984Y244094D01*
X35897Y356693D02*
X43109Y349480D01*
Y293480D02*
Y349480D01*
X39309Y289680D02*
X43109Y293480D01*
X39309Y277480D02*
Y289680D01*
X35409Y273580D02*
X39309Y277480D01*
X5600Y273580D02*
X35409D01*
X-36691Y368187D02*
X-32677Y364173D01*
X21010Y11811D02*
X25197D01*
X28809Y190680D02*
Y224780D01*
X28109Y225480D02*
X28809Y224780D01*
X16309Y225480D02*
X28109D01*
X14310Y223480D02*
X16309Y225480D01*
X14310Y211880D02*
Y223480D01*
Y211880D02*
X18110Y208080D01*
X-40791Y272080D02*
X-34991Y277880D01*
X-14100D01*
X-12500Y279480D01*
X17809Y221580D02*
X25310Y214080D01*
Y176580D02*
Y214080D01*
Y176580D02*
X25905Y175984D01*
X33465D01*
X-16191Y233480D02*
Y246971D01*
X-12191Y229480D02*
X23197D01*
X-31496Y238086D02*
X-23055Y229645D01*
X-31496Y238086D02*
Y248346D01*
X27170Y392520D02*
X31496D01*
X17809Y401880D02*
X27170Y392520D01*
X-27743Y374410D02*
X-19614Y366280D01*
X-33465Y374410D02*
X-27743D01*
X28809Y311180D02*
Y312780D01*
Y311180D02*
X34109Y305880D01*
Y302480D02*
Y305880D01*
X30309Y298680D02*
X34109Y302480D01*
X30309Y289180D02*
Y298680D01*
X25409Y284280D02*
X30309Y289180D01*
X6109Y329769D02*
X18504Y317375D01*
X-27928Y402780D02*
X-1091D01*
X-33465Y397244D02*
X-27928Y402780D01*
X-25591Y364173D02*
X-22084D01*
X-20691Y362780D01*
X3409D01*
X4509Y363880D01*
Y369939D01*
X3809Y370639D02*
X4509Y369939D01*
X-15749Y370639D02*
X3809D01*
X-17790Y372680D02*
X-15749Y370639D01*
X-31496Y267323D02*
X-25339Y273480D01*
X-11500D01*
X-7500Y277480D01*
X-291Y280980D02*
X31809D01*
X33309Y282480D01*
Y294880D01*
X37109Y298680D01*
X42809Y268480D02*
Y286180D01*
X41709Y267380D02*
X42809Y268480D01*
X-35433Y286221D02*
Y288180D01*
X-21590Y323180D02*
X-14125D01*
X-28791Y330380D02*
X-21590Y323180D01*
X-28791Y330380D02*
Y350380D01*
X-20591Y358580D01*
X16710D01*
X15354Y86614D02*
X33709D01*
X15354D02*
Y92401D01*
X19410Y96457D01*
X25197D01*
X33071Y377953D02*
X35709Y380591D01*
Y418080D01*
X31409Y422380D02*
X35709Y418080D01*
X-4785Y422380D02*
X31409D01*
X-39370Y260236D02*
X-33573Y254439D01*
X-29293D01*
X-21496Y246642D01*
Y238347D02*
Y246642D01*
X-91Y411680D02*
X4109Y407480D01*
X-39370Y267323D02*
X-31496D01*
X-9626Y379795D02*
Y395795D01*
X-14626D02*
X-9626D01*
X17500Y247691D02*
Y260591D01*
Y247691D02*
X18110Y247080D01*
X-33465Y381496D02*
Y390158D01*
X18504Y298284D02*
Y305118D01*
X17500Y297280D02*
X18504Y298284D01*
X17500Y290591D02*
Y297280D01*
X-31890Y403055D02*
Y407480D01*
X-33465Y401480D02*
X-31890Y403055D01*
X-33465Y397244D02*
Y401480D01*
X30709Y403868D02*
Y407480D01*
Y403868D02*
X31496Y403080D01*
Y399606D02*
Y403080D01*
X10374Y395795D02*
X15374D01*
X-9691Y59055D02*
X-8509Y60236D01*
X-18110Y59055D02*
X-9691D01*
X-9922Y354331D02*
X-5906D01*
X-11891Y352362D02*
X-9922Y354331D01*
X-15748Y352362D02*
X-11891D01*
X27559Y73150D02*
X37559D01*
X27559Y33150D02*
X37559D01*
X9584Y352362D02*
X13779D01*
X8009Y353937D02*
X9584Y352362D01*
X3937Y353937D02*
X8009D01*
X984Y240052D02*
Y244094D01*
X-787Y238280D02*
X984Y240052D01*
X-787Y234252D02*
Y238280D01*
X-7500Y252939D02*
Y260591D01*
X-8858Y251580D02*
X-7500Y252939D01*
X-8858Y244094D02*
Y251580D01*
Y240052D02*
Y244094D01*
Y240052D02*
X-7086Y238280D01*
Y234252D02*
Y238280D01*
X-25591Y67574D02*
Y75787D01*
Y67574D02*
X-25197Y67180D01*
Y59055D02*
Y67180D01*
D22*
X22500Y295480D02*
X24909D01*
X15374Y374480D02*
Y379795D01*
Y365780D02*
Y374480D01*
X6861Y301080D02*
X12500Y295441D01*
Y290591D02*
Y295441D01*
X22500Y257180D02*
X37709Y241971D01*
X22500Y257180D02*
Y260591D01*
X5374Y386842D02*
X5713Y387180D01*
X5374Y379795D02*
Y386842D01*
X-9691Y296680D02*
X6400D01*
X7500Y290591D01*
X10374Y379795D02*
Y389316D01*
X-7500Y260591D02*
Y265480D01*
X4400Y277380D01*
X-25481Y287480D02*
Y288280D01*
Y287480D02*
X-23472Y285471D01*
X-22500D01*
Y290591D01*
X-2500Y247579D02*
Y260591D01*
Y265480D02*
X5600Y273580D01*
X-2500Y260591D02*
Y265480D01*
X7409Y254480D02*
X8509Y253380D01*
X3500Y254480D02*
X7409D01*
X2500Y255480D02*
X3500Y254480D01*
X2500Y255480D02*
Y260591D01*
X-12500Y279480D02*
Y290591D01*
X-17500D02*
Y296721D01*
X-16641Y297580D01*
X-22500Y253280D02*
Y260591D01*
Y253280D02*
X-16191Y246971D01*
X6409Y401880D02*
X17809D01*
X5374Y400845D02*
X6409Y401880D01*
X5374Y395795D02*
Y400845D01*
X-2591Y386780D02*
X-2090D01*
X-4626Y384745D02*
X-2591Y386780D01*
X-4626Y379795D02*
Y384745D01*
X-31496Y260236D02*
X-25052Y266680D01*
X-18590D01*
X-17500Y265590D01*
Y260591D02*
Y265590D01*
X3900Y284280D02*
X25409D01*
X2500Y285680D02*
X3900Y284280D01*
X2500Y285680D02*
Y290591D01*
X10374Y389316D02*
Y395795D01*
Y389316D02*
X11409Y388280D01*
X15657D01*
X25984Y377953D01*
X14074Y373180D02*
X15374Y374480D01*
X-12961Y373180D02*
X14074D01*
X-14626Y374845D02*
X-12961Y373180D01*
X-14626Y374845D02*
Y379795D01*
X-17790Y372680D02*
Y389216D01*
X-14626Y392380D01*
Y395795D01*
X-7500Y277480D02*
Y290591D01*
X-2500Y283190D02*
Y290591D01*
Y283190D02*
X-291Y280980D01*
X9400Y267380D02*
X41709D01*
X7500Y265480D02*
X9400Y267380D01*
X7500Y260591D02*
Y265480D01*
X24909Y295480D02*
X25709Y294680D01*
X22500Y290591D02*
Y295480D01*
X-35433Y286221D02*
X-31063Y290591D01*
X-22500D01*
D26*
X-8858Y244094D02*
D03*
X984D02*
D03*
X-25591Y141732D02*
D03*
X9842Y417323D02*
D03*
X-9843D02*
D03*
X0D02*
D03*
X-5000Y218504D02*
D03*
X5000D02*
D03*
X-31496Y177165D02*
D03*
Y187008D02*
D03*
X9842Y309055D02*
D03*
X-9843D02*
D03*
X0D02*
D03*
X25591Y142047D02*
D03*
X0Y40866D02*
D03*
X-25591Y75787D02*
D03*
Y85630D02*
D03*
D27*
Y116220D02*
D03*
Y128425D02*
D03*
Y161102D02*
D03*
X25591Y116535D02*
D03*
Y128740D02*
D03*
Y161417D02*
D03*
X0Y15354D02*
D03*
Y27559D02*
D03*
Y60236D02*
D03*
D28*
X-20866Y444882D02*
D03*
X20866D02*
D03*
X-20866Y336614D02*
D03*
X20866D02*
D03*
D29*
X13779Y352362D02*
D03*
X-15748D02*
D03*
D30*
X27559Y33150D02*
D03*
D31*
X37559D02*
D03*
X27559Y43150D02*
D03*
X37559D02*
D03*
X27559Y53150D02*
D03*
X37559D02*
D03*
X27559Y63150D02*
D03*
X37559D02*
D03*
X27559Y73150D02*
D03*
X37559D02*
D03*
D32*
X-31496Y248346D02*
D03*
X-21496Y238347D02*
D03*
D33*
X-31496Y228346D02*
D03*
D34*
X-43188Y363578D02*
D03*
X41339Y360236D02*
D03*
X-1850Y336019D02*
D03*
X33584Y231688D02*
D03*
X-17598Y316334D02*
D03*
X-23622Y346457D02*
D03*
X29647Y320271D02*
D03*
X11930Y239562D02*
D03*
Y302554D02*
D03*
X-3937Y169291D02*
D03*
X-1969Y187008D02*
D03*
X1969Y192913D02*
D03*
X12641Y182843D02*
D03*
X-28791Y381496D02*
D03*
Y317280D02*
D03*
X25536Y399606D02*
D03*
X5713Y387180D02*
D03*
X-24291Y306580D02*
D03*
X3509Y205380D02*
D03*
X-18565Y223955D02*
D03*
X34209Y190480D02*
D03*
X14609Y186780D02*
D03*
X-25481Y288280D02*
D03*
X8509Y253380D02*
D03*
X-36691Y368187D02*
D03*
X21010Y6380D02*
D03*
X28809Y190680D02*
D03*
X-40791Y197180D02*
D03*
Y272080D02*
D03*
X-16641Y297580D02*
D03*
X17809Y221580D02*
D03*
X-2090Y366280D02*
D03*
Y386780D02*
D03*
X1010Y366280D02*
D03*
X28809Y312780D02*
D03*
X6109Y329769D02*
D03*
X-1091Y402780D02*
D03*
X28609Y304380D02*
D03*
X42809Y286180D02*
D03*
X25709Y294680D02*
D03*
X33709Y86614D02*
D03*
D35*
X-22500Y290591D02*
D03*
X-17500D02*
D03*
X-12500D02*
D03*
X-7500D02*
D03*
X-2500D02*
D03*
X2500D02*
D03*
X7500D02*
D03*
X12500D02*
D03*
X17500D02*
D03*
X22500D02*
D03*
X-22500Y260591D02*
D03*
X-17500D02*
D03*
X-12500D02*
D03*
X-7500D02*
D03*
X-2500D02*
D03*
X2500D02*
D03*
X7500D02*
D03*
X12500D02*
D03*
X17500D02*
D03*
X22500D02*
D03*
X374Y379795D02*
D03*
X-4626D02*
D03*
X-9626D02*
D03*
X-14626D02*
D03*
X5374D02*
D03*
X10374D02*
D03*
X15374D02*
D03*
Y395795D02*
D03*
X10374D02*
D03*
X5374D02*
D03*
X374D02*
D03*
X-4626D02*
D03*
X-9626D02*
D03*
X-14626D02*
D03*
D36*
X-35433Y286221D02*
D03*
Y300394D02*
D03*
D37*
X24409Y407480D02*
D03*
X30709D02*
D03*
X-7086Y234252D02*
D03*
X-787D02*
D03*
X-31890Y407480D02*
D03*
X-25591D02*
D03*
X18504Y305118D02*
D03*
X24803D02*
D03*
D38*
X27559Y350394D02*
D03*
Y356693D02*
D03*
D39*
X39370Y96457D02*
D03*
X25197D02*
D03*
Y11811D02*
D03*
X39370D02*
D03*
D40*
X27872Y305118D02*
X28609Y304380D01*
X24803Y305118D02*
X27872D01*
X27559Y356693D02*
X35897D01*
X18504Y305118D02*
Y317375D01*
X16710Y358580D02*
X24896Y350394D01*
X27559D01*
X24461Y356693D02*
X27559D01*
X15374Y365780D02*
X24461Y356693D01*
X4109Y407480D02*
X24409D01*
X-25591D02*
X-9843D01*
D41*
X1969Y188976D02*
Y192913D01*
Y188976D02*
X8102Y182843D01*
X12641D01*
M02*
