G04 Layer_Color=16711935*
%FSLAX25Y25*%
%MOIN*%
G70*
G01*
G75*
%ADD54R,0.05131X0.05131*%
%ADD57R,0.05131X0.05131*%
%ADD58C,0.06800*%
%ADD59C,0.10642*%
%ADD60C,0.12611*%
%ADD61R,0.06706X0.06706*%
%ADD62R,0.06706X0.06706*%
%ADD63C,0.06706*%
%ADD64C,0.05721*%
%ADD65R,0.05721X0.05721*%
%ADD66O,0.02965X0.09800*%
%ADD67R,0.07099X0.11036*%
%ADD68R,0.04737X0.05918*%
%ADD69R,0.05918X0.04737*%
%ADD70R,0.11036X0.07099*%
D54*
X-5906Y354331D02*
D03*
Y347244D02*
D03*
X-31496Y267323D02*
D03*
Y260236D02*
D03*
X-39370Y267323D02*
D03*
Y260236D02*
D03*
X3937Y353937D02*
D03*
Y346850D02*
D03*
X33465Y175984D02*
D03*
Y183071D02*
D03*
X-33465Y374410D02*
D03*
Y381496D02*
D03*
Y390158D02*
D03*
Y397244D02*
D03*
X0Y146457D02*
D03*
Y153543D02*
D03*
X31496Y392520D02*
D03*
Y399606D02*
D03*
D57*
X33071Y377953D02*
D03*
X25984D02*
D03*
X-25591Y364173D02*
D03*
X-32677D02*
D03*
X24819Y237417D02*
D03*
X17732D02*
D03*
X-25197Y59055D02*
D03*
X-18110D02*
D03*
X15354Y86614D02*
D03*
X8268D02*
D03*
D58*
X-8858Y244094D02*
D03*
X984D02*
D03*
X-25591Y141732D02*
D03*
X9842Y417323D02*
D03*
X-9843D02*
D03*
X0D02*
D03*
X-5000Y218504D02*
D03*
X5000D02*
D03*
X-31496Y177165D02*
D03*
Y187008D02*
D03*
X9842Y309055D02*
D03*
X-9843D02*
D03*
X0D02*
D03*
X25591Y142047D02*
D03*
X0Y40866D02*
D03*
X-25591Y75787D02*
D03*
Y85630D02*
D03*
D59*
Y116220D02*
D03*
Y128425D02*
D03*
Y161102D02*
D03*
X25591Y116535D02*
D03*
Y128740D02*
D03*
Y161417D02*
D03*
X0Y15354D02*
D03*
Y27559D02*
D03*
Y60236D02*
D03*
D60*
X-20866Y444882D02*
D03*
X20866D02*
D03*
X-20866Y336614D02*
D03*
X20866D02*
D03*
D61*
X13779Y352362D02*
D03*
X-15748D02*
D03*
D62*
X27559Y33150D02*
D03*
D63*
X37559D02*
D03*
X27559Y43150D02*
D03*
X37559D02*
D03*
X27559Y53150D02*
D03*
X37559D02*
D03*
X27559Y63150D02*
D03*
X37559D02*
D03*
X27559Y73150D02*
D03*
X37559D02*
D03*
D64*
X-31496Y248346D02*
D03*
X-21496Y238347D02*
D03*
D65*
X-31496Y228346D02*
D03*
D66*
X-22500Y290591D02*
D03*
X-17500D02*
D03*
X-12500D02*
D03*
X-7500D02*
D03*
X-2500D02*
D03*
X2500D02*
D03*
X7500D02*
D03*
X12500D02*
D03*
X17500D02*
D03*
X22500D02*
D03*
X-22500Y260591D02*
D03*
X-17500D02*
D03*
X-12500D02*
D03*
X-7500D02*
D03*
X-2500D02*
D03*
X2500D02*
D03*
X7500D02*
D03*
X12500D02*
D03*
X17500D02*
D03*
X22500D02*
D03*
X374Y379795D02*
D03*
X-4626D02*
D03*
X-9626D02*
D03*
X-14626D02*
D03*
X5374D02*
D03*
X10374D02*
D03*
X15374D02*
D03*
Y395795D02*
D03*
X10374D02*
D03*
X5374D02*
D03*
X374D02*
D03*
X-4626D02*
D03*
X-9626D02*
D03*
X-14626D02*
D03*
D67*
X-35433Y286221D02*
D03*
Y300394D02*
D03*
D68*
X24409Y407480D02*
D03*
X30709D02*
D03*
X-7086Y234252D02*
D03*
X-787D02*
D03*
X-31890Y407480D02*
D03*
X-25591D02*
D03*
X18504Y305118D02*
D03*
X24803D02*
D03*
D69*
X27559Y350394D02*
D03*
Y356693D02*
D03*
D70*
X39370Y96457D02*
D03*
X25197D02*
D03*
Y11811D02*
D03*
X39370D02*
D03*
M02*
