M48
;Layer_Color=9474304
;FILE_FORMAT=2:5
INCH,LZ
;TYPE=PLATED
T1F00S00C0.01500
T2F00S00C0.02953
T3F00S00C0.03000
T4F00S00C0.03543
T5F00S00C0.03937
T6F00S00C0.05906
T7F00S00C0.08661
T8F00S00C0.11811
%
T01
X002101Y000638
X0033709Y0086614
X0034209Y019048
X0028809Y019068
X0014609Y018678
X0012641Y0182843
X-0001969Y0187008
X0001969Y0192913
X0003509Y020538
X0017809Y022158
X001193Y0239562
X0008509Y025338
X0033584Y0231688
X-0018565Y0223955
X-0040791Y019718
X-0003937Y0169291
X-0040791Y027208
X-0025481Y028828
X-0016641Y029758
X-0024291Y030658
X-0028791Y031728
X-0017598Y0316334
X-000185Y0336019
X0006109Y0329769
X001193Y0302554
X0028609Y030438
X0028809Y031278
X0029647Y0320271
X0025709Y029468
X000101Y036628
X-000209
Y038678
X0005713Y038718
X-0001091Y040278
X0025536Y0399606
X-0028791Y0381496
X-0036691Y0368187
X-0043188Y0363578
X-0023622Y0346457
X0041339Y0360236
X0042809Y028618
T02
X-0031496Y0228346
Y0248346
X-0021496Y0238347
T03
X-0025591Y0075787
Y008563
X-0031496Y0177165
Y0187008
X-0005Y0218504
X0005
X0000984Y0244094
X-0008858
T04
X0027559Y003315
Y004315
Y005315
Y006315
Y007315
X0037559
Y006315
Y005315
Y004315
Y003315
X0013779Y0352362
X-0015748
T05
X-0009843Y0309055
X0
X0009842
Y0417323
X0
X-0009843
T06
X0Y0015354
Y0027559
Y0060236
X-0025591Y011622
X0025591Y0116535
Y012874
Y0161417
X-0025591Y0161102
Y0128425
T07
X-0020866Y0336614
X0020866
Y0444882
X-0020866
T08
X0Y0040866
X-0025591Y0141732
X0025591Y0142047
M30
